<svg width="728" height="440" viewBox="0 0 728 440" fill="none" xmlns="http://www.w3.org/2000/svg">
<rect width="268.324" height="47.455" transform="matrix(0.542043 0.84035 -0.888385 0.459099 467.872 78.5455)" fill="#D0A411"/>
<rect width="268.324" height="47.445" transform="matrix(0.542043 -0.84035 0.888385 0.459099 425.713 304.032)" fill="#D0A411"/>
<rect x="15" y="75.6364" width="153.453" height="52.3636" fill="#D0A411"/>
<rect x="112.037" y="128" width="197.818" height="40.62" transform="rotate(90 112.037 128)" fill="#D0A411"/>
<rect x="692" y="75" width="251" height="40" transform="rotate(90 692 75)" fill="#D0A411"/>
<rect x="215.843" y="194.909" width="125.091" height="40.62" transform="rotate(90 215.843 194.909)" fill="#D0A411"/>
<rect x="206.817" y="75.6364" width="135.4" height="52.3636" fill="#D0A411"/>
<rect width="114.726" height="43.2503" transform="matrix(-0.363605 0.931553 -0.838966 -0.544184 253.224 119.536)" fill="#D0A411"/>
<rect width="114.735" height="43.251" transform="matrix(-0.36366 -0.931532 0.838923 -0.544251 343.873 227.869)" fill="#D0A411"/>
<rect x="378.323" y="194.909" width="125.091" height="40.62" transform="rotate(90 378.323 194.909)" fill="#D0A411"/>
<rect x="202.303" y="226.909" width="137.657" height="49.4545" fill="#D0A411"/>
<rect x="358.013" y="192" width="38.3633" height="43.6364" fill="#D0A411"/>
<rect x="157.17" y="192" width="38.3633" height="43.6364" fill="#D0A411"/>
<rect x="238.41" y="32" width="81.24" height="43.6364" fill="#D0A411"/>
<path d="M177.277 291.571C185.259 277.29 205.808 277.29 213.79 291.571L220.705 303.942L229.806 326.391C235.104 339.459 226.216 353.918 212.163 355.092L197.273 356.335C196.115 356.431 194.951 356.431 193.793 356.335L178.903 355.092C164.851 353.918 155.963 339.459 161.261 326.391L170.362 303.942L177.277 291.571Z" fill="#D0A411"/>
<path d="M180.211 311.273C187.067 299.558 204 299.558 210.855 311.273V311.273L212.753 315.744C217.742 327.498 209.749 340.685 197.02 341.7V341.7C196.031 341.779 195.036 341.779 194.046 341.7V341.7C181.318 340.685 173.325 327.498 178.314 315.744L180.211 311.273V311.273Z" fill="#14110F"/>
<path d="M339.757 291.571C347.739 277.29 368.288 277.29 376.27 291.571L383.185 303.942L392.286 326.391C397.584 339.459 388.696 353.918 374.643 355.092L359.753 356.335C358.595 356.431 357.431 356.431 356.273 356.335L341.383 355.092C327.331 353.918 318.443 339.459 323.741 326.391L332.842 303.942L339.757 291.571Z" fill="#D0A411"/>
<path d="M342.691 311.273C349.547 299.558 366.48 299.558 373.335 311.273V311.273L375.233 315.744C380.222 327.498 372.229 340.685 359.5 341.7V341.7C358.511 341.779 357.516 341.779 356.526 341.7V341.7C343.798 340.685 335.805 327.498 340.794 315.744L342.691 311.273V311.273Z" fill="#14110F"/>
</svg>
