<svg width="500" height="300" viewBox="0 0 500 300" fill="none" xmlns="http://www.w3.org/2000/svg">
<rect width="100.806" height="20.1269" transform="matrix(0.639353 0.768913 -0.928194 0.372095 295.682 108)" fill="#F3F3F4"/>
<rect width="100.806" height="20.1227" transform="matrix(0.639353 -0.768913 0.928194 0.372095 277 185.511)" fill="#F3F3F4"/>
<rect x="95" y="107" width="68" height="18" fill="#F3F3F4"/>
<rect x="138" y="125" width="68" height="18" transform="rotate(90 138 125)" fill="#F3F3F4"/>
<rect x="395" y="107" width="86" height="18" transform="rotate(90 395 107)" fill="#F3F3F4"/>
<rect x="184" y="148" width="43" height="18" transform="rotate(90 184 148)" fill="#F3F3F4"/>
<rect x="180" y="107" width="60" height="18" fill="#F3F3F4"/>
<rect x="200.564" y="122.091" width="41.1262" height="18" transform="rotate(116.71 200.564 122.091)" fill="#F3F3F4"/>
<rect x="240.734" y="159.33" width="41.13" height="18" transform="rotate(-116.714 240.734 159.33)" fill="#F3F3F4"/>
<rect x="256" y="148" width="43" height="18" transform="rotate(90 256 148)" fill="#F3F3F4"/>
<rect x="178" y="159" width="61" height="17" fill="#F3F3F4"/>
<rect x="247" y="147" width="17" height="15" fill="#F3F3F4"/>
<rect x="158" y="147" width="17" height="15" fill="#F3F3F4"/>
<rect x="194" y="92" width="36" height="15" fill="#F3F3F4"/>
<path d="M164.34 184.794C169.558 177.552 180.442 177.552 185.66 184.794V184.794C185.988 185.248 186.285 185.729 186.544 186.226V186.226C190.485 193.767 185.367 202.869 176.876 203.418L175 203.54L173.124 203.418C164.633 202.869 159.515 193.767 163.456 186.226V186.226C163.715 185.729 164.012 185.248 164.34 184.794V184.794Z" fill="#F3F3F4"/>
<path d="M168.509 187.604C171.735 183.328 178.265 183.328 181.491 187.604V187.604C181.688 187.865 181.869 188.144 182.026 188.432V188.432C184.399 192.769 181.457 198.101 176.523 198.406L175 198.5L173.477 198.406C168.543 198.101 165.601 192.769 167.974 188.432V188.432C168.131 188.144 168.312 187.865 168.509 187.604V187.604Z" fill="#D0A411"/>
<path d="M236.34 184.794C241.558 177.552 252.442 177.552 257.66 184.794V184.794C257.988 185.248 258.285 185.729 258.544 186.226V186.226C262.485 193.767 257.367 202.869 248.876 203.418L247 203.54L245.124 203.418C236.633 202.869 231.515 193.767 235.456 186.226V186.226C235.715 185.729 236.012 185.248 236.34 184.794V184.794Z" fill="#F3F3F4"/>
<path d="M240.509 187.604C243.735 183.328 250.265 183.328 253.491 187.604V187.604C253.688 187.865 253.869 188.144 254.026 188.432V188.432C256.399 192.769 253.457 198.101 248.523 198.406L247 198.5L245.477 198.406C240.543 198.101 237.601 192.769 239.974 188.432V188.432C240.131 188.144 240.312 187.865 240.509 187.604V187.604Z" fill="#D0A411"/>
</svg>
