<svg width="112" height="72" viewBox="0 0 112 72" fill="none" xmlns="http://www.w3.org/2000/svg">
<path d="M32.99 0.0187161C33.1304 0.0155967 33.4173 0.00623875 33.5577 0C33.826 1.49418 34.1847 2.97276 34.6495 4.41703C42.8878 3.88674 51.1759 3.82747 59.4017 4.5886C64.165 5.10329 68.9938 6.01727 73.2705 8.26322C74.4153 8.8403 75.6194 9.31757 76.6862 10.0413C81.0346 13.0265 85.2208 16.2551 89.2073 19.7082C90.5393 20.1512 92.2363 20.1699 93.1253 21.4519C93.7367 22.1756 93.6805 23.1769 93.9051 24.0317C96.9621 25.8502 99.8818 28.0213 102.153 30.7882C102.967 31.9517 104.399 32.4602 105.222 33.6237C106.205 34.6812 106.582 36.0849 107.003 37.4231C107.259 38.3277 108.058 38.9579 108.304 39.8562C108.426 42.0398 109.87 43.8334 110.316 45.9421C110.641 47.8044 111.53 49.5263 111.651 51.4291C111.848 54.1118 112.331 56.8693 111.639 59.5176C111.277 60.7623 110.126 61.4704 109.068 62.0599C106.083 66.1526 100.038 67.6218 95.5303 65.2916C94.5571 64.8487 93.7648 64.1156 92.8445 63.5947C91.5687 63.5073 90.2929 63.8536 89.0108 63.8629C84.4191 64.0314 79.8399 64.3995 75.2513 64.649C73.3952 64.6646 72.1413 66.2617 70.463 66.8045C69.078 67.0884 67.6525 66.9574 66.2488 66.948C62.9079 66.8295 59.5608 66.8638 56.2325 66.5269C53.5966 70.0299 48.9487 71.6239 44.6689 71.2371C41.98 70.9346 39.4752 69.4154 37.9654 67.1695C36.8892 65.6815 36.2716 63.9378 35.6259 62.2346C32.7498 61.6357 29.9392 60.7467 27.0725 60.0854C22.303 58.9437 17.5959 57.5524 12.792 56.5574C12.2306 57.3372 11.6753 58.195 10.7738 58.6162C9.52606 59.318 8.04748 59.3211 6.65624 59.2962C5.77034 59.265 4.85324 59.2931 4.00789 58.9905C2.95042 58.5475 2.2704 57.5524 1.73699 56.5854C1.00393 55.1817 0.454924 53.6719 0.211612 52.106C-0.193906 49.9131 0.155464 47.6859 0.0525248 45.4774C-0.0410564 42.4609 -0.159593 39.2885 1.15678 36.4904C2.1581 34.3817 3.22181 32.298 4.12331 30.1456C4.4446 28.8012 4.13267 27.3881 4.34478 26.0218C4.74718 26.0343 5.14646 26.0499 5.54886 26.0748L5.13087 25.7036C5.62997 25.0205 6.13218 24.3405 6.68431 23.701C5.72667 23.857 5.59253 25.0985 5.01857 25.7411C4.88132 25.738 4.60057 25.7286 4.4602 25.7255C4.53194 24.3592 5.45216 23.3204 6.52523 22.5967C7.90087 21.7046 8.51227 20.1168 9.16421 18.6913C10.2342 16.2083 11.6254 13.8843 13.0697 11.6072C13.8246 10.4125 14.8196 9.35188 16.0705 8.67498C18.8249 7.10593 21.9848 6.52261 25.0481 5.85506C27.999 5.30293 30.9811 4.93485 33.9632 4.60108C33.6638 3.06946 33.252 1.55969 32.99 0.0187161ZM36.256 5.30917C34.0381 5.40899 31.7828 5.43707 29.6554 6.15764C25.5191 6.44775 21.3828 7.2931 17.6021 9.03683C16.423 9.62639 15.2033 10.3002 14.4516 11.4231C12.6361 14.1869 11.0421 17.1004 9.78185 20.1605C9.26092 21.5299 8.47483 22.7777 7.48599 23.8539C6.0542 25.7754 6.49403 28.2927 6.02301 30.5012C5.92319 33.318 5.83896 36.1723 6.35678 38.9579C6.4566 39.6004 6.87771 40.1775 6.75294 40.8513C8.63392 43.6588 9.09871 47.0713 10.4151 50.1252C10.7769 50.9674 11.3759 51.8097 12.3148 52.0499C14.2238 52.5989 16.1641 53.0262 18.0919 53.5066C17.9109 46.7844 17.8797 40.0559 18.0388 33.3305C18.1667 32.0204 18.1075 30.6416 18.6627 29.4188C19.2991 27.856 19.8481 26.2558 20.631 24.7585C17.7425 23.9006 14.8508 23.0678 11.9685 22.1975C12.1651 19.259 13.6967 16.6887 14.6169 13.953C14.9507 12.7957 15.821 11.8879 16.9221 11.4263C19.6391 10.2035 22.5744 9.49537 25.516 9.06802C27.974 8.96508 30.6317 8.92453 32.8091 10.2503C34.2284 11.0551 35.2547 12.3402 36.3745 13.4913C35.6539 12.1312 34.6526 10.8866 33.408 9.97576C32.4753 9.2739 31.3087 9.07426 30.2356 8.69993C32.0043 8.85902 33.879 9.47354 35.0332 10.8991C37.1044 13.4039 38.2274 16.4921 39.5032 19.4368C39.6998 19.886 39.575 20.4038 39.7809 20.853C41.2189 24.0379 43.0125 27.1167 43.8704 30.5293C44.1605 31.1189 43.1747 31.2187 42.816 31.1033C41.4529 30.8568 40.1427 30.3858 38.7858 30.1082C37.7782 32.9655 36.9235 35.9071 36.6397 38.936C36.203 42.6824 35.6945 46.4475 35.8317 50.225C36.9391 48.4688 37.7658 46.5067 39.2381 45.0001C40.1115 44.005 41.4404 43.2844 42.7973 43.5465C44.6003 43.9021 45.9604 45.2902 47.0303 46.697C49.0392 45.05 51.0761 43.431 53.1193 41.8277C51.1884 43.5652 49.0797 45.0937 47.0646 46.7345C48.2905 48.6466 49.2887 50.7023 50.0998 52.8204C50.9451 55.6153 51.544 58.4883 51.8965 61.3893C52.0462 62.3282 52.1118 63.3077 52.4954 64.1905C52.851 64.8611 53.6652 65.0077 54.3515 65.0545C59.0305 65.3945 63.7283 65.3665 68.4136 65.3322C70.0669 65.379 71.5642 64.6365 72.7464 63.5292C75.6131 62.8055 78.614 62.8242 81.5462 62.5247C87.6726 62.2034 93.7866 61.6731 99.9193 61.5047C100.715 61.4953 101.354 62.0506 102.093 62.2565C103.716 62.2565 105.247 61.6419 106.779 61.1803C107.949 60.7748 109.259 60.3973 110.073 59.4054C111.012 55.9584 110.99 52.2464 110.082 48.787C109.315 51.27 110.282 53.9215 109.568 56.3827C107.958 58.56 105.016 59.0529 102.499 59.4054C103.547 56.5293 104.611 53.6252 106.108 50.9425C106.938 49.5294 108.641 48.9804 109.577 47.6796C109.427 45.3588 108.301 43.2158 107.237 41.1882C104.879 41.8682 102.861 43.272 100.768 44.4979C99.3703 45.4337 98.4438 46.9622 96.8997 47.6952C95.3463 48.4033 93.6712 48.8057 91.9836 49.0022C87.292 49.5575 82.5319 49.8913 77.831 49.2705C76.5271 49.074 75.2263 48.6809 74.147 47.9042C73.1831 47.324 72.5561 46.3445 71.6203 45.7331C70.1449 45.025 68.4854 44.8753 66.8726 44.8441C64.296 44.816 61.7038 44.607 59.1896 44.0487C57.6736 43.5277 55.9798 43.1347 54.8818 41.8776C53.372 40.2586 51.6969 38.7208 50.6893 36.7181C50.3244 35.8478 50.0374 34.7529 50.5708 33.8889C51.7624 32.7753 53.4718 33.5145 54.8755 33.5863C53.6902 32.6411 52.1679 32.2918 50.9638 31.3778C48.8427 29.8119 47.2143 27.6844 45.7825 25.4978C46.0009 25.3012 46.2224 25.1047 46.4407 24.902C45.3614 23.8039 44.6658 22.4158 43.8548 21.1244C41.6993 17.6775 40.2145 13.8719 38.3491 10.2752C36.7114 7.50833 33.2801 6.94061 30.4165 6.24499C32.5065 6.1826 34.6339 6.59124 36.518 7.51145C37.5412 7.9856 38.2181 8.91829 39.0915 9.58584C48.6305 8.58764 58.2444 8.76232 67.824 8.69369C69.1716 8.72177 70.5223 8.73425 71.8636 8.58452C66.1458 5.80515 59.6575 5.51193 53.425 5.11577C47.7041 4.90054 41.9676 4.85998 36.256 5.30917ZM74.7054 10.2627C78.5984 13.5162 82.6598 16.5826 86.3313 20.0919C87.4418 21.1026 88.2715 22.4657 89.669 23.1239C87.2952 19.677 83.8826 17.1784 80.6634 14.58C78.7325 13.0702 76.8609 11.4543 74.7054 10.2627ZM30.2262 21.3958C29.019 21.6796 27.5249 21.8606 26.8199 23.021C26.9446 23.9911 27.3439 24.9269 27.8805 25.7411C30.4664 25.8253 33.0617 25.844 35.6477 25.7192C35.8349 24.4278 35.9659 22.865 35.0581 21.8044C33.7074 20.6471 31.8077 21.1743 30.2262 21.3958ZM90.0496 21.1899C90.4738 22.2879 91.3753 23.1239 92.4889 23.5014C92.6667 22.1101 91.4283 20.9341 90.0496 21.1899ZM20.7527 24.902C20.0664 26.5552 19.349 28.2085 18.8218 29.9242C18.148 33.3056 18.4225 36.7743 18.3695 40.2025C18.4381 44.6726 18.3633 49.1489 18.5629 53.6189C24.0561 54.8573 29.4682 56.4638 34.9926 57.5556C34.9926 50.799 35.5822 44.058 36.2934 37.3451C31.5769 35.461 27.0133 33.2089 22.3342 31.2405C21.9193 31.9486 21.389 33.0622 20.369 32.7784C19.7701 32.4259 19.218 31.9361 19.0246 31.2405C19.5798 31.5493 20.029 32.0547 20.6435 32.2512C21.0553 32.0297 21.3828 31.696 21.7103 31.3684C20.7496 31.0253 19.6827 30.9379 18.8218 30.3515C20.0508 29.6902 21.1582 30.8756 22.3872 30.9379C21.6979 30.2735 20.7652 29.9959 19.8481 29.8243C19.873 29.6496 19.9261 29.3034 19.951 29.1287C21.8195 30.1643 23.5227 31.4838 25.5503 32.22C29.1126 33.8951 32.7716 35.3456 36.3776 36.924C36.9142 34.5876 37.8001 32.3541 38.4489 30.052C37.5879 29.5685 36.6241 29.3128 35.7288 28.9041C34.7493 28.5017 33.8291 27.8934 32.756 27.7655C31.0279 27.5004 29.2467 27.7874 27.5311 27.4193C27.0975 27.0356 26.8729 26.4585 26.4424 26.0811C24.549 25.688 22.6399 25.3356 20.7527 24.902ZM45.898 25.4104C47.0085 27.3975 48.7927 28.8636 50.4335 30.3921C51.8029 31.7303 53.528 32.5756 55.0939 33.6424C56.6536 34.1603 58.2133 34.7186 59.6076 35.617C61.42 36.9022 63.2542 38.1655 65.1632 39.3041C66.9537 40.2368 69.0968 40.9574 70.1261 42.8352C71.1431 44.2046 72.3066 45.4649 73.3952 46.775C75.5227 49.127 78.9384 49.0366 81.8456 49.2861C86.0162 49.2892 90.2055 48.9523 94.3044 48.1569C96.5971 47.7171 98.7994 46.2946 99.7352 44.0955C100.035 42.9288 99.8351 41.6936 100.11 40.5207C100.434 39.4944 101.017 38.5617 101.248 37.5042C101.566 36.0256 101.682 34.5096 101.732 32.9999C101.844 31.7646 100.921 30.8007 100.094 30.0209C98.1537 28.2428 96.2384 26.3462 93.8084 25.2513C92.3111 26.2495 90.4021 25.9345 88.702 26.1497C82.6723 26.2433 76.6394 26.4211 70.6065 26.418C66.0366 26.655 61.4543 27.0263 56.8813 26.6894C54.6041 26.5116 52.3176 26.4492 50.0436 26.2433C48.6181 26.1435 47.3641 25.1484 45.898 25.4104ZM5.09343 30.2049C4.47892 31.9985 3.81761 33.7797 2.85996 35.4267C1.76818 37.3576 1.18174 39.5256 0.779338 41.6935C1.41881 40.3273 2.43261 38.4868 4.19193 38.6615C5.37106 38.7145 5.93566 39.8562 6.58137 40.6642C5.57382 37.1361 5.3617 33.4178 5.7641 29.7775C5.49895 29.3315 5.14958 29.9709 5.09343 30.2049ZM51.5627 34.4972C51.1136 35.433 51.9839 36.3126 52.458 37.055C52.6888 36.1379 53.2846 35.4049 53.9584 34.7685C53.1661 34.6594 52.3644 34.3131 51.5627 34.4972ZM102.571 37.8973C103.223 38.2248 103.94 38.4026 104.639 38.6085C104.402 38.5024 103.925 38.2903 103.684 38.1811C103.734 37.7756 103.784 37.367 103.84 36.9615C104.115 36.9271 104.658 36.8616 104.929 36.8304C104.764 36.3033 104.573 35.7886 104.368 35.2801C103.931 35.3207 103.497 35.3924 103.073 35.4922C102.187 35.9289 102.43 37.1081 102.571 37.8973ZM55.5025 36.0537C54.7757 36.4 54.0582 37.1049 54.1612 37.9784C54.0271 39.4726 55.1064 40.633 56.0359 41.653C57.084 42.5794 58.4753 42.9507 59.748 43.4529C59.7043 43.0973 59.6544 42.7417 59.6139 42.3892C59.9882 42.1084 60.2814 41.7591 60.4966 41.3411C60.6713 41.6935 60.8398 42.0492 60.9989 42.411C60.7587 42.7417 60.506 43.0598 60.2408 43.3718C60.7961 43.4154 61.2858 43.1316 61.7257 42.8259C61.8848 42.8976 62.1998 43.038 62.3558 43.1097L61.8629 42.882C63.1013 41.9431 61.8037 41.1258 60.9801 40.7234C61.3607 41.1976 61.7569 41.6624 62.0844 42.1802C61.9066 42.4328 61.7288 42.6824 61.5447 42.9319C61.3607 42.1271 60.7867 41.5875 60.244 41.026C60.0849 40.1463 60.7181 39.4039 61.2921 38.8237C61.657 39.067 62.153 39.248 62.0844 39.7939C62.3589 40.0964 62.6303 40.399 62.9048 40.7078C63.0483 40.4364 63.1949 40.1651 63.3197 39.8843C62.6927 39.2979 61.9815 38.7925 61.239 38.3652C60.5278 38.858 60.4342 39.8406 60.0007 40.5363C59.4516 39.9155 59.0025 39.2168 58.5564 38.5243C57.4896 39.2105 56.6785 40.2306 55.515 40.7889C55.3965 40.3709 55.2842 39.9529 55.175 39.5349C56.1763 38.6834 56.9655 37.6041 57.8982 36.6745C57.1932 36.2284 56.3603 35.7667 55.5025 36.0537ZM102.674 38.5867C103.001 39.5537 103.56 40.4364 104.283 41.157C104.648 40.7827 104.966 40.3616 105.278 39.9373C104.932 40.0652 104.589 40.1963 104.246 40.3304C103.731 39.7408 103.235 39.1325 102.674 38.5867ZM101.975 39.0015C101.679 39.3322 101.379 39.6566 101.077 39.9779C100.995 40.4676 100.871 40.948 100.702 41.4128C100.674 41.9774 100.799 42.5327 100.958 43.0723C101.442 42.9132 102.187 42.7604 102.078 42.0772C102.284 41.2818 101.392 40.9106 101.226 40.2493C101.42 40.1744 101.8 40.0278 101.991 39.9529C102.477 40.5425 102.792 41.2412 102.948 41.9899C103.057 41.8807 103.279 41.6655 103.388 41.5563C102.973 40.6735 102.43 39.8625 101.975 39.0015ZM64.8388 41.2818C64.4863 41.8027 64.399 42.62 64.9168 43.0692C65.6436 43.7555 66.7978 43.7461 67.6306 43.2595C67.3499 42.5514 67.3 41.5968 66.5326 41.21C66.0273 40.9387 65.2194 40.6829 64.8388 41.2818ZM3.64916 42.1739C2.98474 42.6699 2.60729 43.4342 2.16434 44.1111C1.07568 45.6583 1.3533 47.6516 1.34083 49.4327C1.70891 49.0116 2.0614 48.578 2.41389 48.1444C2.77574 48.3285 3.13447 48.5125 3.49319 48.7028C3.15006 49.5201 2.19865 50.7085 1.38762 49.5606C1.34083 51.5944 1.868 53.6719 2.92547 55.4157C3.36218 55.9865 3.95174 56.8007 4.77526 56.6104C6.26008 55.921 7.12103 53.8404 6.22576 52.3899C6.28815 51.2731 6.13842 50.1377 5.51767 49.1863C5.98245 48.6435 6.47843 48.1319 7.01185 47.6578C7.28947 49.0022 7.34562 50.3748 7.49223 51.7348C7.63572 50.172 7.29883 48.6279 6.99625 47.1057C6.52834 47.7295 5.97622 48.2754 5.41473 48.8151C5.24316 48.6498 5.06848 48.4844 4.89379 48.3222C5.26812 47.8855 5.62061 47.4301 5.91071 46.931C6.86836 45.6707 6.31935 43.9457 5.65492 42.6824C5.33051 41.9275 4.30111 41.6904 3.64916 42.1739ZM6.72798 42.1084C6.72486 43.0162 7.22397 43.8178 7.75114 44.5166C7.99445 45.1935 8.24088 45.8704 8.453 46.5598C9.2578 49.1208 8.75246 51.8346 9.13926 54.458C10.7177 54.7294 12.3179 54.8979 13.8745 55.2878C21.1145 57.0596 28.3359 58.9063 35.5416 60.8091C35.4231 59.8046 35.2515 58.8064 35.0737 57.8114C33.2395 57.7708 31.4989 57.1376 29.7271 56.7383C23.9812 55.372 18.2665 53.8716 12.555 52.3649C11.0546 52.0904 10.3433 50.5339 9.87543 49.2455C9.08623 46.7625 8.02252 44.37 6.72798 42.1084ZM42.0549 47.9042C38.5768 48.9835 37.3353 52.864 36.8331 56.0926C36.7894 59.8296 37.6628 63.9316 40.4952 66.583C41.9769 67.9899 44.3133 68.4983 46.1756 67.5594C49.0641 66.1775 50.7018 62.949 50.7954 59.8421C50.5022 57.5805 50.0187 55.3377 49.1047 53.2383C48.303 51.3854 47.6573 49.2268 45.82 48.1226C44.7126 47.3552 43.2652 47.4394 42.0549 47.9042Z" fill="#F0B81B"/>
<path d="M9.79545 26.1623C10.3382 26.0001 10.9184 26.0594 11.4799 26.0438C11.2896 26.8392 11.2834 27.7251 10.803 28.4145C10.4848 28.8418 9.93271 28.7919 9.46792 28.8762C9.09359 28.5081 8.71615 28.1431 8.35742 27.7625C8.80973 27.2135 9.13727 26.4992 9.79545 26.1623ZM9.49287 26.8267C8.72239 27.7875 10.176 27.6877 10.7531 27.5567C10.7812 27.2541 10.8093 26.9546 10.8311 26.652C10.4973 26.6957 9.82977 26.7831 9.49287 26.8267Z" fill="#F0B81B"/>
<path d="M55.3619 36.4312C55.8298 35.9633 56.4131 36.5435 56.881 36.7057C56.4817 37.1611 56.0856 37.6197 55.6551 38.047C55.8423 37.6041 56.0637 37.1767 56.2634 36.7369C55.1841 36.8866 54.791 37.9129 54.3824 38.7613C54.2327 37.838 54.5197 36.9053 55.3619 36.4312Z" fill="#F0B81B"/>
<path d="M56.7625 41.2503C56.6658 40.0587 57.7077 39.5346 58.606 39.0667C57.7732 40.1148 59.0802 40.8354 59.991 40.695C59.9349 41.06 59.8226 41.7868 59.7664 42.1486C59.3765 42.2079 58.9866 42.2703 58.5967 42.3296C58.5062 41.896 58.422 41.4655 58.3346 41.035C57.8137 41.1224 57.2865 41.1941 56.7625 41.2503Z" fill="#F0B81B"/>
<path d="M83.7331 41.8213C85.7982 41.3191 87.9224 41.6342 90.0155 41.4283C93.0694 41.2754 96.1264 41.1943 99.174 40.9385C98.5813 42.3734 98.5065 44.0298 97.5582 45.3088C96.6848 46.3943 95.3559 47.0151 94.0208 47.3145C91.2602 47.9509 88.4247 48.2192 85.5985 48.3533C82.6663 48.3564 79.653 48.5498 76.805 47.7169C74.1504 46.7312 72.6313 44.1515 70.8719 42.0958C75.1548 42.2674 79.4658 42.2955 83.7331 41.8213ZM84.3882 42.6448C84.4194 43.5588 84.4319 44.4728 84.4475 45.3868C84.7407 45.1965 85.0246 44.9906 85.324 44.8066C84.9247 43.9581 85.2398 42.6667 86.2505 42.4483C87.2144 42.1863 87.7696 43.2812 88.6617 43.4403C88.2687 43.0004 87.8601 42.5668 87.3921 42.205C86.3846 41.9024 85.3022 42.1738 84.3882 42.6448ZM85.5892 43.668C85.5736 44.7567 87.1956 44.3106 87.6417 45.0904C86.8431 45.995 85.6765 45.2838 84.6877 45.3369C85.7607 46.4349 87.6604 46.3007 88.3404 44.8565C87.6043 44.2856 86.5406 42.7478 85.5892 43.668Z" fill="#F0B81B"/>
<path d="M100.717 41.7467C100.939 41.6219 101.385 41.3724 101.609 41.2476C101.641 41.7374 101.903 42.3176 101.444 42.6981C101.001 42.5702 100.901 42.1054 100.717 41.7467Z" fill="#F0B81B"/>
<path d="M65.5959 41.7092C66.4038 41.129 67.7577 42.6232 66.6128 43.0848C65.8049 43.3531 65.362 42.3736 65.5959 41.7092Z" fill="#F0B81B"/>
<path d="M3.25012 43.6056C3.19398 43.144 3.70555 42.9131 3.93015 42.5731C3.78978 43.6212 4.09235 44.6444 4.32943 45.6519C4.60393 44.7099 4.73495 43.7335 4.99073 42.7852C5.36194 43.1533 5.91095 43.4185 6.03572 43.9706C6.58161 45.4055 5.60525 46.7593 4.98138 47.9852C4.57586 47.2428 4.25456 46.4536 4.27016 45.5958C4.18594 45.6332 4.01749 45.7019 3.93327 45.7393C3.73051 45.0187 3.42169 44.3325 3.25012 43.6056Z" fill="#F0B81B"/>
<path d="M2.54724 44.841C3.25846 45.2808 4.17243 45.6926 4.26602 46.6502C3.55792 46.1917 2.89973 45.6271 2.54724 44.841Z" fill="#F0B81B"/>
<path d="M2.37256 45.7147C3.10873 46.5101 3.89481 47.2837 4.35648 48.285C3.11185 48.0105 2.50981 46.8813 2.37256 45.7147Z" fill="#F0B81B"/>
<path d="M4.0542 48.4529C4.232 48.4529 4.58761 48.456 4.76542 48.4591C4.77789 48.6057 4.80285 48.9021 4.81533 49.0487C4.64064 49.0424 4.29127 49.0268 4.11659 49.0206C4.10099 48.8771 4.0698 48.5933 4.0542 48.4529Z" fill="#F0B81B"/>
<path d="M40.2364 50.9675C41.1099 49.3829 42.8941 48.1414 44.7564 48.394C46.6405 48.9836 47.9756 50.7117 48.3842 52.6052C47.3299 53.4505 46.6093 54.6921 45.3616 55.2879C45.0902 54.6266 44.9124 53.9309 44.9186 53.2135C44.7627 53.6845 44.5911 54.1493 44.4102 54.611C44.3322 52.5958 44.6753 50.5901 45.1931 48.6467C44.9717 48.6685 44.5349 48.7185 44.3166 48.7403C43.9641 50.3343 43.8612 51.972 43.5118 53.566C43.4806 54.0807 43.0657 54.6733 43.4837 55.1381C43.8175 55.057 44.1481 54.9634 44.4757 54.8605C44.7096 55.1693 44.9405 55.4813 45.1713 55.7963C44.4601 55.8493 43.752 55.9149 43.0439 55.9991C42.707 54.0058 41.7431 52.1966 40.7979 50.4372C40.5515 51.4635 40.8198 52.4461 41.2596 53.3632C40.6763 52.6208 40.0742 51.8784 39.6625 51.0237C39.806 51.0081 40.093 50.98 40.2364 50.9675ZM45.4458 49.0086C45.3709 50.4216 45.1089 51.8191 45.0247 53.2353L45.2368 53.2634C45.4084 51.8503 45.5487 50.431 45.7733 49.0242L45.4458 49.0086Z" fill="#F0B81B"/>
<path d="M3.13775 50.5186C3.73043 51.6322 3.6462 52.8986 3.44033 54.1027C3.066 53.457 2.7759 52.7707 2.47644 52.0938C2.70415 51.5698 2.91315 51.0395 3.13775 50.5186Z" fill="#F0B81B"/>
<path d="M4.24149 54.0306C4.76554 52.6207 4.79362 51.0703 5.44557 49.6978C5.68888 50.4839 5.90723 51.2856 6.01641 52.106C5.54851 52.3898 5.20226 53.0168 5.99458 53.2882C5.90724 54.146 5.76686 55.0756 5.10868 55.7026C4.26021 55.8305 3.92955 54.7075 3.5022 54.1679C3.68624 54.1336 4.05433 54.0649 4.24149 54.0306Z" fill="#F0B81B"/>
<path d="M38.0123 54.0679C38.3429 53.497 38.4833 52.6735 39.1072 52.3491C40.3081 53.1134 41.2876 54.2239 41.8491 55.5402C40.5171 55.3 39.1165 55.5808 37.8407 55.0255C38.2743 54.6887 38.7235 54.3767 39.1664 54.0523C38.8763 54.0554 38.2992 54.0617 38.0123 54.0679Z" fill="#F0B81B"/>
<path d="M58.1316 53.0638C60.1467 53.0731 62.0745 53.7438 63.9523 54.3989C65.3717 54.9105 66.4822 55.9866 67.8328 56.6199C69.9135 56.8975 71.9785 56.3516 74.0435 56.1832C75.8995 55.943 77.7743 55.9398 79.6303 55.7215C82.6436 55.3721 85.6944 55.656 88.7015 55.2349C93.3774 54.6827 98.0783 54.5268 102.77 54.1212C102.143 55.9523 101.176 57.7397 99.6567 58.9812C98.802 59.7517 97.5854 59.7361 96.5092 59.8921C90.4826 60.4161 84.4466 60.7874 78.4106 61.1866C76.3207 61.3488 74.2244 61.1991 72.1313 61.2927C71.6666 61.3332 71.4014 60.8591 71.0739 60.6158C69.9228 59.4398 68.6283 58.4135 67.2152 57.5744C68.1042 58.7223 68.8092 59.9919 69.405 61.3145C69.2241 61.2771 68.8654 61.196 68.6876 61.1554C68.8716 61.2927 69.2428 61.5703 69.43 61.7076C69.6546 62.3158 68.9589 62.8337 68.3975 62.7775C66.2108 62.9054 64.0147 62.6153 61.8561 62.2753C60.5522 62.11 60.1405 60.6002 59.8098 59.5396C59.267 57.3779 58.6588 55.2317 58.1316 53.0638Z" fill="#F0B81B"/>
<path d="M45.1912 56.3295C46.573 55.5278 47.7335 54.4079 49.1153 53.6094C49.3836 54.2395 49.6332 54.879 49.8733 55.5216C48.6474 56.0175 47.4309 56.5541 46.1519 56.9066C45.8088 56.7537 45.4875 56.5634 45.1912 56.3295Z" fill="#F0B81B"/>
<path d="M47.095 57.5088C47.9185 56.8444 48.7482 56.1706 49.7308 55.7495C50.336 57.306 50.7259 58.9718 50.5076 60.6469C49.0539 60.0012 47.9965 58.7784 47.095 57.5088Z" fill="#F0B81B"/>
<path d="M37.8502 56.4421C39.4068 56.5014 41.1193 56.6293 42.2361 57.8677C41.5217 59.6707 41.0226 61.561 40.1242 63.2892C39.8061 62.8712 39.491 62.4438 39.1822 62.0196C39.5378 61.3614 39.9776 60.7562 40.483 60.2103C39.934 60.1604 39.3382 60.1854 38.8609 59.861C38.2589 58.8191 38.1466 57.5869 37.8502 56.4421Z" fill="#F0B81B"/>
<path d="M41.3364 56.3922C41.9197 56.4545 42.4999 56.5045 43.0833 56.5512C43.3079 56.9536 43.4358 57.6898 44.069 57.5962C44.6336 57.6305 45.0391 57.0971 45.5944 57.0753C45.6006 57.147 45.6131 57.2874 45.6193 57.3592C44.8894 57.9362 44.0596 58.4135 43.1581 58.6693C42.0757 58.4197 42.2348 56.9318 41.3364 56.3922Z" fill="#F0B81B"/>
<path d="M46.0348 56.857C46.3997 58.9938 48.3338 60.1386 50.0931 61.0526C49.8342 62.2098 49.5659 63.4014 48.8422 64.3747C47.6101 62.9554 46.8333 61.2241 45.6729 59.7549C46.094 61.6546 47.4946 63.1488 48.7642 64.5587C48.1934 64.8987 47.5726 65.0984 46.9051 65.036C46.041 63.4077 45.7197 61.586 45.4171 59.7892C44.6155 58.7598 45.6792 57.8146 46.0348 56.857Z" fill="#F0B81B"/>
<path d="M42.6715 61.0496C42.9772 60.5286 43.3421 60.042 43.8568 59.7114C44.1313 61.948 45.3385 63.8695 46.2213 65.894C45.0328 66.4898 43.8069 66.0312 42.6777 65.5446C42.4313 64.7148 42.3876 63.8601 42.7183 63.0397C42.3003 63.882 41.9072 64.7492 41.249 65.4417C40.3382 63.9662 41.5641 62.366 42.5155 61.2648C42.7401 61.6953 42.9772 62.1258 43.2142 62.55C43.3577 62.3566 43.5043 62.1601 43.6509 61.9667C43.3359 61.6485 43.0115 61.3397 42.6715 61.0496Z" fill="#F0B81B"/>
</svg>
