<svg width="154" height="75" viewBox="0 0 154 75" fill="none" xmlns="http://www.w3.org/2000/svg">
<path d="M51.8455 0.576661C61.7703 -0.249306 71.7585 -0.122658 81.6915 0.543623C88.1056 0.956606 94.6384 1.69172 100.605 4.23019C101.778 4.80011 103.051 5.25164 104.055 6.10514C105.289 7.53957 105.722 9.46132 106.879 10.9481C108.582 13.0818 109.815 15.5349 111.449 17.7182C111.852 18.0817 111.778 19.0921 112.468 18.9792C112.423 18.7672 112.335 18.3432 112.291 18.134C112.57 18.1615 113.127 18.2193 113.406 18.2496C113.456 19.227 113.439 20.2072 113.409 21.1846C116.072 21.7077 118.76 22.0794 121.462 22.3409C127.498 23.2027 133.54 24.0369 139.617 24.5545C142.971 24.9565 146.343 25.3584 149.622 26.1927C150.955 26.5891 152.506 26.9939 153.323 28.219C153.985 29.2102 153.624 30.3968 153.406 31.4623C153.022 33.0454 153.033 34.7277 152.316 36.2199C151.761 36.2392 151.259 36.5255 150.925 36.9578C150.72 36.9688 150.315 36.9936 150.11 37.0046C150.251 35.3086 148.888 33.9458 148.973 32.2498C148.827 30.8208 149.779 29.2956 151.248 29.034C151.579 28.8633 152.147 28.9486 152.277 28.5274C152.156 28.4283 151.91 28.2246 151.789 28.1254C149.854 26.9939 147.621 26.5754 145.443 26.1762C142.336 25.5897 139.187 25.2731 136.049 24.9234C132.309 24.3563 128.517 24.2682 124.78 23.6927C121.399 23.1256 117.96 22.9411 114.593 22.2941C113.527 21.9885 112.31 21.548 111.281 22.1977C111.877 22.3051 112.498 22.2858 113.086 22.1289C113.481 21.9472 114.157 22.0518 114.193 22.5667C113.574 22.7153 112.962 22.875 112.36 23.0733C113.127 23.1476 113.999 23.1228 114.493 22.429C115.666 22.4978 116.721 23.065 117.874 23.2247C121.515 23.7864 125.174 24.1938 128.834 24.6096C131.31 24.9124 133.761 25.4025 136.245 25.6503C137.9 26.0495 139.601 26.1872 141.301 26.2092C140.898 26.4707 140.418 26.6414 139.935 26.6139C138.544 26.5726 137.144 26.6277 135.762 26.4542C134.133 26.1927 132.461 25.7714 130.813 26.1101C130.079 26.2009 129.342 26.1046 128.611 26.0908C129.209 26.0468 129.808 25.9642 130.388 25.7879C128.845 25.1933 127.178 25.1575 125.569 24.8711C122.252 24.3728 118.907 24.0341 115.639 23.255C114.347 23.2219 113.061 23.7616 111.758 23.456C110.944 23.3376 110.345 22.6823 110.066 21.9444C106.978 22.1619 103.961 22.9081 100.895 23.2853C103.525 23.6982 106.211 23.5578 108.849 23.9102C111.223 24.0975 113.583 24.4003 115.953 24.6151C119.125 25.0088 122.334 25.1327 125.464 25.8072C127.346 26.1514 129.215 26.5891 131.114 26.8507C132.118 27.0131 133.115 26.702 134.122 26.6855C135.397 26.5396 136.67 26.7819 137.945 26.724C139.112 26.6552 140.164 27.3876 140.97 28.1557C141.77 28.9597 141.853 30.116 142.126 31.1457C142.73 31.7074 143.492 32.2112 143.567 33.117C142.827 32.5857 142.01 32.1782 141.124 31.9579C141.488 33.4997 141.726 35.1021 141.56 36.6852C141.458 37.4121 140.578 37.4616 140.012 37.2992C139.819 37.4947 139.628 37.6929 139.438 37.8884C139.316 37.0073 139.043 36.1621 138.82 35.3058C138.955 35.215 139.228 35.0333 139.363 34.9424C139.606 34.9342 140.089 34.9176 140.332 34.9094C140.111 35.4545 139.91 36.0079 139.697 36.5586C140.053 36.6907 140.407 36.8036 140.796 36.7926C140.627 36.677 140.464 36.5586 140.304 36.4402C141.254 35.8785 140.812 34.7469 140.658 33.9072C140.067 34.0476 139.358 34.6533 138.825 34.1027C138.886 33.4997 139.664 33.5906 140.097 33.5218C140.034 33.4667 139.91 33.3566 139.846 33.3015C139.427 33.4337 138.626 33.2987 138.59 33.9182C138.602 34.1137 138.624 34.5074 138.635 34.7029C138.019 34.623 138.171 33.7613 138.276 33.3428C138.665 32.8692 139.344 32.894 139.882 32.7013C139.192 30.4794 137.039 29.1138 134.934 28.4145C132.957 27.8997 130.948 27.4922 128.931 27.1783C122.55 25.843 116.045 25.2566 109.561 24.6619C106.608 24.4912 103.658 24.1883 100.699 24.2076C99.8464 24.2076 98.5492 24.6096 98.0166 23.7974C98.6265 23.3761 99.4517 23.4615 100.131 23.1696C102.775 22.1895 105.546 21.6251 108.3 21.0579C107.221 20.7936 106.15 21.2479 105.096 21.4131C102.51 21.8646 100.109 23.0017 97.5143 23.4174C97.3984 23.0815 97.5501 22.6741 97.9724 22.7016C101.251 22.1427 104.295 20.5073 107.682 20.5568C105.877 20.097 104.124 20.8707 102.391 21.2534C100.768 21.6856 99.0764 21.8371 97.4922 22.4125C97.0092 22.0491 96.4572 22.2445 95.977 22.5033C95.2925 21.7737 94.1251 22.1096 93.3274 22.4621C91.47 23.6432 89.3007 24.169 87.2114 24.7913C85.7514 25.2263 84.25 25.4851 82.7293 25.5402C84.9096 25.9091 87.0927 25.2676 89.1737 24.6812C91.0919 23.9818 92.9769 23.2027 94.8592 22.4097C95.0441 22.5722 95.229 22.7346 95.4167 22.8971C93.5068 23.9323 91.4534 24.6454 89.4221 25.3997C87.4598 26.0357 85.3898 26.3166 83.3337 26.4019C81.8268 26.4377 80.709 25.2373 80.0245 24.0314C78.8985 22.0023 78.0098 19.852 77.1293 17.7072C76.5332 16.27 75.8018 14.8356 75.7162 13.2498C75.6472 12.2503 76.0364 11.2234 76.7899 10.5571C79.1965 9.4861 81.8268 9.09239 84.4018 8.62159C88.9833 7.86996 93.5593 6.81272 98.2319 6.91459C100.018 6.8843 101.77 7.27801 103.542 7.41567C102.435 6.76591 101.088 7.04123 99.8685 6.92835C95.7976 6.52638 91.7377 7.2257 87.7027 7.68274C83.7256 8.32974 79.6906 9.04008 75.9784 10.6672C75.0815 11.8676 74.6123 13.4673 75.0594 14.9347C75.788 17.6329 77.03 20.1493 78.203 22.6713C78.9813 24.6041 80.0218 26.4157 80.9381 28.2824C81.2334 29.001 82.1138 28.9569 82.7541 29.0808C86.4331 29.458 90.1149 29.7939 93.7994 30.1023C103.766 31.2669 113.842 32.0102 123.579 34.557C125.094 34.97 126.679 35.3361 127.912 36.3658C127.763 36.5283 127.617 36.688 127.468 36.8477C126.427 36.2915 125.318 35.8895 124.184 35.5784C120.499 34.4496 116.688 33.8356 112.89 33.2272C111.985 32.8968 111.044 32.839 110.091 32.9216C109.777 32.4645 109.181 32.6407 108.722 32.5636C107.439 32.4122 106.189 31.9634 104.883 32.0983C103.329 31.8258 101.765 31.5917 100.189 31.421C99.4021 31.1843 98.5603 31.143 97.7571 31.2999C98.3119 31.5119 99.7774 30.9695 99.5235 31.9772C94.8785 31.2999 90.2142 30.7713 85.5582 30.1793C83.9409 30.1023 82.3373 29.7251 80.7117 29.849C79.4173 32.2222 79.4118 35.014 79.4946 37.6433C85.7486 38.0123 91.953 38.9676 98.2043 39.3834C101.293 39.5789 104.37 39.9202 107.456 40.1433C107.478 40.2259 107.522 40.3938 107.544 40.4764C106.953 40.6058 106.343 40.6031 105.744 40.6443C107.204 40.6719 108.62 41.2556 110.086 40.9389C109.28 40.8619 108.358 41.0105 107.721 40.3938C108.601 40.0359 109.492 40.4929 110.384 40.5342C111.179 40.6939 112.045 40.5948 112.804 40.8756C112.349 41.3932 111.361 41.1096 110.696 41.2088C111.35 41.3134 112.418 41.0078 112.804 41.5474C111.775 41.9879 110.616 41.5584 109.534 41.6135C104.491 41.0739 99.4324 40.6746 94.39 40.1047C90.9649 39.8542 87.5757 39.254 84.1479 39.0447C82.6934 38.8658 81.2196 38.9208 79.7734 38.6538C79.812 44.6062 80.0659 50.5532 80.0245 56.5029C80.03 57.1554 79.9472 57.8052 79.8175 58.444C68.5459 56.9462 57.2081 55.7678 46.022 53.6616C45.2768 53.4992 44.4709 53.3918 43.85 52.9155C43.2152 52.4226 43.2097 51.5471 43.0441 50.8368C43.8417 50.4981 43.7147 51.6325 43.9604 52.073C44.0956 52.6677 44.7966 52.7145 45.2796 52.8769C47.7056 53.4441 50.1813 53.7772 52.6459 54.1407C58.7564 54.9474 64.8504 55.8614 70.9636 56.6186C73.7318 57.0233 76.5111 57.3537 79.2683 57.8327C79.3649 51.426 79.0365 45.0165 79.0668 38.6125C78.1809 38.0536 77.1211 38.0728 76.1164 37.9682C71.1761 37.3955 66.2 37.2882 61.2542 36.7898C57.117 36.5145 52.9936 36.096 48.8648 35.7298C47.0239 35.6115 45.2051 35.2425 43.3559 35.259C43.2814 39.2182 43.3311 43.1801 43.3752 47.142C43.3394 48.3369 43.7975 49.6722 43.0496 50.7349C42.6301 45.5368 42.6991 40.3195 42.6715 35.1104C38.7717 34.4854 34.8305 34.166 30.9086 33.7227C25.8551 33.1996 20.8072 32.5884 15.7344 32.2801C11.4731 31.8643 7.13997 31.6936 2.88966 32.225C2.58331 35.0195 3.11873 37.8085 3.69832 40.5315C4.02951 41.6107 4.43799 42.7313 5.23009 43.56C6.89433 44.821 9.03053 45.1624 11.0646 45.2973C11.5945 45.2725 11.7988 45.8452 12.0609 46.1948C9.51628 46.3986 6.75358 45.9388 4.66982 44.3695C4.01571 44.0033 3.19877 43.9179 2.68266 43.3232C1.46001 42.0953 0.0275994 40.6967 0 38.8437C0.0524389 37.8884 1.03774 37.4809 1.8464 37.3157C1.8326 35.639 1.59249 33.9595 1.736 32.2828C1.7774 31.6468 2.52811 31.2972 2.42599 30.6199C2.34871 28.409 3.7204 26.2119 5.79036 25.3915C7.23381 24.7995 8.74074 24.37 10.1621 23.7175C12.3618 22.6961 14.5145 21.5755 16.6838 20.488C17.8955 19.9016 18.5109 18.6406 19.3196 17.6384C21.6987 14.5162 23.6223 11.0307 26.3933 8.21961C27.4062 7.17339 28.7172 6.50436 30.0282 5.90966C32.41 4.86068 34.8167 3.84474 37.3393 3.18947C42.1002 1.95603 46.9604 1.1218 51.8455 0.576661ZM58.7923 1.01442C54.5447 1.13006 50.322 1.61738 46.1269 2.29192C41.9815 3.02153 37.7974 3.80069 33.9197 5.49392C31.4413 6.58145 28.7338 7.47074 26.8211 9.47509C25.2121 11.138 23.879 13.035 22.5598 14.9265C20.5147 17.8587 18.3039 20.6752 16.2423 23.5964C17.4235 23.5358 18.6462 23.1834 19.8081 23.5633C20.476 23.6129 21.1467 23.6294 21.8146 23.6432C22.2893 21.8784 23.258 20.3008 24.3123 18.8305C25.6978 16.9363 27.1965 15.1137 28.8524 13.4507C32.9068 9.63753 38.5867 8.31322 43.9935 7.95531C47.5207 7.53957 51.081 7.691 54.6248 7.7378C59.6285 8.04616 64.682 8.35452 69.534 9.70636C71.5957 10.3506 73.5994 11.7437 74.3998 13.8114C74.5102 12.2448 75.1946 10.6727 76.3262 9.57971C78.7329 8.30221 81.5121 8.02138 84.1368 7.41017C88.2381 6.66129 92.378 5.92067 96.5621 5.97023C98.8446 5.99501 101.237 5.82982 103.41 6.61999C103.28 6.41901 103.084 6.25656 102.871 6.1547C100.906 5.00109 98.7507 4.23294 96.5842 3.55565C91.8095 2.29743 86.883 1.77982 81.9675 1.46045C74.2618 0.904295 66.5174 0.755621 58.7923 1.01442ZM93.057 8.57753C93.0266 9.44205 92.9852 10.3038 92.9079 11.1628C93.2805 11.2399 93.6697 11.2702 94.0257 11.4189C94.586 11.8291 94.5142 12.6413 94.3817 13.2387C93.5427 13.894 92.3201 13.6793 91.3237 13.5994C90.3522 13.5719 90.3329 12.3825 90.5509 11.6887C90.8048 11.1986 91.4065 11.1518 91.8647 10.9563C91.8619 10.1854 91.8647 9.41452 91.8619 8.64361C90.0293 8.8501 88.1719 8.96299 86.3779 9.42553C86.8222 12.4899 87.2142 15.5597 87.6834 18.6185C90.7193 19.037 93.8132 19.6015 96.874 19.0866C98.0469 18.9187 99.2282 18.8113 100.415 18.8195C100.197 15.2321 100.004 11.6198 99.184 8.10673C97.1361 8.18658 95.0828 8.28019 93.057 8.57753ZM35.8296 10.3121C32.1533 11.4657 29.2471 14.1941 26.8929 17.1401C25.3915 18.971 23.7493 20.8652 23.167 23.2137C24.6159 20.8266 25.9849 18.368 27.8313 16.2535C28.1431 15.9397 28.3418 15.4055 28.8497 15.3835C28.9601 15.1495 29.0318 14.8879 29.2167 14.698C31.7393 12.1595 35.0292 10.3066 38.6116 9.84127C40.9189 9.58522 43.2372 9.35394 45.5639 9.35394C46.574 9.37046 47.5566 9.10615 48.5612 9.04834C54.1114 9.09514 59.6561 9.54667 65.1567 10.2735C68.1043 10.6672 71.0823 11.8566 73.075 14.128C74.3749 15.557 74.7723 17.4897 75.4458 19.2408C75.8128 20.3696 76.34 21.4461 76.5856 22.6135C76.3234 22.3795 76.1137 22.1069 75.9205 21.8178C75.5479 20.2595 74.9103 18.7837 74.3694 17.2832C73.9692 16.1324 73.2682 15.1082 72.3684 14.2905C70.6352 12.7569 68.5432 11.5373 66.2331 11.1546C63.5808 10.6617 60.8981 10.2928 58.1989 10.2074C55.2596 9.84127 52.2899 10.023 49.3422 9.78345C48.575 13.66 48.3707 17.6412 47.6007 21.5232C47.2695 22.9604 47.1067 24.4609 46.4222 25.7907C47.5069 25.7824 48.5888 25.8513 49.6652 25.9531C58.6846 26.87 67.7097 27.7538 76.7098 28.8605C77.996 28.9899 79.2738 29.279 80.5737 29.1662C80.0273 27.5005 78.7881 26.1844 78.1616 24.5517C77.0548 21.7049 75.5258 19.0288 74.6592 16.0883C74.3004 15.0173 74.041 13.8637 73.3096 12.9689C71.9958 11.3142 69.9645 10.3424 67.9111 9.98443C65.3195 9.59898 62.7556 8.98777 60.1308 8.87213C55.8143 8.66288 51.484 8.12876 47.1646 8.55276C43.3366 8.7152 39.5031 9.20527 35.8296 10.3121ZM99.8961 8.26367C100.782 11.7768 100.967 15.4221 101.191 19.0233C103.004 18.971 104.812 19.1499 106.622 19.2848C105.938 16.9363 105.444 14.4447 103.984 12.4238C103.078 11.083 101.679 10.1937 100.672 8.94647C102.19 9.6981 103.288 11.0224 104.566 12.0879C104.099 11.3225 103.837 10.3451 103.02 9.86054C102.032 9.2273 100.953 8.75925 99.8961 8.26367ZM47.7691 9.30439C47.6283 11.3583 47.3606 13.4012 46.9549 15.4221C46.4609 18.3708 46.3422 21.3718 45.7819 24.3095C43.6098 24.9042 41.3412 24.3177 39.1305 24.315C36.6465 24.315 34.1708 24.1195 31.6897 24.0507C29.5838 24.0397 27.4697 23.9653 25.3804 23.6955C25.3114 23.6349 25.1762 23.5138 25.1072 23.4532C24.7788 22.1509 25.5295 20.9175 26.1891 19.8547C26.6058 19.2683 26.8956 18.547 27.4945 18.1202C29.1146 17.5531 30.8589 17.487 32.5535 17.286C34.7918 16.9776 37.0605 16.7904 39.2353 16.1462C41.5978 15.5817 43.8638 14.5162 46.3339 14.497C46.6127 13.0075 46.9604 11.5125 46.8859 9.98719C45.7847 9.94589 44.6807 9.97342 43.5878 10.1166C40.8913 10.4249 38.1038 10.4552 35.5425 11.4491C30.5636 13.7178 26.5037 17.8008 23.9811 22.6217C23.7355 22.9907 23.7245 23.4257 23.7962 23.8524C23.4981 23.734 23.2001 23.6239 22.8992 23.5138C23.0483 23.7616 23.2028 24.0094 23.3601 24.2544C30.8837 24.6371 38.4184 24.9262 45.9282 25.62C46.9107 22.886 47.2971 19.9897 47.6642 17.1235C47.9153 14.5713 48.4425 12.0494 48.5529 9.4861C48.3569 9.44205 47.965 9.34844 47.7691 9.30439ZM78.6859 10.9646C77.88 11.2867 76.8561 11.719 76.7236 12.6936C76.5249 14.2244 77.6096 15.4881 78.0594 16.8758C79.4339 17.1511 80.8525 17.0244 82.2297 17.2805C83.7422 17.5338 85.4506 17.6164 86.5849 18.792C86.2013 15.6726 85.71 12.5697 85.227 9.46407C83.0384 9.91835 80.7918 10.1964 78.6859 10.9646ZM106.211 13.6682C106.487 15.5019 106.672 17.3576 107.072 19.1719C107.999 19.2188 108.932 19.216 109.854 19.0618C108.987 17.7017 107.809 16.5564 107.097 15.0999C106.84 14.5988 106.559 14.1088 106.211 13.6682ZM39.7818 16.9446C36.1276 17.8366 32.3576 18.0046 28.651 18.5607C28.8469 20.086 28.938 21.6251 28.8331 23.1614C31.9932 23.3513 35.1617 23.3926 38.3273 23.4642C40.5987 23.5909 42.8785 23.7808 45.1554 23.6542C45.6936 20.8679 45.9061 18.0376 46.2456 15.2266C44.0266 15.5322 41.9373 16.3719 39.7818 16.9446ZM78.1588 17.7348C78.9619 19.1059 79.7209 20.5018 80.4606 21.9059C81.341 22.3822 81.6777 23.3981 81.7964 24.3342C81.9096 24.3315 82.1359 24.3315 82.249 24.3287C81.8516 23.6487 81.5315 22.9273 81.2417 22.1977C81.4293 21.9031 81.6253 21.6003 81.5397 21.2259C82.1938 20.9863 82.8673 20.6972 83.5821 20.7606C86.0633 20.9395 88.5362 21.2231 91.0174 21.3773C92.1517 21.4103 93.2805 21.9142 94.4148 21.6168C95.9025 21.2616 97.4259 21.0276 98.8722 20.5128C100.517 19.9181 102.292 19.9814 104 19.7143C101.455 19.6015 98.8197 19.4005 96.3689 20.2402C95.3312 20.499 94.4231 21.124 93.3495 21.2644C93.609 21.0441 94.1223 20.6064 94.379 20.3889C92.8638 19.9098 91.2685 19.8327 89.7009 19.651C88.2381 19.5271 86.7864 19.2243 85.3153 19.1995C83.7836 19.5106 82.3732 20.2154 80.9574 20.8514C80.9629 21.124 81.2803 22.0463 80.6731 21.7545C80.3778 21.3002 80.168 20.7991 79.8948 20.3338C81.6722 19.8162 83.3006 18.9104 85.0614 18.3542C82.7762 18.0018 80.4716 17.7706 78.1588 17.7348ZM26.9343 19.4776C27.2875 19.3812 27.6463 19.2876 28.0024 19.1967C27.4366 20.0943 26.1587 20.2898 25.9959 21.4874C26.1643 21.4406 26.5037 21.3497 26.6721 21.3029C26.8018 21.6499 26.9729 21.9775 27.1882 22.2803C27.2351 21.9527 27.2765 21.6223 27.3179 21.2947L26.7687 21.2534C27.0392 20.8376 27.3372 20.4384 27.6795 20.0778C27.7043 21.146 27.6298 22.3492 28.3418 23.233C28.4274 21.7132 28.3943 20.1741 28.041 18.6874C27.5939 18.8361 27.1909 19.0728 26.9343 19.4776ZM108.477 20.6174C109.23 21.2148 110.216 20.7303 111.046 20.5844C110.853 20.4439 110.66 20.3035 110.472 20.1631C109.832 20.309 108.827 19.9456 108.477 20.6174ZM15.7179 22.0408C13.8411 22.9081 11.9147 23.7451 9.99927 24.4609C11.4869 24.4581 12.9966 24.3397 14.4566 24.0534C15.4584 23.4009 15.8973 22.173 16.8964 21.5094C16.9709 21.4076 17.1199 21.2066 17.1944 21.1075C17.4263 20.923 17.6526 20.7248 17.843 20.4935C16.9157 20.6339 16.5707 21.7269 15.7179 22.0408ZM82.5857 22.6493C82.8176 23.3431 83.1543 24.1388 83.8332 24.5022C86.124 23.9928 88.4644 23.5854 90.642 22.6851C91.4396 22.4841 92.3007 22.5722 93.0542 22.1977C92.5988 22.1675 92.1517 22.2445 91.7156 22.3712C90.7138 21.9968 89.6264 22.0904 88.5803 22.0023C86.905 21.9334 85.2822 21.3993 83.6014 21.3745C82.9583 21.3553 82.2683 21.9802 82.5857 22.6493ZM5.79864 26.468C3.955 27.2389 3.62932 29.4112 3.40853 31.154C3.91084 30.9833 4.42695 30.7906 4.9679 30.8759C7.03509 31.0301 9.11057 30.9915 11.1778 31.1072C14.9948 31.4596 18.8118 31.768 22.6315 32.0515C29.2637 32.8858 35.9234 33.5135 42.5445 34.4358C42.6853 32.7288 42.6659 30.9833 43.16 29.3286C43.5657 28.153 44.4047 26.9773 45.7019 26.7103C45.6274 26.9003 45.4838 27.2857 45.4093 27.4757C44.7718 27.6932 44.2474 28.1667 44.0238 28.8082C43.3311 30.5923 43.3007 32.5471 43.3504 34.4358C49.8501 35.2701 56.3911 35.7161 62.9294 36.1125C68.0933 36.5503 73.3123 36.5613 78.4237 37.4919C78.5645 36.3879 78.5949 35.2756 78.6583 34.166C78.7687 32.6352 79.3263 31.1925 79.939 29.8022C75.1698 29.4057 70.4227 28.7862 65.6563 28.3595C63.302 28.1282 60.9285 27.6381 58.5604 28.0153C58.7095 27.9217 59.002 27.729 59.1483 27.6354C56.3635 27.3022 53.5594 27.1425 50.7719 26.8342C47.6173 26.6635 44.493 26.1624 41.3412 25.9394C35.8434 25.4658 30.3262 25.3502 24.8174 25.0694C21.4447 24.5105 17.9865 24.527 14.5891 24.8298C11.6111 24.9978 8.58342 25.3612 5.79864 26.468ZM132.913 27.4371C135.461 27.7262 138.199 28.6926 139.623 30.9613C139.706 30.7272 139.868 30.2564 139.948 30.0224C140.246 30.8649 139.951 31.7542 139.976 32.6215C140.227 32.894 140.478 33.1666 140.729 33.4447C140.473 32.0323 141.762 30.4794 140.749 29.2212C139.683 28.398 138.621 27.2196 137.144 27.3463C135.734 27.4013 134.302 27.1067 132.913 27.4371ZM151.214 29.8627C151.587 30.4437 151.949 31.0411 152.045 31.7404C152.169 31.8313 152.415 32.0157 152.536 32.1094C152.71 31.3412 152.868 30.5428 152.575 29.7829C152.12 29.8022 151.664 29.8159 151.214 29.8627ZM149.87 31.9579C150.605 32.1011 151.344 32.2388 152.089 32.3461C151.907 31.7459 151.885 30.8979 151.19 30.6584C150.464 30.5868 150.097 31.399 149.87 31.9579ZM149.589 32.6985C149.746 33.0179 149.903 33.34 150.066 33.6622C150.022 34.0256 149.981 34.389 149.942 34.7552C150 34.5267 150.11 34.0696 150.168 33.8411C150.58 34.5625 150.878 35.3389 151.176 36.1125C151.996 35.2701 152.23 34.0999 152.426 32.9876C152.263 33.0812 151.935 33.2712 151.769 33.3648C151.03 33.1886 150.293 32.9876 149.589 32.6985ZM1.21161 38.1059C1.1095 38.227 0.902501 38.4721 0.800383 38.5932C1.23369 40.4406 2.40667 42.0044 3.7618 43.293C2.65782 41.8117 2.6109 39.901 2.36527 38.1444C1.98164 38.1279 1.59525 38.1169 1.21161 38.1059Z" fill="#F0B81B"/>
<path d="M50.7415 11.3225C53.518 11.1215 56.3056 11.2785 59.0876 11.3253C61.8751 11.4932 64.7289 11.4657 67.4226 12.3027C69.6554 13.1699 71.8081 14.5355 73.1026 16.6032C74.4853 18.8113 75.4706 21.2341 76.5387 23.5991C76.6767 23.3982 76.8202 23.2027 76.9665 23.0072C76.9554 24.2186 78.1063 25.3447 77.5599 26.5368C77.0493 27.0599 77.7724 27.0434 78.0539 27.2114C76.1247 27.2306 74.201 27.6189 72.2691 27.4344C70.5358 27.2747 68.7833 27.3022 67.0638 27.0214C64.1024 26.3964 61.0609 26.3551 58.0609 25.9972C55.7011 25.9146 53.3828 25.3915 51.0203 25.3392C50.0736 25.3337 48.9531 24.973 48.6081 23.9984C48.4563 23.2743 48.6384 22.5392 48.7544 21.8233C49.4002 18.6296 49.6817 15.3808 50.0791 12.1512C50.1288 11.7933 50.2806 11.2757 50.7415 11.3225ZM50.8326 11.9392C50.1978 14.9843 50.2447 18.134 49.6348 21.1901C50.9954 20.8266 52.4196 20.7826 53.7885 20.466C54.1776 20.0805 54.4619 19.6042 54.8069 19.1802C56.1703 17.3658 57.9946 15.9589 59.3553 14.1391C59.8824 13.4287 60.393 12.7074 60.9423 12.0108C57.5751 11.8704 54.1997 11.7548 50.8326 11.9392ZM61.2624 12.154C60.4896 13.2222 59.968 14.4722 59.0131 15.411C57.3543 17.0602 55.8695 18.8691 54.4122 20.6945C55.5631 20.6504 56.7168 20.5706 57.8649 20.4742C58.0498 20.6422 58.2375 20.8129 58.4224 20.9836C55.726 21.2176 53.0019 21.0772 50.333 21.6086C50.8022 22.5612 51.2935 23.6542 52.334 24.103C53.5732 24.6371 54.9366 24.7693 56.2586 24.9537C59.634 25.3474 63.026 25.5374 66.3987 25.9504C66.4318 24.5215 66.5091 23.0898 66.4594 21.6609C65.4962 21.4764 64.7234 20.711 63.7215 20.7248C62.1898 20.7275 60.6552 20.7165 59.1317 20.8845C58.9358 20.7248 58.7426 20.5623 58.5494 20.4026C60.4179 20.3558 62.2863 20.3283 64.1548 20.3531C63.4262 19.8548 62.5927 19.5134 61.922 18.9379C61.1713 18.3074 60.7767 17.2502 61.0499 16.2921C61.4252 14.8907 61.9855 13.5416 62.3664 12.1402C61.9966 12.1265 61.6295 12.1292 61.2624 12.154ZM63.0812 12.2972C62.7141 13.8555 61.9414 15.2927 61.6874 16.8758C61.5494 17.6852 61.9414 18.6048 62.7224 18.9352C64.0086 19.5381 65.1236 20.455 66.4787 20.923C66.3214 18.2937 66.9424 15.6836 66.694 13.0625C65.7114 12.2586 64.2597 12.5917 63.0812 12.2972ZM67.6848 13.0708C67.8283 17.4594 67.0776 21.8371 67.3812 26.2285C67.7731 26.4818 68.2064 26.7241 68.6922 26.7075C71.43 26.6965 74.1679 26.7984 76.9058 26.7103C77.19 26.2477 77.2839 25.7026 77.1597 25.1712C77.0244 25.5952 77.11 26.289 76.4945 26.3193C75.1173 26.7654 73.6352 25.6255 72.3381 26.2643C70.8367 26.3744 69.2414 26.8397 67.8035 26.1954C67.6268 25.0997 67.8007 23.9929 67.8338 22.8943C67.8642 19.83 68.0408 16.7629 68.4189 13.7233C68.1733 13.5058 67.9332 13.2828 67.6848 13.0708ZM69.3932 14.0289C69.1393 16.1599 68.8605 18.2909 68.706 20.4329C70.4254 20.4935 72.2083 20.1769 73.8809 20.6835C74.121 21.0662 74.3528 21.4902 74.8248 21.6251C74.3804 20.6477 73.7649 19.7584 73.3261 18.7782C72.4264 16.9253 71.3362 14.9595 69.3932 14.0289ZM49.4333 21.5535C49.4195 22.2583 49.2953 22.9824 49.4637 23.6762C49.9356 24.6949 51.15 24.8959 52.1546 24.8519C50.9099 24.3095 50.1316 23.1449 49.8059 21.8646C49.7121 21.7848 49.5244 21.6306 49.4333 21.5535ZM69.0455 21.5673C68.8661 22.7622 68.8357 23.9763 68.7971 25.1822C69.9645 25.3777 71.1071 25.1024 72.2553 24.9592C73.7125 25.0501 75.1311 25.4355 76.5663 25.6943C76.5056 25.4796 76.3814 25.0556 76.3207 24.8408C74.9628 24.5738 73.5911 24.8436 72.2277 24.7968C73.4807 24.3287 74.8413 24.3783 76.1606 24.3673C75.9067 23.8414 75.6886 23.299 75.385 22.798C75.0621 22.1372 74.2645 22.0353 73.6904 21.6829C72.4485 21.4847 71.1872 21.5122 69.9369 21.5728C69.8789 21.7022 69.763 21.9665 69.7078 22.0986C69.6664 21.6388 69.4456 21.4626 69.0455 21.5673Z" fill="#F0B81B"/>
<path d="M76.5387 22.7264C76.6105 22.7979 76.6105 22.7979 76.5387 22.7264Z" fill="#F0B81B"/>
<path d="M92.9631 24.5876C94.1058 23.8084 95.3146 23.0843 96.6256 22.6355C97.0948 22.6768 96.8132 23.2412 96.5538 23.3679C95.7479 23.723 94.9227 24.0286 94.114 24.37L94.1692 24.505C94.9834 24.1856 95.8197 23.9268 96.6449 23.6349C97.0948 23.8497 97.5612 24.0259 98.0028 24.2544C96.954 24.5132 95.8086 24.505 94.8344 25.0115C94.0754 25.5154 93.5427 26.3606 92.6237 26.6112C92.2731 26.8177 91.6273 26.7626 91.619 27.2967C91.6439 27.7097 91.8702 28.1888 91.5583 28.5522C90.9925 29.2488 89.9162 29.0863 89.1737 28.7807C88.5997 28.6265 88.216 27.8501 88.7211 27.4041C89.6733 26.1569 91.4231 26.6855 92.6982 26.0523C92.7948 25.5649 92.8776 25.0749 92.9631 24.5876ZM89.4939 28.0456C90.0652 28.3374 90.7083 28.3072 91.3044 28.1007C91.3072 27.9052 91.3127 27.5115 91.3154 27.316L91.252 27.0902C90.6393 27.3573 90.0542 27.6822 89.4939 28.0456Z" fill="#F0B81B"/>
<path d="M69.6857 23.266C70.0887 22.4758 71.1292 22.9576 71.8054 23.0512C71.5184 23.3211 71.2258 23.5826 70.936 23.8469C70.6241 23.712 70.3123 23.5799 69.9976 23.4532C70.2433 23.946 70.5745 24.3838 70.9029 24.8216C70.2902 24.5573 69.3408 24.103 69.6857 23.266Z" fill="#F0B81B"/>
<path d="M141.077 26.7433C141.27 26.5891 141.466 26.4377 141.662 26.2863C144.549 26.6139 147.232 27.93 150.155 28.0511C150.668 28.1833 151.408 27.9162 151.706 28.5026C149.71 28.3237 147.618 28.6816 145.711 27.9327C144.196 27.4344 142.656 26.9884 141.077 26.7433Z" fill="#F0B81B"/>
<path d="M44.9236 29.0147C44.6255 28.0842 45.4783 27.338 46.1986 26.9361C47.3689 26.9608 48.517 27.2086 49.6817 27.2885C50.587 27.3353 51.5612 27.4674 52.1767 28.2108C51.8041 28.4613 51.426 28.7036 51.0534 28.9542C51.5999 28.9184 52.1491 28.8743 52.7011 28.8468C52.1546 29.681 51.0451 29.4855 50.1923 29.4387C48.7378 29.279 47.2612 29.3644 45.8233 29.0588C45.8316 28.7036 45.8454 28.3512 45.8592 27.996C45.8067 27.985 45.7074 27.963 45.6549 27.952C45.5418 28.42 45.7488 29.469 44.9236 29.0147ZM46.7727 27.7317C46.8224 27.9878 46.8748 28.2466 46.9273 28.5054C48.1334 28.5384 49.3367 28.599 50.54 28.61C50.8988 28.6761 51.1776 28.4641 51.4205 28.2328C49.8887 27.9382 48.321 27.8997 46.7727 27.7317Z" fill="#F0B81B"/>
<path d="M147.044 29.7608C147.742 29.4277 148.507 29.3176 149.274 29.2983C148.678 29.4057 148.082 29.5516 147.621 29.9701C147.671 31.9717 148.305 33.8962 148.568 35.8758C148.634 36.6714 149.487 37.0541 150.174 37.2028C150.908 37.324 151.463 36.7265 152.048 36.3906C152.059 37.2689 151.352 38.2325 150.411 38.1665C149.47 38.0343 148.841 37.1643 147.933 36.9853C144.232 37.2827 140.84 38.9098 137.318 39.9368C135.003 40.6774 132.695 41.5557 130.25 41.7567C129.888 42.69 129.64 43.6922 129.033 44.5099C128.169 45.7241 126.8 46.4069 125.533 47.1227C124.7 46.8969 123.734 46.5693 123.472 45.6387C123.063 43.973 122.588 42.1944 123.088 40.4929C123.414 39.0144 124.713 37.9847 126.035 37.401C126.803 37.0211 127.691 37.156 128.492 36.8917C129.367 37.7232 129.819 38.8465 130.145 39.9836C130.22 39.9533 130.366 39.8955 130.44 39.8679L130.195 40.4819C130.468 40.4516 131.009 40.3883 131.282 40.358C130.932 40.5039 130.584 40.6471 130.236 40.782C131.947 41.0133 133.581 40.3828 135.185 39.8955C137.304 39.2567 139.352 38.3922 141.527 37.9324C143.644 37.1202 145.772 36.1593 148.098 36.2144C147.472 34.1247 146.859 31.9634 147.044 29.7608ZM125.235 39.3834C124.54 40.3553 123.811 41.6933 124.28 42.8937C124.418 43.4416 124.564 43.9895 124.713 44.5374C124.876 44.4273 125.092 43.9702 125.318 44.2676C125.768 44.7604 126.342 45.0881 127.021 45.1514C126.458 45.7378 125.668 45.2643 125.058 45.0578L124.998 45.1156C125.362 45.3524 125.715 45.5809 126.093 45.8122C125.315 46.4729 124.377 45.713 124.104 44.9229C123.761 44.3227 124.062 43.5132 123.527 43.0149C123.552 41.4235 124.09 39.8266 125.174 38.64C123.654 39.6752 123.171 41.5887 123.444 43.3315C123.977 44.2759 123.825 45.5919 124.725 46.3077C125.122 46.6767 125.635 46.2554 126.08 46.2114C126.071 46.1453 126.055 46.0104 126.047 45.9443C126.447 45.713 126.974 45.5919 127.164 45.1156C128.528 44.4108 128.972 42.7781 129.113 41.3657C129.204 40.6223 128.978 39.5238 128.048 39.4908C126.971 39.6257 126.135 40.4874 125.666 41.4153C125.18 42.255 125.213 43.2764 124.752 44.1217C124.628 43.538 124.548 42.9488 124.509 42.3569C125.064 41.2693 125.577 40.0854 126.532 39.2815C127.12 38.7667 127.945 38.8245 128.674 38.7171C127.744 37.4341 125.964 38.3482 125.235 39.3834Z" fill="#F0B81B"/>
<path d="M99.725 32.0763C99.794 31.9304 99.932 31.6385 100.001 31.4899C100.489 31.5972 100.995 31.622 101.483 31.7459C101.472 31.8671 101.447 32.1121 101.433 32.236C100.865 32.1672 100.296 32.1038 99.725 32.0763Z" fill="#F0B81B"/>
<path d="M101.497 32.2277C101.936 31.9331 102.468 31.9029 102.979 31.834C103.823 32.4783 104.922 31.9524 105.827 32.3819C106.901 32.236 107.958 32.5691 109.007 32.7453C109.567 33.1914 110.32 32.9078 110.961 33.0867C111.587 33.2822 112.247 33.296 112.898 33.3428C116.434 33.8053 119.875 34.769 123.35 35.5536C124.225 35.7519 125.039 36.1401 125.82 36.5723C122.017 36.0602 118.352 34.8295 114.538 34.378C110.207 33.5548 105.849 32.9105 101.497 32.2277Z" fill="#F0B81B"/>
<path d="M142.686 32.839C143.531 33.8219 143.727 35.1682 143.928 36.4016C143.059 35.449 142.89 34.0642 142.686 32.839Z" fill="#F0B81B"/>
<path d="M14.6912 39.4604C16.6149 38.026 19.1623 38.1086 21.4392 38.2573C24.1302 38.439 27.0778 38.9594 28.9628 41.0738C31.2784 43.1773 32.065 46.2939 32.9151 49.1793C33.2849 50.6193 33.6161 52.0895 34.3337 53.4055C42.205 54.6968 50.0957 55.8669 57.9726 57.1279C67.3426 58.4797 76.7098 59.8563 86.0743 61.2412C86.756 61.3293 87.7468 61.5578 88.0449 60.7181C89.5132 56.8581 90.3081 52.4639 93.4102 49.4877C95.7948 47.0346 99.3524 46.327 102.645 46.1948C105.99 46.0406 109.404 47.2521 111.778 49.6364C113.133 50.8698 114.201 52.3813 115.021 54.014C115.272 54.3967 115.421 54.9666 115.923 55.0933C118.236 55.7761 120.667 55.8091 123.041 56.1477C126.245 56.4368 129.367 55.4154 132.394 54.5096C131.47 54.0718 130.349 53.7414 129.921 52.7062C129.218 50.9276 129.626 48.9591 129.963 47.1419C130.209 46.2802 130.123 45.278 130.719 44.5457C131.246 43.7968 132.005 43.2406 132.836 42.8634C135.9 41.4235 139.294 40.9086 142.424 39.6477C143.591 39.2402 144.764 38.841 145.957 38.5078C147.334 38.1472 148.568 39.1163 149.846 39.4715C149.365 40.0882 149.247 40.8591 149.302 41.6217C149.371 42.1641 149.144 42.9653 149.84 43.1773C150.304 43.1718 150.77 43.1415 151.237 43.0864C151.259 42.4422 150.555 42.489 150.16 42.2742C150.262 42.2274 150.464 42.1393 150.566 42.0953C150.378 41.5749 150.232 40.9307 150.616 40.4571C150.856 40.4736 151.339 40.5039 151.582 40.5204C151.046 40.113 150.26 40.0083 149.92 39.3806C150.204 39.3613 150.767 39.3283 151.052 39.309C151.118 39.4549 151.248 39.7413 151.314 39.8872C151.394 39.7991 151.551 39.6256 151.628 39.5403C152.354 39.6504 153.047 40.2809 152.906 41.0656C152.738 42.2164 152.015 43.1773 151.38 44.1161C152.169 44.4438 153.18 44.7356 153.511 45.6194C154.181 47.7366 153.141 49.9585 151.968 51.6958C151.17 53.0091 149.539 53.1412 148.352 53.9369C148.8 54.9583 149.117 56.156 148.703 57.238C147.977 57.8465 147.041 58.1301 146.263 58.6614C144.124 59.9031 142.534 61.9405 140.213 62.8821C137.627 64.1348 134.453 63.8568 132.014 62.3976C131.641 62.1938 131.373 61.8634 131.197 61.4862C130.807 61.6652 130.443 61.9763 129.999 61.9873C128.873 61.9873 127.799 62.3535 126.69 62.4802C124.667 62.7252 122.594 62.516 120.656 61.8937C119.688 61.5028 118.578 61.0127 118.123 60.005C117.99 59.2121 118.374 58.3668 119 57.8795C119.793 57.6042 120.645 57.83 121.44 57.9731C123.822 58.4329 126.289 59.0414 128.71 58.4687C130.887 57.9566 132.946 57.0425 135.096 56.4423C135.328 56.3983 135.566 56.3845 135.806 56.401C135.828 57.6317 135.455 58.8321 135.51 60.0656C136.761 60.0078 137.47 58.6614 137.696 57.5712C138.215 55.531 137.972 53.2211 136.617 51.5443C136.405 51.0791 135.869 51.2855 135.475 51.2497C136.278 52.552 136.082 54.1214 135.941 55.5723C135.218 55.5833 135.488 54.6638 135.345 54.1985C133.228 55.2116 130.901 55.6164 128.674 56.2992C126.775 56.7727 124.799 57.1885 122.837 56.9159C120.546 56.5883 118.222 56.3818 116.009 55.6632C116.293 56.0954 116.558 56.547 116.721 57.0398C117.355 58.9147 118.255 60.7897 118.103 62.8188C117.902 65.1728 117.099 67.4855 115.757 69.432C113.845 72.0504 110.842 73.8207 107.649 74.3493C103.669 74.9605 99.3248 73.829 96.4793 70.8968C93.5317 67.7856 92.0027 63.5099 91.8453 59.2671C90.9097 59.8508 89.9631 60.44 89.1572 61.2027C88.6963 61.5771 88.3209 62.0892 87.7579 62.3095C86.6346 62.3095 85.5389 62.0149 84.4377 61.8332C78.6583 60.9246 72.8763 60.0408 67.0776 59.2616C58.5025 58.0778 49.9605 56.6791 41.4102 55.3493C38.9483 54.9115 36.445 54.7023 34.0218 54.0718C33.3015 55.5585 32.3769 56.993 31.1266 58.0888C28.2094 60.3024 24.2875 61.3238 20.6996 60.3905C19.2699 60.0904 18.0914 59.2121 16.8301 58.5403C16.6977 58.5541 16.4327 58.5761 16.3002 58.5871C16.3996 58.51 16.6011 58.3531 16.7004 58.2732C14.9837 56.3955 13.4989 54.248 12.831 51.7646C12.2155 49.7272 12.2624 47.5659 11.9809 45.4817L11.4648 45.2725C12.0002 43.1195 12.8448 40.8343 14.6912 39.4604ZM147.378 39.4659C147.527 39.7082 147.676 39.9533 147.828 40.1983C147.737 42.0402 147.05 44.0556 148.104 45.7516C148.369 45.5341 148.628 45.311 148.893 45.0908C147.795 43.5903 148.027 41.619 148.33 39.8982C148.038 39.7743 147.748 39.6477 147.461 39.521L147.378 39.4659ZM138.37 43.0919L138.425 43.3287C136.504 43.8821 134.608 44.5181 132.734 45.2037C131.909 45.4817 131.453 46.2857 130.965 46.9465C130.504 48.3313 130.592 49.8126 130.625 51.2497C130.68 52.4502 131.271 53.9314 132.698 53.9121L132.256 54.0002C132.436 54.1186 132.621 54.2342 132.806 54.3471C133.631 53.9286 134.602 53.7111 135.234 52.9898C134.293 53.0476 133.396 53.378 132.461 53.4523C131.561 53.5157 130.923 52.6622 130.807 51.8527C130.669 50.2476 130.501 48.5241 131.279 47.0511C131.669 46.6023 131.641 45.8424 132.256 45.6029C133.896 44.7687 135.723 44.4135 137.431 43.7527C139.653 42.8882 142.228 43.1883 144.304 41.9191C144.836 41.6906 145.408 41.5749 145.965 41.4125C143.418 41.886 141.011 43.1388 138.37 43.0919ZM18.7345 43.2626C16.6728 44.7934 16.165 47.5081 16.1429 49.9199C15.7593 47.7917 16.3195 45.6222 17.3876 43.7775C15.9083 45.4212 15.624 47.7504 15.7427 49.8731C15.8062 51.9215 16.9129 53.8295 18.4613 55.1318C19.6398 56.0872 21.2074 56.7617 22.7447 56.3735C24.8698 56.0046 26.915 54.5096 27.4256 52.3428C27.9886 49.8952 27.5553 47.2686 26.4899 45.0164C26.432 44.9917 26.3161 44.9421 26.2553 44.9173C26.1311 46.8969 27.1109 48.7278 27.0171 50.7046C27.0612 51.6435 26.8128 52.5685 26.3906 53.4028C25.6454 54.9859 23.73 55.6659 22.0713 55.5668C19.2285 55.52 16.5514 53.199 16.2229 50.3742C16.2064 49.9888 16.7225 50.0466 16.9571 49.8842C17.2303 51.8802 18.6793 53.5542 20.4539 54.4215C22.0326 54.9749 23.9949 55.0933 25.3804 54.0057C26.5865 52.7888 27.0033 50.9799 26.7273 49.317L26.5562 49.3473C26.639 51.0433 26.029 52.8852 24.5773 53.8763C23.4071 54.7078 21.7235 54.493 20.6333 53.6203C19.8054 53.0889 19.5018 52.0895 18.7262 51.4975C19.2147 52.7337 20.2304 53.623 21.246 54.427C19.43 54.036 18.5082 52.1969 17.9838 50.5917C17.2883 48.648 17.6416 46.517 18.4364 44.6613C18.3978 44.5236 18.3205 44.2428 18.2819 44.1024C19.0712 43.3397 20.0041 42.4807 21.1881 42.5578C22.9876 42.255 24.6518 43.2076 25.9214 44.3777L26.0677 44.3639C24.6849 41.8337 20.7851 41.1757 18.7345 43.2626ZM20.7272 43.5572C19.3582 44.2015 18.8228 45.7488 18.4999 47.1172C19.6232 45.3083 21.8863 44.3309 23.9811 44.5374C25.0078 44.6117 25.5791 45.5754 26.2415 46.2251C25.8386 43.816 22.8385 42.6542 20.7272 43.5572ZM21.9802 45.0027C22.695 45.5726 23.4982 46.115 23.9149 46.9575C24.2157 47.61 24.4255 48.2983 24.6849 48.9673C25.1458 48.9838 25.604 49.0031 26.0649 49.0169C25.5902 48.7278 25.0989 48.4635 24.6297 48.1634C25.1762 48.1414 25.7337 48.1744 26.236 48.4167C26.156 47.5494 25.8082 46.7455 25.3804 45.9966C24.9499 46.1645 24.5166 46.3242 24.0833 46.4839C24.3096 46.115 24.5414 45.7488 24.7788 45.3854C24.4641 45.3909 24.1523 45.3991 23.8376 45.4047C23.5672 45.1459 23.2553 44.9394 22.9406 44.7439C22.7005 44.81 22.2203 44.9366 21.9802 45.0027ZM150.701 44.9614C151.347 46.3463 152.001 47.7366 152.796 49.0472C152.821 47.9156 153.108 46.6491 152.514 45.6139C152.131 44.9724 151.383 44.8595 150.701 44.9614ZM20.4457 46.1701C20.5616 46.2471 20.7907 46.4041 20.9066 46.4839C20.7989 46.6464 20.5864 46.9712 20.4788 47.1337C20.1531 47.1006 19.833 47.0291 19.5514 46.8528C19.1595 47.3236 18.6186 47.8247 18.8173 48.5075C19.0491 50.1705 19.6591 51.8472 20.8045 53.1027C21.1412 53.6148 21.7208 53.2348 22.1182 53.0504C22.1844 53.3119 22.3197 53.835 22.3859 54.0993C22.4521 53.6038 22.477 53.0669 22.8689 52.7035C22.9931 53.0393 23.12 53.3725 23.2415 53.7111C23.4043 53.6974 23.73 53.6671 23.8928 53.6533C23.3491 53.367 23.3795 52.3758 22.7171 52.4034C22.4411 52.5851 22.1596 52.7613 21.8808 52.9402C21.5579 52.6098 21.2433 52.2712 20.9424 51.9243C21.649 52.4144 22.4797 52.1721 23.2663 52.1556C23.0179 51.6793 22.8634 51.1672 22.7751 50.6413C22.7033 50.8671 22.5598 51.3186 22.488 51.5416L22.3059 50.8423C22.1458 51.0873 21.994 51.3379 21.8422 51.5912C21.7318 51.5278 21.511 51.4012 21.4034 51.3406C21.2295 51.4287 20.8845 51.6104 20.7134 51.6985C19.7695 51.3406 19.6011 50.2228 19.4079 49.3638C20.3353 49.6859 21.2736 49.3418 22.1789 49.1325C22.3942 49.5345 22.626 49.931 22.8606 50.3219C22.9213 49.9089 23.0648 49.5207 23.2304 49.1408C23.5478 49.1876 23.8625 49.2426 24.1771 49.2977C23.73 48.1331 23.3519 46.8198 22.3335 46.0131C21.7732 45.501 21.0363 45.9856 20.4457 46.1701ZM148.987 47.0263C148.3 47.7724 147.834 48.6893 147.458 49.6226C148.165 49.0472 148.692 48.2983 149.307 47.6348C149.804 47.6348 150.301 47.6403 150.8 47.6623C150.34 48.48 148.863 48.1854 148.788 49.2592C149.131 49.0059 149.553 48.9921 149.964 49.0169C150.226 50.1292 150.591 51.2167 150.754 52.3538C151.435 51.715 152.076 50.8891 152.015 49.9007C151.88 48.8021 151.383 47.6898 150.519 46.9685C150.066 46.7097 149.332 46.5087 148.987 47.0263ZM103.28 47.8413C103.986 48.2597 104.919 48.1689 105.543 48.703C105.72 48.6755 106.07 48.6177 106.247 48.5874C106.357 48.692 106.581 48.8957 106.691 48.9976C106.694 48.8159 106.699 48.4497 106.702 48.268C107.094 48.4828 107.284 48.8242 107.271 49.2922C107.469 49.2482 107.867 49.1601 108.066 49.116L107.999 49.4491C108.778 49.7933 109.487 50.2668 110.229 50.6826C110.047 50.8505 109.859 51.0157 109.675 51.1809C109.931 51.2966 110.191 51.4149 110.45 51.5388C110.428 51.2332 110.445 50.9276 110.505 50.6303C110.323 50.5257 110.141 50.4265 109.962 50.3247C108.308 48.4662 105.709 47.7284 103.28 47.8413ZM146.075 49.2124C143.923 51.1672 141.295 52.4749 138.698 53.7332C138.356 54.0746 138.61 54.6527 138.533 55.0905C140.106 53.9865 141.886 53.2486 143.616 52.4364C144.911 51.8472 145.951 50.8202 147.276 50.2944C146.887 50.1705 146.456 50.1512 146.114 49.9227C146.222 49.3638 146.738 49.0362 146.879 48.4965C146.586 48.7058 145.94 48.6672 146.075 49.2124ZM24.5552 49.3776C24.8726 50.1072 24.9858 50.9304 24.4945 51.6187C24.9361 51.4039 25.3611 51.448 25.7365 51.7618C25.5102 51.4067 25.2838 51.0515 25.0603 50.6964C25.2618 50.7597 25.6619 50.8918 25.8634 50.9579C25.9297 50.7211 26.0594 50.2503 26.1256 50.0136C25.6675 49.9144 25.0548 50.0136 24.7732 49.5345C24.9802 49.5483 25.3942 49.573 25.6012 49.584L25.6564 49.3858C25.2894 49.3858 24.9223 49.3831 24.5552 49.3776ZM20.0951 50.9249C20.3546 50.7294 20.614 50.5312 20.8735 50.3302C20.9149 50.5394 21.0032 50.9552 21.0446 51.1617C21.3371 50.9331 21.5276 50.6358 21.6214 50.2696C21.7484 50.4568 21.9995 50.8285 22.1265 51.0157C22.1761 50.7872 22.2755 50.3302 22.3252 50.1044C22.1734 49.9502 22.0216 49.7988 21.8698 49.6474C21.177 49.9915 19.8937 49.7905 20.0951 50.9249ZM23.3022 50.0989C23.2884 50.7321 23.2718 51.3654 23.2387 51.9986C23.4264 52.0482 23.8017 52.1501 23.9894 52.2024C24.2213 51.3544 24.3841 50.4348 23.9894 49.6088C23.7603 49.774 23.5313 49.9365 23.3022 50.0989ZM139.096 55.52C138.505 55.7843 138.599 56.4864 138.494 57.0205C141.591 55.542 144.64 53.9644 147.729 52.4722C148.394 52.1225 149.12 51.8142 149.625 51.236C149.611 50.8037 149.55 50.377 149.506 49.9502C146.238 52.1721 142.457 53.4716 139.096 55.52ZM91.9392 52.8301C91.608 53.8984 90.8104 54.7216 90.3798 55.7375C90.1204 56.6956 89.4718 57.5767 89.4939 58.5926C89.5463 58.532 89.6457 58.4081 89.6954 58.3476C90.4047 56.4946 90.987 54.5399 92.2538 52.9705C92.5767 53.0283 92.712 53.2403 92.6568 53.6093C92.1103 54.0195 91.7349 54.6004 91.4507 55.2116C90.6089 56.9875 90.0652 58.8955 89.1323 60.63C89.8251 60.0023 90.631 59.5259 91.4534 59.0882C91.6715 58.9037 92.1213 58.8404 92.0689 58.466C92.2152 56.4396 92.5988 54.3747 93.689 52.6209C93.6283 52.4171 93.5096 52.0096 93.4489 51.8059C93.1591 52.1308 92.8334 52.4144 92.4774 52.6622L92.6292 51.905C92.4249 52.2327 92.1903 52.5383 91.9392 52.8301ZM143.241 55.688C141.643 56.3763 140.227 57.4252 138.577 58.0007C138.632 59.2258 138.568 60.4648 138.795 61.679C138.911 61.5964 139.14 61.4284 139.253 61.3431C139.598 61.2742 140.067 61.4257 140.307 61.0815C140.683 60.2032 140.901 59.1515 140.382 58.2815C139.609 58.9698 140.238 60.2831 139.38 60.8998C139.225 60.0986 139.228 59.2561 139.427 58.466C139.758 57.7914 140.545 57.618 141.201 57.428C141.077 57.5629 140.832 57.8327 140.707 57.9676C141.182 58.8762 141.072 59.9279 141.121 60.9163C141.433 60.7181 141.745 60.5199 142.057 60.3189C141.472 59.4213 141.737 58.3558 141.607 57.3592C141.414 57.3509 141.022 57.3344 140.826 57.3289C141.168 56.8939 141.618 56.5938 142.145 56.412C142.198 57.2738 142.305 58.1521 142.656 58.9533C142.681 58.0502 142.366 57.1912 142.303 56.2992C143.324 55.966 144.306 55.5117 145.187 54.8895C146.713 54.204 148.333 53.6561 149.663 52.6154C147.477 53.5432 145.374 54.6527 143.241 55.688ZM96.7829 54.0333C97.0727 54.4215 97.9227 53.7139 97.8289 53.3009C97.3818 53.1522 96.9043 53.634 96.7829 54.0333ZM96.8629 57.2848C95.8721 59.4158 96.1785 61.8662 96.7691 64.0633C96.62 64.0082 96.322 63.9008 96.1729 63.8458C96.0874 63.1905 95.9963 62.5325 95.8307 61.891C95.7451 62.8436 96.0625 63.7521 96.4572 64.6001C96.5787 64.4019 96.7028 64.2037 96.8298 64.0082C97.0782 65.159 97.9393 65.996 98.6155 66.9073C98.356 66.7697 97.8344 66.4971 97.575 66.3594C99.242 68.8649 102.482 70.3516 105.463 69.5917C108.75 68.8208 110.715 65.2196 110.45 62.0094C110.392 58.6504 108.204 55.476 105.126 54.1461C104.006 53.623 102.739 53.7111 101.536 53.7607C99.4683 53.9176 97.5529 55.319 96.8629 57.2848ZM144.414 55.933C144.574 56.9627 145.581 58.0117 144.864 59.0056C145.385 57.9539 146.746 58.0254 147.348 57.0976C146.757 57.2463 146.064 58.1659 145.615 57.3867C145.148 56.781 145.316 55.7623 146.02 55.3934C146.178 55.5943 146.338 55.7953 146.495 56.0018C146.216 56.3845 146.045 56.8223 145.995 57.2958C146.26 57.1086 146.528 56.9214 146.796 56.7342C146.782 56.0899 146.768 55.4457 146.746 54.8014C145.946 55.1318 145.178 55.5338 144.414 55.933ZM142.937 56.5332C142.957 56.9957 143.009 57.4638 143.263 57.8657C143.255 58.0777 143.238 58.5045 143.23 58.7165C143.097 58.7771 142.835 58.8955 142.706 58.956C142.747 59.2066 142.827 59.7077 142.868 59.9582C142.628 60.2886 142.413 60.6327 142.245 61.0044C143.089 60.2969 143.556 59.2148 144.546 58.6339C144.29 58.2374 144.039 57.841 143.771 57.4528C143.749 57.1389 143.729 56.825 143.713 56.5112C143.52 56.5167 143.131 56.5277 142.937 56.5332ZM127.479 59.4323C125.415 59.6884 123.386 59.1185 121.391 58.6835C120.703 58.5678 119.991 58.3448 119.296 58.5128C118.843 58.8266 118.793 59.6856 119.276 59.9885C121.603 61.668 124.636 61.9598 127.415 61.6019C128.953 61.3899 130.344 60.6603 131.82 60.2225C132.784 59.8508 133.841 59.6416 134.702 59.0524C134.928 58.499 134.947 57.8878 135.047 57.3041C132.524 58.0172 130.12 59.2148 127.479 59.4323ZM111.963 58.1989C112.225 58.3476 112.487 58.4935 112.755 58.6367C112.735 58.8707 112.722 59.1102 112.705 59.3497C113.02 59.4681 113.334 59.603 113.635 59.7627C113.116 59.771 112.727 59.9665 112.608 60.4483C113.05 60.4923 113.492 60.5391 113.936 60.5914C113.734 60.1206 113.654 59.6168 113.591 59.113L113.293 58.945C113.29 58.8046 113.282 58.5265 113.279 58.3861C112.846 58.287 112.404 58.2347 111.963 58.1989ZM112.65 60.9852C112.672 61.1063 112.719 61.3513 112.741 61.4752C113.044 61.5991 113.334 61.7478 113.616 61.9213C113.494 62.2351 113.365 62.5462 113.235 62.8573C113.765 63.1492 114.267 63.5016 114.852 63.6833C114.601 63.419 114.336 63.1685 114.03 62.973C114.055 62.8518 114.102 62.6068 114.126 62.4857C113.704 62.1112 113.715 61.7258 114.129 61.3486C113.759 60.9053 113.155 61.032 112.65 60.9852ZM108.526 72.5184C108.673 72.6671 108.673 72.6671 108.526 72.5184Z" fill="#F0B81B"/>
<path d="M113.464 41.2996C113.599 40.4186 114.877 41.2721 115.39 41.0821C114.83 41.5309 114.115 41.5006 113.464 41.2996Z" fill="#F0B81B"/>
<path d="M115.437 41.1317C117.728 41.0711 119.988 41.7374 122.21 42.2385C122.169 42.3706 122.086 42.6349 122.042 42.7699C119.401 42.456 116.746 42.2578 114.099 41.9824C113.919 42.0898 113.102 41.7512 113.665 41.6052C114.24 41.3988 115.192 41.8971 115.437 41.1317Z" fill="#F0B81B"/>
<path d="M21.2377 46.4481C22.1458 46.5087 20.8072 47.2879 21.2377 46.4481Z" fill="#F0B81B"/>
<path d="M21.4862 46.9135C22.2755 46.729 22.4025 47.5302 22.7033 47.9845C22.8164 47.6623 22.9324 47.3402 23.051 47.0236C23.189 47.5798 23.3132 48.1387 23.4264 48.7003C23.1394 48.9261 22.8192 49.4602 22.4328 49.0775C21.8449 49.0087 22.143 48.5737 22.2534 48.2157C22.0354 47.7615 21.7401 47.3485 21.4862 46.9135ZM22.9351 48.0313C23.8431 48.0836 22.5073 48.86 22.9351 48.0313Z" fill="#F0B81B"/>
<path d="M19.59 48.2928C19.5983 47.7614 19.8191 47.3457 20.3159 47.1282C20.6361 47.7477 20.8431 48.4112 21.0528 49.072C20.8927 49.1243 20.5753 49.2262 20.4153 49.2757C20.3821 48.7636 20.142 48.3727 19.59 48.2928Z" fill="#F0B81B"/>
<path d="M125.682 50.5642C126.185 50.2228 126.767 50.5697 127.214 50.8368C127.879 51.1864 127.846 52.0372 127.76 52.6732C127.589 53.4826 127.159 54.3224 126.386 54.7023C125.577 54.2122 124.821 53.5046 124.449 52.6264C124.101 51.7178 124.937 50.9276 125.682 50.5642ZM125.34 52.2574C125.599 52.4915 125.961 52.5025 126.287 52.5796C126.474 52.307 126.676 52.0427 126.847 51.7619C126.734 51.4425 126.455 51.247 126.212 51.0378C125.878 51.4094 125.312 51.682 125.34 52.2574ZM125.914 53.3725C125.914 53.5404 125.917 53.8818 125.917 54.0525C126.673 53.8378 127.057 53.1302 127.275 52.4309C126.852 52.7916 126.405 53.1137 125.914 53.3725Z" fill="#F0B81B"/>
<path d="M101.099 54.6252C103.238 53.8295 105.653 54.8124 107.171 56.3763C108.51 57.9263 109.426 59.9169 109.495 61.9791C109.412 63.4989 109.15 65.115 108.143 66.3237C107.202 67.6618 105.742 68.7823 104.03 68.7465C102.347 68.8071 100.23 68.2675 99.5401 66.5605C100.705 67.1524 101.834 67.9261 103.186 67.9894C104.411 68.2509 105.419 67.4112 106.534 67.1028L106.374 66.8771C107.453 66.1062 107.991 64.8177 107.704 63.5099C108.107 63.62 108.388 63.4851 108.549 63.1107C108.179 63.0116 107.721 63.0143 107.58 62.5876C107.883 62.6426 108.187 62.7032 108.491 62.7693C108.502 62.5683 108.526 62.1636 108.537 61.9626C108.667 62.1966 108.797 62.4279 108.927 62.6619C109.054 60.6355 108.35 58.5926 107.044 57.0426C105.764 55.5586 103.614 54.7436 101.698 55.319C100.117 55.8532 99.5263 57.5437 98.4775 58.678C98.1518 59.4792 98.0635 60.3602 98.0607 61.2192C98.1711 60.0353 98.6293 58.8845 99.5069 58.0585C101.271 57.2848 103.415 56.2992 105.223 57.5436C105.336 57.4996 105.557 57.4115 105.667 57.3702C106.683 58.2953 106.992 59.6444 107.204 60.9411C107.315 60.5474 107.436 60.1537 107.56 59.7627C107.525 60.2308 107.456 60.7016 107.34 61.1586C107.373 62.5297 107.45 63.9201 107.207 65.2775C106.721 66.9321 104.881 68.0417 103.183 67.7967C100.848 67.5241 98.5189 65.9961 97.8731 63.6531C97.161 61.7148 97.4232 59.5948 98.0773 57.6841C98.6541 56.3432 99.6808 55.1098 101.099 54.6252ZM100.095 58.9423C101.246 59.6829 102.474 60.2886 103.633 61.0155C103.473 61.4863 103.589 61.924 103.89 62.304C103.782 62.9427 103.561 63.5677 103.067 64.0192C103.117 63.2236 103.517 62.3315 103.053 61.5854C102.736 61.1036 102.339 60.6135 101.781 60.4042C101.326 60.3161 100.873 60.4841 100.426 60.5529C100.652 60.3409 100.879 60.1289 101.108 59.9142C100.644 59.793 100.186 59.6609 99.7277 59.5287C99.5925 59.9032 99.4573 60.2804 99.3193 60.6548C99.4959 60.5199 99.8464 60.2473 100.023 60.1097C99.8575 61.1366 99.3993 62.2792 100.037 63.2428C100.603 64.0192 101.455 65.06 102.548 64.6332C103.478 64.2147 104.367 63.5787 105.013 62.794C104.767 62.9152 104.273 63.163 104.025 63.2841C104.08 62.5408 104.712 62.4829 105.308 62.4251C105.038 62.0975 104.643 62.0039 104.237 61.9984C104.295 61.8469 104.409 61.5441 104.467 61.3927C103.898 60.5392 103.081 59.6554 101.947 59.782C102.024 59.1956 102.027 58.6036 102.024 58.0144C101.351 58.2567 100.713 58.5816 100.095 58.9423ZM103.045 58.0007C103.037 58.3421 103.02 59.0194 103.012 59.358C103.296 59.0331 103.586 58.711 103.876 58.3889C103.81 58.8349 103.71 59.2809 103.713 59.7352C104.077 60.2556 104.494 60.7401 104.903 61.2302C105.306 60.9384 105.739 60.5777 105.802 60.0491C105.557 59.5452 105.192 59.113 104.847 58.678C104.436 58.1108 103.652 58.1631 103.045 58.0007ZM102.518 59.3966C102.896 59.3415 102.852 58.656 102.686 58.3971C102.3 58.444 102.352 59.1323 102.518 59.3966ZM105.744 59.0387C105.91 59.1818 105.91 59.1818 105.744 59.0387ZM105.811 61.1201C105.954 61.1036 106.241 61.0705 106.385 61.054C106.589 60.7264 106.542 60.4593 106.247 60.2528C105.888 60.2941 105.617 60.809 105.811 61.1201ZM104.698 61.4395C105.548 61.0237 104.729 62.337 104.698 61.4395ZM105.88 61.5992C105.535 62.4389 105.267 63.3364 105.099 64.2367C105.786 64.3331 106.465 64.5313 106.799 65.2114C107.166 64.4845 106.63 63.854 106.28 63.2483C106.429 63.2456 106.724 63.2428 106.873 63.2401C106.906 62.6454 106.379 62.5352 105.954 62.359C106.167 62.3233 106.594 62.2489 106.807 62.2131C106.763 61.6983 106.407 61.2054 105.88 61.5992ZM102.336 65.2444C102.8 65.2554 103.266 65.2664 103.735 65.2802C104.088 65.1866 104.442 64.7488 104.823 64.9608C105.358 65.2499 106.249 65.4729 106.042 66.2741C105.507 65.93 104.988 65.3986 104.301 65.4344C103.434 65.4757 102.568 65.6574 101.704 65.484C101.823 65.8033 101.941 66.1255 102.06 66.4476C103.007 66.4558 103.95 66.376 104.892 66.2851C104.113 67.1689 102.913 66.8138 101.933 66.5632C101.803 66.1227 101.685 65.6767 101.574 65.2307C100.672 65.2334 100.917 66.0236 101.055 66.61C101.916 66.9432 102.802 67.3038 103.749 67.224C105.03 67.3093 106.266 66.5302 106.807 65.3821C106.484 65.2169 106.161 65.0489 105.841 64.8782C105.283 64.8452 104.729 64.8094 104.174 64.7736C104.334 64.4542 104.491 64.1349 104.646 63.8155C103.898 64.3276 103.205 64.9416 102.336 65.2444ZM107.958 64C108.88 64.0468 107.533 64.8259 107.958 64ZM99.4297 65.1426C99.6698 65.3986 99.9154 65.6547 100.161 65.9107C100.12 65.7317 100.04 65.3738 100.001 65.1949C100.205 65.3353 100.614 65.6161 100.818 65.7593C100.779 65.4427 100.818 65.1288 100.746 64.8204C100.285 64.647 99.8575 65.0214 99.4297 65.1426Z" fill="#F0B81B"/>
<path d="M100.625 62.0094C100.647 61.4642 100.964 61.0595 101.425 60.798C101.381 61.233 101.337 61.6652 101.304 62.1002C101.776 61.9213 102.11 61.5578 102.179 61.043C102.91 61.4615 102.336 62.1167 101.853 62.4389C101.436 62.3122 101.033 62.1553 100.625 62.0094Z" fill="#F0B81B"/>
<path d="M107.687 61.2963C108.074 61.3431 108.452 61.299 108.767 61.0457C108.767 61.2274 108.767 61.5881 108.767 61.7698C108.35 61.7643 107.872 61.6927 107.745 62.1993L107.698 62.2214C107.696 61.913 107.69 61.6046 107.687 61.2963Z" fill="#F0B81B"/>
<path d="M102.201 63.0363C102.822 62.6619 102.154 61.6872 102.935 61.4587C103.029 62.3645 102.827 63.2538 102.653 64.1348C102.018 63.8155 101.478 63.3557 101.155 62.7142C101.502 62.8161 101.853 62.9234 102.201 63.0363Z" fill="#F0B81B"/>
</svg>
