<svg width="112" height="87" viewBox="0 0 112 87" fill="none" xmlns="http://www.w3.org/2000/svg">
<path d="M21.9269 0.103129C26.7387 -0.128325 31.5573 0.0645529 36.3624 0.339121C37.8678 0.463924 39.3709 0.652264 40.8447 0.981291C46.0379 2.13402 51.2492 3.20052 56.4515 4.31695C68.2464 7.01951 80.1653 9.16613 91.8857 12.1932C93.5671 12.6016 95.2373 13.0532 96.8736 13.6227C98.792 14.2422 100.839 14.8299 102.365 16.2232C103.597 17.3782 103.985 19.0846 104.114 20.707C105.938 20.9612 107.84 21.4377 109.282 22.6494C110.33 23.5367 110.686 24.9413 110.731 26.2665C111.149 26.4911 111.641 26.7226 111.736 27.2445C112.113 29.3934 112.034 31.5922 111.817 33.757C111.702 34.3424 111.627 35.2342 110.892 35.3431C109.77 35.5768 108.592 35.5224 107.477 35.2818C106.98 35.1774 106.416 34.8212 106.425 34.2516C106.208 32.1413 106.292 30.0129 106.454 27.9025C106.454 27.1129 107.226 26.7612 107.732 26.3096C107.786 25.8104 107.664 25.2272 107.177 24.9867C106.193 24.3853 105.087 24.0087 103.985 23.6978C104.322 26.8315 104.872 29.9425 105.055 33.0966C105.486 36.7976 105.723 40.5213 106.007 44.2382C106.123 45.3523 106.655 46.3553 107.021 47.3991C107.274 48.0572 106.955 48.7402 106.949 49.4073C107.143 50.4693 107.285 51.5449 107.307 52.6272C107.296 56.6323 107.174 60.6374 107.326 64.6401C107.371 65.9449 107.393 67.2497 107.307 68.5522C107.657 68.8245 108.174 69.065 108.111 69.6028C108.088 70.7896 108.185 72.0285 107.795 73.1676C107.434 74.1479 106.551 74.8672 105.574 75.1713C102.87 75.9541 100.087 76.3876 97.3272 76.9117C88.1008 78.7044 78.8473 80.354 69.5599 81.7972C67.4655 82.1421 65.3597 82.5438 63.2291 82.4961C62.06 82.4689 60.9519 82.0672 59.8889 81.6134C59.2456 81.2776 58.5099 81.6225 57.8441 81.4024C56.4605 80.9554 55.2102 80.1861 54.014 79.3738C52.4386 78.3073 50.7279 77.4654 49.0622 76.5577C47.6968 77.4563 46.074 77.8489 44.4897 78.1325C42.9775 78.305 41.2712 78.5455 39.9464 77.6129C39.003 77.0388 38.3507 76.0971 37.9355 75.0896C36.8815 72.5073 36.2901 69.7684 35.7959 67.0318C34.9111 66.9229 34.3469 66.2762 33.8007 65.6477C31.0111 63.7053 28.0839 61.9671 25.134 60.2788C23.3984 59.2804 21.5861 58.3864 20.0017 57.1474C19.5548 58.1458 18.4218 58.5089 17.4265 58.6677C16.2236 58.8447 15.0048 58.9514 13.7906 58.9151C12.5944 58.7517 11.7977 57.6965 11.2244 56.7231C10.2133 54.91 9.66485 52.8474 9.55426 50.7756C8.82301 50.7484 8.14141 50.4806 7.55234 50.054C5.17577 48.4361 2.54416 47.1904 0.397795 45.248C0.000570655 43.9772 -0.0377975 42.593 0.0231402 41.2656C0.034425 40.4237 0.612205 39.7952 1.02748 39.1235C1.1629 38.6447 1.09519 38.1319 1.10196 37.6395C0.971061 34.1586 1.15613 30.6754 1.11325 27.1923C0.887554 22.5632 1.23287 17.9296 1.69554 13.3255C1.9077 10.8703 1.43148 8.29024 2.4426 5.96209C3.1919 4.12407 5.01101 3.03034 6.81432 2.4449C11.6826 0.817912 16.8442 0.44804 21.9269 0.103129ZM14.2487 1.7755C11.5381 2.27244 8.79592 2.73081 6.21171 3.7247C5.33601 4.04692 4.67021 4.72993 4.07889 5.43337C8.13463 6.17085 12.0617 7.45519 16.052 8.46723C20.2184 9.62223 24.4095 10.6797 28.5736 11.8415C33.6202 13.094 38.5855 14.6416 43.5846 16.0689C47.4214 17.174 51.2583 18.2722 55.0861 19.4C55.7631 19.5906 56.4289 19.8675 57.1376 19.9265C57.9095 19.1981 58.564 18.3199 59.5165 17.8048C62.9109 15.8443 66.8042 15.0024 70.6432 14.4601C76.719 13.6636 82.8601 13.3459 88.9878 13.4707C90.3036 13.4616 91.6058 13.7294 92.9216 13.6817C91.994 13.2415 90.9581 13.1303 89.9831 12.849C81.6572 10.6615 73.2139 8.98233 64.8068 7.14658C57.1873 5.63987 49.6513 3.71335 42.0251 2.24294C39.1948 1.49866 36.2676 1.22409 33.3516 1.10836C26.9847 0.60915 20.5727 0.922293 14.2487 1.7755ZM3.6117 5.83047C2.93235 7.40527 2.76308 9.14117 2.82628 10.8408C2.62541 13.035 2.43808 15.2293 2.20787 17.419C1.93704 20.9158 1.90093 24.4398 2.11534 27.9366C5.44886 28.6196 8.44835 30.3215 11.6645 31.3743C11.8699 25.1137 11.8789 18.8486 11.7661 12.588C11.7322 12.2817 11.7232 11.8687 11.3643 11.7643C10.0147 11.3536 8.64471 11.0087 7.29956 10.5798C6.46449 10.337 5.64296 9.96941 4.75372 9.99664C4.55285 11.1063 4.59122 12.2363 4.56865 13.3595C4.51448 15.1907 4.48514 17.031 4.64538 18.86C4.96136 18.3698 4.85302 17.7753 4.87108 17.2239C4.83497 15.2429 5.01101 13.2642 4.9749 11.2833C4.83497 10.952 4.67247 10.5934 4.85754 10.2394C5.1374 10.1509 5.4308 10.2031 5.70615 10.2803C7.17543 10.7023 8.62665 11.1902 10.0982 11.61C10.5112 11.762 11.0506 11.5646 11.3666 11.9368C11.4975 12.3951 11.4862 12.8762 11.4907 13.3459C11.4478 19.2548 11.5833 25.1705 11.2176 31.0703C9.10738 30.2443 7.06484 29.2481 4.96813 28.3791C4.27298 28.1113 3.52819 27.5826 3.50788 26.7589C3.33409 21.6079 3.465 16.4547 3.46274 11.3014C3.58236 10.4187 3.79451 9.37035 4.55059 8.81668C5.23445 8.71684 5.92056 8.97779 6.58411 9.12982C9.75513 9.99437 12.8855 10.9996 16.0723 11.8029C21.6606 13.5842 27.4023 14.8322 32.9747 16.668C37.0033 17.7571 40.9846 19.0143 44.932 20.3712C46.8595 20.9249 48.8072 21.4105 50.7121 22.0459C53.373 22.7765 55.946 23.8067 58.6317 24.4512C59.0741 23.5321 59.3472 22.4793 60.1597 21.8031C59.8415 22.6903 59.618 23.6138 59.679 24.5646C60.4125 24.6531 61.1505 24.762 61.893 24.7053C68.2012 24.3922 74.4959 23.8703 80.7928 23.3801C86.1485 22.9603 91.484 22.3068 96.851 22.0504C98.8507 21.8893 100.895 21.9165 102.823 21.288C102.809 19.9106 102.676 18.4061 101.724 17.3283C100.333 15.7716 98.2684 15.075 96.2755 14.7029C93.8718 14.1447 91.3937 14.3806 88.9517 14.3443C86.2388 14.3103 83.5259 14.3965 80.8199 14.5781C74.8457 14.9162 68.7745 15.1317 63.008 16.8926C60.8029 17.4939 58.634 18.6194 57.2979 20.5437C53.9666 19.8856 50.7437 18.7715 47.4688 17.8797C41.0523 16.0984 34.7012 14.0879 28.2418 12.4609C22.8026 10.8612 17.2888 9.53146 11.8225 8.02475C9.08933 7.27593 6.34487 6.57249 3.6117 5.83047ZM5.42403 11.2651C5.41952 13.7839 5.40598 16.3049 5.32924 18.8237C7.17769 19.3614 9.0013 19.9787 10.8182 20.614C10.7572 18.0045 10.8813 15.3927 10.8001 12.7809C9.02839 12.2091 7.23862 11.6826 5.42403 11.2651ZM13.0503 12.5767C12.7095 14.3262 12.8584 16.1211 12.8065 17.891C12.8381 22.1457 12.6418 26.3936 12.6237 30.6459C13.8086 31.0362 14.998 31.4152 16.1671 31.8531C17.6793 32.4454 19.135 33.1783 20.654 33.7547C20.1213 33.2351 19.4104 32.9923 18.7491 32.6905C16.8623 31.8849 14.9664 30.9614 12.9329 30.6233C13.109 24.6758 13.2918 18.7215 13.1564 12.7741C14.0749 12.799 14.9326 13.1644 15.8151 13.38C17.6522 13.9314 19.539 14.3557 21.2972 15.1385C21.6402 17.8683 21.5139 20.6254 21.5951 23.3688C21.656 20.7139 21.6515 18.0567 21.5545 15.404C21.568 14.991 21.1482 14.8095 20.8232 14.6983C18.5979 13.9019 16.298 13.3505 14.0366 12.6788C13.7183 12.6062 13.3753 12.4496 13.0503 12.5767ZM13.9847 13.8565C14.023 16.5227 13.9869 19.189 14.0117 21.8552C16.3906 22.4271 18.6272 23.455 20.9835 24.0949C20.988 21.406 21.076 18.7079 20.9203 16.0212C18.704 15.0228 16.3048 14.5463 13.9847 13.8565ZM22.4866 14.8957C22.0826 20.0467 22.2677 25.2227 22.4121 30.3827C22.3444 32.0959 22.5475 33.8318 22.2767 35.5269C25.5944 37.0382 29.0002 38.3361 32.3721 39.718C32.7512 37.9889 32.5052 36.2145 32.5684 34.4627C32.6226 29.5454 32.6271 24.6281 32.5571 19.7109C32.4759 19.1527 32.6068 18.4765 32.2073 18.0226C31.4354 17.5847 30.5665 17.3532 29.7179 17.1195C27.5535 16.5386 25.4522 15.7331 23.2653 15.2338C25.863 16.2277 28.5623 16.9312 31.2075 17.7844C31.5686 17.9228 31.9049 18.1225 32.2502 18.2972C32.2728 21.7917 32.3721 25.2862 32.3382 28.7807C32.1802 32.2162 32.3879 35.6585 32.1712 39.0917C29.991 38.7922 28.0568 37.6599 26.0029 36.9338C24.8925 36.3846 23.6354 36.0965 22.6333 35.3567C22.8567 32.9491 22.9064 30.5257 22.8026 28.109C22.7416 23.7749 22.7574 19.4386 22.9154 15.1068L22.4866 14.8957ZM23.7776 16.4229C23.5993 21.9823 23.8318 27.5417 23.8724 33.1012C23.9378 33.4597 23.7347 34.2879 24.3305 34.1631C24.3937 31.8123 24.247 29.4614 24.2651 27.1106C24.1816 27.0153 24.0191 26.827 23.9378 26.7317C24.3689 23.3824 23.9627 19.99 24.1071 16.6248C24.2651 16.7043 24.5833 16.8631 24.7413 16.9448C24.721 19.7313 24.809 22.5201 24.7503 25.3089C27.1811 25.8512 29.4651 26.9018 31.7943 27.7709C31.774 24.7961 31.8349 21.8121 31.6476 18.8441C29.0701 17.9024 26.346 17.3986 23.7776 16.4229ZM33.5276 24.2447C33.5344 29.5273 33.4735 34.8076 33.4712 40.0879C36.1795 41.1998 38.906 42.2731 41.5872 43.4531C42.1808 43.7412 42.8037 43.9954 43.4763 43.9908C43.5124 43.6164 43.5508 43.2398 43.5643 42.8631C43.5553 35.7334 43.4492 28.6014 43.4537 21.4718C42.5442 20.8455 41.4541 20.6072 40.4271 20.2509C38.1657 19.518 35.9606 18.5809 33.6224 18.1089C33.478 20.1511 33.5841 22.2002 33.5276 24.2447ZM4.6341 26.5501C4.79886 26.4208 5.22542 26.4594 5.1374 26.153C5.08549 24.104 5.06066 22.0504 5.17577 20.0036C5.04486 19.9083 4.78306 19.72 4.65215 19.6247C4.56188 21.9301 4.57316 24.2447 4.6341 26.5501ZM5.54365 26.4094C7.2973 27.1855 9.07578 27.9139 10.8994 28.5152C10.9129 26.3731 10.8881 24.2333 10.9445 22.0935C9.23603 21.2199 7.32664 20.9158 5.54591 20.2373C5.53914 22.2932 5.56848 24.3513 5.54365 26.4094ZM44.361 21.229C44.2843 23.0738 44.3159 24.9209 44.2594 26.7657C44.3723 33.4892 44.2956 40.2195 44.6454 46.9339C44.598 51.7037 44.8463 56.4689 44.8982 61.2364C45.0765 64.9488 44.9162 68.6634 44.8395 72.3757C44.8101 72.6911 44.8846 72.9838 45.0674 73.2493C45.4647 65.1711 45.1103 57.0725 45.0923 48.9853C45.002 42.7814 44.8282 36.5752 44.9275 30.3691C45.0404 27.7142 44.9207 25.057 45.0223 22.4044C45.0088 21.9301 44.5957 21.6079 44.361 21.229ZM103.766 21.6714C103.807 21.8484 103.886 22.2002 103.924 22.3771C105.254 23.008 106.761 23.3211 107.944 24.2333C108.65 24.7575 108.24 25.6924 108.163 26.4072C108.497 26.4843 108.833 26.5592 109.169 26.6318C109.673 25.5517 109.359 24.2401 108.468 23.4709C107.159 22.3522 105.414 21.9732 103.766 21.6714ZM45.7107 22.3431C49.1096 23.0965 52.3551 24.408 55.7361 25.2295C56.5012 25.6425 57.5461 25.7559 58.0246 26.5547C58.2029 26.718 58.1329 27.2558 58.4647 27.1673C58.5843 26.5433 58.6678 25.3339 57.8328 25.1977C56.4493 24.7416 54.989 24.585 53.61 24.1108C51.2425 23.4641 48.9065 22.7062 46.5367 22.0685C46.1508 21.9732 45.7581 21.8257 45.3586 21.9301C44.9681 22.1343 45.5279 22.3499 45.7107 22.3431ZM100.315 22.6131C101.2 22.8423 102.058 23.3801 102.419 24.2583C102.841 25.3384 102.9 26.5184 102.994 27.6643C103.076 32.8788 102.803 38.0979 103.033 43.3101C103.064 44.1497 103.29 44.9598 103.426 45.7857C101.961 45.7608 100.699 44.9348 99.3585 44.456C98.3158 44.0816 97.2685 43.6936 96.2055 43.3963C94.4428 43.5733 92.6824 43.2738 90.9694 42.8722C90.3577 42.7224 89.7326 42.618 89.1029 42.6725C91.5788 43.866 94.0456 45.0868 96.3974 46.5164C97.4988 47.0429 98.4489 47.8461 99.5503 48.3612C101.044 48.2659 102.676 48.1321 103.931 47.2244C104.911 46.3803 104.741 44.9348 104.692 43.773C104.082 36.6524 103.94 29.4705 102.645 22.4316C101.866 22.4793 101.094 22.6109 100.315 22.6131ZM13.7725 23.1373C13.777 25.0253 13.7161 26.9132 13.6935 28.8011C13.7296 29.1869 13.5536 29.7133 14.0411 29.9085C14.1742 27.6416 14.0591 25.3679 14.19 23.0987C14.0862 23.1078 13.8763 23.1282 13.7725 23.1373ZM45.6655 23.1509C45.7513 27.6802 45.6091 32.2094 45.6633 36.7386C45.7445 48.8378 45.907 60.9414 45.6791 73.0406C45.6339 73.474 46.1553 73.626 46.4306 73.8506C49.2879 75.4799 52.2558 76.9117 55.0454 78.6635C55.0545 78.2278 55.0522 77.7944 55.0454 77.3633C54.2194 77.1636 53.513 76.6757 52.7794 76.2696C51.4772 75.5389 50.2043 74.756 48.8772 74.0708C48.2294 73.7031 47.5027 73.4785 46.9181 73.0042C47.0829 72.1942 47.0626 71.3659 47.0739 70.5445C47.1574 56.9273 46.794 43.3146 46.6699 29.702C46.7173 28.0636 46.5796 26.4231 46.7263 24.7893C48.3197 25.1614 49.8206 25.8331 51.3666 26.3572C52.5718 26.8224 53.8086 27.2104 54.98 27.7596C54.6166 34.3742 54.8175 41.0001 54.7069 47.6192C54.6572 48.9126 54.7904 50.2174 54.5647 51.4995C52.319 50.9072 50.3284 49.632 48.2768 48.5768C48.4032 49.7658 48.3919 50.964 48.4055 52.1598C48.4145 58.9083 48.4687 65.6545 48.4664 72.4029C50.7008 73.4263 52.6598 74.9648 54.9461 75.8861C55.1854 70.5536 54.98 65.2097 55.1177 59.8726C55.1741 56.0151 54.9777 52.1598 55.1244 48.3022C55.1086 43.7639 55.1808 39.2256 55.147 34.6873C55.2192 31.8009 55.3185 28.9169 55.4178 26.0328C52.1746 25.0502 48.9562 23.9701 45.6655 23.1509ZM14.6888 23.4119C14.6256 25.5721 14.6663 27.7324 14.6595 29.8926C16.7201 30.8048 18.8642 31.5105 20.9271 32.4136C20.8458 30.1331 20.8661 27.8481 20.9451 25.5676C18.8732 24.8097 16.7652 24.1607 14.6888 23.4119ZM96.781 23.607C96.8916 29.9062 96.7946 36.2076 96.7968 42.5068C98.6724 43.0696 100.446 43.9001 102.261 44.6285C101.999 40.6665 102.252 36.7 102.159 32.7358C102.105 30.655 102.227 28.5651 102.006 26.4911C101.891 25.2976 101.211 24.0518 100.022 23.6615C98.9703 23.3506 97.8531 23.5367 96.781 23.607ZM84.8417 24.3717C84.8169 27.1356 84.7831 29.8994 84.8463 32.6632C85.9093 32.8584 86.9543 33.167 87.9631 33.5505C88.1595 36.0465 88.3761 38.5449 88.3152 41.0523C90.6512 41.4721 92.969 42.0802 95.3388 42.2459C95.4291 38.1432 95.3727 34.0383 95.4291 29.9334C95.4675 27.8413 95.3772 25.74 95.5645 23.6524C91.9805 23.7613 88.4122 24.0972 84.8417 24.3717ZM71.4535 25.3157C71.3745 26.4979 71.4106 27.6824 71.4896 28.8647C75.6085 29.9175 79.6553 31.2291 83.6839 32.5883C83.7449 29.8563 83.7426 27.1265 83.8374 24.399C79.7139 24.7552 75.5815 25.0162 71.4535 25.3157ZM58.5911 25.2295C58.7468 26.2756 58.9139 27.3194 58.9387 28.3791C58.8371 28.1748 58.6317 27.7687 58.5302 27.5644L58.3541 27.51C58.5347 28.9668 58.5008 30.4531 58.8281 31.8894C59.1711 30.0855 58.7288 28.1476 59.5458 26.4299C59.6654 26.1326 60.0085 25.8217 59.7173 25.5154C59.3833 25.293 58.9703 25.2862 58.5911 25.2295ZM64.6713 25.6152C66.3618 26.6681 68.217 27.4124 70.0271 28.2316C70.079 27.2581 70.1084 26.2846 70.088 25.3089C68.2938 25.5812 66.4769 25.5222 64.6713 25.6152ZM21.559 25.445C21.2701 28.6264 21.4958 31.8327 21.4078 35.0231C19.7489 34.5194 18.2097 33.7048 16.6095 33.0512C15.2824 32.4499 13.9057 31.9575 12.5966 31.3131C12.5109 31.3358 12.3371 31.3812 12.2513 31.4038C15.2486 32.6632 18.2029 34.0315 21.2498 35.1752C21.3965 35.1411 21.6899 35.0753 21.8389 35.0436C21.7147 31.8463 21.8637 28.6287 21.559 25.445ZM61.6222 25.8058C60.979 26.0169 60.3312 26.4072 59.9611 26.9835C59.6225 28.8057 59.7264 30.6754 59.9724 32.5021C60.0559 31.1565 60.0739 29.8041 60.2477 28.4676C60.6743 26.7385 62.534 25.8331 64.1726 25.6697C63.3217 25.7037 62.4595 25.647 61.6222 25.8058ZM47.2544 25.9579C47.119 26.9722 47.1641 27.9978 47.1641 29.0167C47.2025 36.2054 47.3673 43.3918 47.7126 50.5691C47.7194 57.8395 47.7194 65.1121 47.7758 72.3848C47.7916 64.5857 47.8706 56.7843 47.8096 48.983C47.7013 45.0528 47.5907 41.1204 47.6742 37.1856C47.5523 33.7819 47.7352 30.3759 47.6945 26.9699C47.7329 26.5683 47.4734 26.2574 47.2544 25.9579ZM56.0994 26.001C56.0814 28.4517 55.973 30.9001 55.8828 33.3485C56.0949 33.3599 56.517 33.3825 56.7291 33.3939C56.6704 31.6376 56.7833 29.7927 56.1378 28.1295C56.5508 28.2134 56.9548 28.345 57.3453 28.5084C57.264 29.5318 57.2279 30.5733 57.4649 31.5808C58.1397 30.5484 57.8012 29.2323 57.7335 28.0818C57.6364 27.1129 56.7743 26.566 56.0994 26.001ZM110.612 27.8776C110.341 27.8299 109.799 27.7346 109.528 27.6892C109.47 28.286 110.187 28.2089 110.506 27.9525C110.7 28.0115 111.083 28.1272 111.277 28.1862C111.124 27.2581 109.91 27.1878 109.668 26.271C109.289 26.9971 110.242 27.4079 110.612 27.8776ZM61.2453 28.5742C60.9338 30.7481 61.3423 32.9673 60.9587 35.1366C60.9203 39.3799 60.5298 43.6119 60.5637 47.8552C60.7014 49.5072 60.988 51.47 62.4663 52.4729C63.2675 53.0811 64.3193 52.9495 65.2559 52.8678C68.9099 52.4593 72.5526 51.9556 76.2066 51.5358C77.8971 49.6705 80.0344 48.2818 81.7226 46.412C82.7089 45.3115 83.8735 44.363 84.6838 43.1127C84.9162 43.1581 85.1532 43.2012 85.3902 43.2398C84.1647 42.6838 82.8759 42.2799 81.6008 41.8556C81.5579 41.6808 81.4721 41.3314 81.4292 41.1544C82.1718 41.0636 83.1987 41.1839 83.5733 40.3534C83.6907 38.2522 83.7381 36.1328 83.6049 34.0315C81.3186 33.3031 79.0662 32.4703 76.7822 31.7329C72.8302 30.5075 68.928 29.1029 65.1769 27.3421C64.4253 27.0743 63.6151 26.4662 62.8003 26.8542C62.0826 27.1651 61.3378 27.7346 61.2453 28.5742ZM4.71309 26.979C5.11257 27.3716 5.64296 27.5622 6.14626 27.7777C7.43949 28.2996 8.72144 28.8465 9.98308 29.4388C10.2652 29.584 10.5812 29.6294 10.8904 29.6725C10.2765 29.1801 9.50461 28.9804 8.80495 28.6514C7.43498 28.1113 6.11692 27.4283 4.71309 26.979ZM48.5815 26.8428C48.6041 33.6367 48.5589 40.4328 48.6831 47.2267C50.3442 48.2092 52.0121 49.2326 53.8334 49.8884C54.1607 43.3169 53.9531 36.7273 54.0275 30.149C53.9756 29.6657 54.1833 28.9327 53.6235 28.6899C52.0008 27.9343 50.2855 27.392 48.5815 26.8428ZM107.219 27.5803C107.646 27.7732 108.088 27.9411 108.556 28.0115C108.585 27.9525 108.644 27.8322 108.673 27.7732C108.434 27.1855 107.657 27.3375 107.219 27.5803ZM24.8226 27.0743C25.0731 27.923 24.9783 28.817 25.0076 29.6929C24.9715 31.1792 25.1272 32.6768 24.9399 34.1586C25.8811 34.4422 26.75 34.912 27.6663 35.2546C29.0634 35.8264 30.5484 36.2417 31.8011 37.1176C31.6386 34.6919 31.6972 32.2593 31.7333 29.8313L31.6408 29.7156C29.4448 28.6468 27.0231 28.134 24.8226 27.0743ZM107.524 28.8533C107.567 30.5234 107.581 32.1935 107.651 33.8613C108.524 34.2539 109.526 34.4059 110.442 34.0724C110.499 32.4454 110.562 30.8207 110.557 29.1937C109.533 29.1914 108.528 29.0235 107.524 28.8533ZM1.96638 28.994C2.02732 32.5634 2.01152 36.135 2.02957 39.7044C4.30684 40.6801 6.35615 42.0916 8.54314 43.242C8.85686 42.3775 9.11867 41.4698 9.66936 40.721C10.4277 39.6136 12.0459 39.119 13.2331 39.8156C14.4699 40.5304 15.3885 41.7308 15.9076 43.056C16.456 44.4333 16.9322 45.8402 17.3001 47.2789C18.871 47.7667 20.2003 48.7992 21.6967 49.4663C21.5455 49.5548 21.401 49.6456 21.2566 49.7432C21.4597 49.8407 21.6628 49.9406 21.8659 50.0449C21.8547 49.9179 21.8343 49.6637 21.8253 49.5389C25.204 51.2953 28.6526 52.9177 32.0335 54.674C31.8507 54.7444 31.6769 54.8283 31.5099 54.9259C32.4804 55.5227 33.5118 56.031 34.5726 56.4462C34.9473 55.4523 35.2203 54.3541 35.99 53.5803C36.8521 52.7475 38.2695 52.7407 39.2625 53.3375C40.7679 54.2293 41.7204 55.7678 42.5509 57.2654C42.9978 57.9643 43.3679 58.9151 44.3001 59.0444C44.4987 56.984 44.3136 54.9123 44.3181 52.8474C44.3317 50.3626 44.2527 47.8779 44.352 45.3932C42.5509 45.5883 40.953 44.5967 39.3438 43.9591C37.5112 43.2466 35.6943 42.4955 33.8549 41.7988C29.2056 39.7748 24.4592 37.9776 19.8008 35.9739C17.5281 35.1048 15.2847 34.1677 13.03 33.2555C9.3895 31.7147 5.62716 30.4871 1.96638 28.994ZM57.6793 32.8311C57.6725 33.0331 57.6612 33.437 57.6545 33.639C57.9411 33.53 58.2255 33.412 58.5076 33.2895C59.047 33.7297 59.7918 33.6843 60.4147 33.9521C60.3312 33.5437 60.2387 33.1375 60.1619 32.729C60.0626 32.9809 59.9566 33.2305 59.8415 33.4756C59.4849 33.4642 59.1305 33.4393 58.7762 33.3984C58.8845 33.0603 59.0132 32.729 59.1102 32.3864C58.6949 32.6859 58.3248 33.0444 57.9253 33.3621C58.0652 33.0331 58.2007 32.7018 58.3338 32.3682C58.1104 32.5157 57.896 32.6746 57.6793 32.8311ZM23.1885 34.5012C23.4932 34.828 23.8769 35.0731 24.2967 35.2228C26.6913 36.0942 29.0227 37.1357 31.4196 37.9935C30.9276 37.492 30.246 37.281 29.6208 37.0087C27.4925 36.1328 25.3462 35.2932 23.1885 34.5012ZM56.5328 34.5625C56.526 35.9717 56.4763 37.3831 56.5237 38.7899C56.4809 39.187 56.8081 39.482 57.1534 39.5932C57.8215 39.8065 58.5279 39.659 59.205 39.5569C59.2682 38.0094 59.381 36.4618 59.3494 34.9142C58.406 34.8303 57.4581 34.7894 56.5328 34.5625ZM84.5709 34.5489C84.4784 36.6206 84.5529 38.7037 84.7628 40.7641L84.9862 40.7346C84.9817 38.7877 85.0065 36.8385 84.9117 34.8961C84.8259 34.8098 84.6567 34.6374 84.5709 34.5489ZM85.4331 34.7917C85.2819 36.4119 85.5504 38.0366 85.5166 39.6613C85.4286 41.0364 85.9747 42.3797 85.6949 43.7526C84.8937 44.515 83.9232 45.0732 83.1761 45.8969C81.9258 47.2108 80.7183 48.57 79.3506 49.7658C78.678 50.3036 77.9039 50.7438 77.4051 51.47C79.4273 50.2151 80.9959 48.3839 82.7022 46.7479C83.4876 46.0195 84.0902 45.1005 85.0155 44.5286C84.853 44.8168 84.528 45.3932 84.3655 45.6814C84.5709 45.4908 84.7718 45.2911 84.9636 45.0846L84.9117 44.9552C85.1374 44.6489 85.3721 44.3471 85.6046 44.0453C85.6813 44.1293 85.8371 44.2972 85.9161 44.3811C85.8619 41.8306 85.8664 39.2778 85.7513 36.7296C85.7129 36.076 85.7332 35.393 85.4331 34.7917ZM86.6676 40.6597C86.6947 40.9706 87.0987 40.9366 87.3018 41.0773C87.365 39.0577 87.3154 37.0041 86.8911 35.0231C86.7173 34.9959 86.3674 34.9437 86.1937 34.9188C86.5029 36.8158 86.5457 38.7446 86.6676 40.6597ZM1.55787 44.5445C1.74068 44.3221 2.00475 44.1156 1.99346 43.7957C2.05666 42.6384 1.97766 41.4267 1.42697 40.3829C0.801789 41.6899 1.16967 43.2193 1.55787 44.5445ZM10.3622 41.2225C9.36693 42.2005 9.17509 43.6754 9.12544 45.0052C6.84591 43.7027 4.34069 42.7088 2.33878 40.9706C2.30718 42.2844 2.56673 43.596 2.40197 44.9099C2.21464 45.4726 2.82853 45.729 3.18513 46.0104C5.05389 47.1972 6.97682 48.3022 8.77787 49.5979C8.66502 48.0004 8.23394 46.3939 8.50026 44.7919C8.7079 45.0301 8.96519 45.248 9.08256 45.5498C9.26311 46.943 9.25634 48.3544 9.40304 49.7522C9.50009 47.6873 9.08481 45.577 9.6829 43.5506C9.89732 42.4501 10.4548 41.252 11.6126 40.9093C12.6779 40.5758 13.6055 41.4925 14.0682 42.3571C15.1357 44.2654 15.7699 46.3848 16.2303 48.5133C16.6456 50.3694 16.5621 52.2823 16.5666 54.1725C16.7472 54.2315 17.1083 54.3473 17.2888 54.4063C16.8871 53.0879 17.1512 51.6833 16.939 50.3354C16.8736 48.3431 16.2574 46.4347 15.6841 44.5468C15.1425 43.1286 14.515 41.5606 13.1654 40.7369C12.2739 40.1401 11.0912 40.5576 10.3622 41.2225ZM59.6699 42.1982C59.5481 45.7358 59.3043 49.3075 59.8505 52.8179C60.6788 53.8617 62.0239 54.3541 63.2495 54.7671C65.204 55.0371 67.1675 54.6604 69.1063 54.4153C71.3926 54.1567 73.6766 53.8639 75.9516 53.5213C79.7568 52.8927 83.6027 52.5569 87.4124 51.9556C92.1249 51.2204 96.8578 50.6213 101.597 50.0903C103.087 49.8906 104.653 49.7999 105.994 49.0465C106.066 48.0436 105.926 47.0519 105.748 46.0694C105.452 46.7229 105.096 47.3878 104.486 47.8008C103.207 48.7311 101.566 48.7493 100.087 49.1237C100.099 49.2417 100.124 49.4777 100.137 49.5957C99.4397 49.4686 98.7062 49.4323 98.0156 49.6093C98.2548 49.8112 98.4963 50.0109 98.7401 50.2106C98.5437 50.2741 98.1533 50.4057 97.9592 50.4693C97.6048 50.3377 97.3927 49.995 97.1218 49.7545C95.5239 49.8748 93.9395 50.1198 92.3506 50.3218C87.8683 50.9889 83.3544 51.3906 78.8608 51.9556C75.4099 52.625 71.8891 52.7929 68.4156 53.3057C66.917 53.4736 65.4184 53.7459 63.904 53.7028C62.3557 53.6688 60.8593 52.625 60.3583 51.1387C59.7264 49.43 59.3449 47.592 59.6225 45.7676C59.6383 43.9545 59.8708 42.1483 59.8573 40.3375C59.5593 40.9139 59.7151 41.5787 59.6699 42.1982ZM56.0588 79.1922C56.3748 79.401 56.693 79.6029 57.0225 79.7981C57.1557 79.2217 57.1963 78.6318 57.1941 78.044C57.334 65.7044 57.2956 53.367 57.3046 41.0273C56.8826 40.8549 56.4673 40.6665 56.0633 40.4555C56.0249 53.367 56.219 66.2807 56.0588 79.1922ZM57.7019 40.9502C57.8057 45.67 57.8395 50.3899 57.8666 55.112C57.8215 63.3853 57.9592 71.6632 57.6319 79.9342C57.9456 80.1112 58.2639 80.2814 58.5911 80.4357C58.871 78.9335 58.5257 77.3156 59.1034 75.8747C59.284 75.8929 59.6474 75.9269 59.8279 75.9428C59.6361 76.6349 59.2908 77.2952 59.3066 78.035C59.2908 78.8314 59.1779 79.8979 59.9679 80.3745C61.3581 81.1687 62.9719 81.6384 64.5788 81.509C66.9238 81.3207 69.2281 80.8169 71.5551 80.4902C77.2178 79.6574 82.8669 78.7316 88.4912 77.6674C93.6258 76.6962 98.7739 75.7976 103.884 74.697C104.805 74.452 105.883 74.2841 106.488 73.4649C107.14 72.3167 107.204 70.9325 107.091 69.6436C105.689 70.1519 104.227 70.4197 102.762 70.6579C98.054 71.5792 93.3572 72.564 88.6221 73.3287C83.4086 74.2477 78.1589 74.9535 72.9499 75.8952C69.5983 76.4057 66.2151 77.1704 62.8094 76.7529C61.5432 76.6009 60.0175 76.4624 59.2366 75.3052C59.2163 67.7398 59.2479 60.1745 59.1824 52.6091C59.0312 48.7856 59.1486 44.9575 59.0673 41.134C58.6227 41.0069 58.1623 40.9593 57.7019 40.9502ZM87.0039 41.9463C87.4688 42.4319 88.1662 42.5 88.7937 42.6089C88.4416 41.9668 87.6697 41.8102 87.0039 41.9463ZM86.5661 42.466C86.5841 42.5772 86.618 42.7973 86.636 42.9062C89.534 43.7185 92.143 45.2525 94.6888 46.8205C95.7067 47.474 96.6727 48.2319 97.8012 48.6925C98.2729 48.8604 98.6611 49.2485 99.1982 49.194C97.6026 47.7985 95.621 46.9975 93.8425 45.8833C91.5359 44.4991 89.0329 43.5098 86.5661 42.466ZM86.5931 43.4054C86.5931 44.0181 86.6022 44.6489 86.302 45.2048C86.4013 46.9067 86.5277 48.6108 86.5954 50.315C90.0373 49.8248 93.4904 49.4391 96.9413 49.0193C94.7543 47.4082 92.3732 46.0898 89.9741 44.8259C88.8682 44.3063 87.7149 43.891 86.5931 43.4054ZM81.6008 48.8627C80.7093 49.6547 79.7117 50.3263 78.9511 51.2544C81.278 50.8369 83.6298 50.6077 85.9793 50.3762C86.0154 48.536 85.4511 46.7297 85.6768 44.8894C84.4648 46.3621 82.973 47.5534 81.6008 48.8627ZM12.1362 46.2055C13.2873 45.4227 14.9709 46.4597 14.8987 47.8303C15.0793 47.8734 15.2621 47.9165 15.4427 47.9641C14.9461 47.2176 14.7475 46.1443 13.7815 45.8311C13.2038 45.4681 12.6124 45.8765 12.1362 46.2055ZM83.1942 46.8659C83.6365 46.7184 84.097 46.2328 84.2346 45.7903C83.8013 45.8992 83.2912 46.4188 83.1942 46.8659ZM12.4228 46.6798C11.2289 47.7781 11.2109 49.5412 11.2086 51.0456C11.1364 52.2506 11.3418 53.8027 12.635 54.2905C12.2513 53.7233 11.7661 53.1991 11.6216 52.507C11.7548 52.3436 12.0189 52.0214 12.152 51.8603C12.0008 51.9578 11.7029 52.153 11.5539 52.2506C11.4704 52.1303 11.3034 51.8943 11.2199 51.7763C11.3147 51.6197 11.4095 51.4632 11.5065 51.3089L12.0617 51.5017C11.8293 51.0003 11.4072 50.5986 11.2876 50.0449C11.7209 50.3377 12.1227 50.678 12.5154 51.023C12.6102 51.8217 12.1994 52.6522 12.5199 53.4192C12.5853 52.9812 12.6057 52.5387 12.6305 52.0963C12.9645 52.3096 13.4994 52.3595 13.5965 52.8179C13.8447 53.308 13.3979 53.5826 13.0525 53.8254C13.0616 53.5689 13.0841 53.0538 13.0954 52.7952C12.9577 53.165 12.8201 53.5349 12.6824 53.9025C13.206 54.0387 13.7454 54.0568 14.1381 53.6279C14.0005 53.3012 13.8628 52.9744 13.7274 52.6454C13.8425 52.3527 13.9553 52.06 14.0682 51.7672C14.418 51.8762 14.7656 51.9805 15.1199 52.0826C15.1131 51.4246 14.5579 51.529 14.1043 51.5426C14.2013 51.2658 14.3142 50.998 14.4451 50.737C14.7475 50.7938 15.0454 50.8732 15.3479 50.9299C15.2711 51.5653 15.1696 52.1961 15.0725 52.8269C14.7272 52.6477 14.3796 52.4503 13.9756 52.4639C14.26 52.7815 14.6347 52.9676 15.0477 53.0448C14.7272 53.6642 14.3367 54.2452 13.8718 54.7671C13.4678 54.5878 13.0661 54.4017 12.6711 54.2066C13.0029 54.5606 13.285 54.9645 13.6574 55.2754C14.5015 55.298 14.9687 54.3382 15.3749 53.7164C16.0362 51.9352 15.6887 49.9973 15.4359 48.1706C15.3321 48.1026 15.1244 47.9641 15.0206 47.8961C15.0409 48.1389 15.0793 48.6267 15.0996 48.8695C14.8084 48.1207 14.6888 47.204 13.9937 46.707C13.5242 46.4642 12.8472 46.226 12.4228 46.6798ZM81.3976 48.6721C81.2329 48.831 81.2329 48.831 81.3976 48.6721ZM17.264 48.9331C17.8034 50.7665 17.8012 52.7316 17.7515 54.6332C19.8934 56.0423 22.1819 57.2087 24.3802 58.527C27.5896 60.331 30.7267 62.2643 33.7849 64.3134C33.8301 62.4459 33.9858 60.5829 34.128 58.7222C34.5342 59.2191 34.4033 59.8545 34.4236 60.4467C34.6358 58.7267 35.1098 56.9749 36.1705 55.5794C36.7257 54.8964 37.6014 54.1862 38.5336 54.4811C39.6485 54.9894 40.312 56.1149 40.8785 57.1542C42.1334 59.8386 43.1242 62.7409 43.0339 65.7452C43.2054 62.0783 42.4607 58.1458 40.0231 55.2912C39.3325 54.4698 38.177 53.637 37.0823 54.2088C35.4302 55.1982 34.9021 57.245 34.5252 59.0081C34.2972 58.6201 34.3288 58.1731 34.3808 57.7442C33.8188 57.2155 32.9431 57.2677 32.3179 56.8229C28.7971 54.8329 25.1114 53.1605 21.5883 51.1795C20.2635 50.4352 18.8755 49.809 17.5506 49.0669C17.5055 49.0034 17.413 48.8741 17.3678 48.8083L17.264 48.9331ZM97.7786 51.647C87.4056 53.0402 77.0259 54.3949 66.6191 55.5023C65.5019 55.5862 64.3193 55.7473 63.2653 55.2685C61.9878 54.8079 60.6088 54.3609 59.7602 53.215C59.7354 59.8205 59.7692 66.4237 59.758 73.0292C59.7986 73.6078 59.6406 74.3476 60.1732 74.747C61.9833 75.9655 64.2538 76.2242 66.3799 76.0245C69.5644 75.7 72.7219 75.1463 75.8704 74.579C76.5745 74.6539 76.482 73.887 76.7212 73.449C76.7844 73.6555 76.9153 74.0685 76.9785 74.275C77.1907 74.1956 77.3983 74.1093 77.6037 74.0117C77.8 72.7093 77.703 71.3909 77.7188 70.0816C77.6218 67.4244 77.6308 64.7649 77.6263 62.1078C77.7075 61.2183 77.8362 60.0065 78.8315 59.6957C81.0185 58.9899 83.3364 58.9173 85.5865 58.518C88.893 58.0891 92.1769 57.4878 95.4946 57.1383C96.2529 57.0793 97.0519 57.0022 97.7831 57.2699C98.1059 57.3698 98.318 57.7147 98.2593 58.0505C98.133 60.3242 98.2864 62.5979 98.3316 64.8716C98.4196 66.7346 98.2639 68.618 98.5979 70.4605C98.8687 69.7662 98.783 69.0037 98.81 68.2753C98.8484 64.8693 98.6385 61.4633 98.8529 58.0619C98.8349 57.5831 98.9906 56.9681 98.5618 56.6278C97.7177 55.8926 96.5012 56.1331 95.4833 56.2125C90.1366 56.8615 84.8214 57.7737 79.4612 58.3092C77.8362 58.4454 76.2811 59.9884 76.4842 61.6925C76.5926 65.5251 76.4346 69.3668 76.6671 73.1971C76.552 73.3696 76.4391 73.542 76.324 73.7122C76.0961 70.3902 76.2608 67.0523 76.0667 63.7257C76.0599 62.5503 75.9471 61.3521 76.254 60.2017C76.4481 59.4529 77.1072 58.9763 77.6804 58.5225C78.6961 57.7283 80.0525 57.9189 81.2487 57.7215C86.232 57.0657 91.2086 56.3532 96.1965 55.7224C97.1106 55.6634 98.1691 55.5817 98.9319 56.1944C99.3021 56.4712 99.433 56.9477 99.4104 57.3947C99.3201 61.7787 99.3833 66.1605 99.3156 70.5422C100.945 70.0838 102.606 69.7571 104.272 69.453C104.911 69.3033 105.633 69.2125 106.12 68.7314C106.276 68.2163 106.253 67.6672 106.278 67.1362C106.308 64.2635 106.086 61.3907 106.177 58.518C106.174 55.795 106.283 53.072 106.127 50.3513C103.353 50.846 100.577 51.3225 97.7786 51.647ZM92.5854 58.2411C88.9381 58.7903 85.2999 59.3939 81.6391 59.8454C80.47 60.0746 79.0527 60.061 78.2402 61.0776C78.2198 61.3272 78.204 61.5791 78.1905 61.8309C80.1067 61.6857 81.9957 61.3136 83.8825 60.955C88.2024 60.272 92.5538 59.8023 96.8465 58.9582C97.1692 58.9355 97.4446 58.7812 97.6522 58.5361C94.725 58.8175 91.8473 59.4892 88.9291 59.859C85.4624 60.4467 81.8874 60.5557 78.5403 61.6993C78.4478 61.5133 78.3553 61.3249 78.265 61.1388C79.1971 60.2493 80.549 60.3151 81.7339 60.1086C86.1846 59.5731 90.6128 58.8561 95.0319 58.1004C95.9008 57.9303 96.8036 57.9756 97.6612 57.7487C95.955 57.5468 94.2668 58.0142 92.5854 58.2411ZM42.7292 59.0104C43.4131 60.4853 43.4221 62.1554 43.5372 63.7506C43.7652 66.7981 43.6952 69.8569 43.5372 72.9044C43.8555 72.4846 44.1127 72.0036 44.1466 71.468C44.3971 67.5719 44.2436 63.6644 44.203 59.7637C43.6275 59.6957 43.1016 59.4665 42.7292 59.0104ZM83.5214 62.0034C81.6888 62.3211 79.7975 62.4708 78.0528 63.1493C78.3056 63.1992 78.5584 63.2106 78.8134 63.1856C83.9818 62.2689 89.1909 61.604 94.3684 60.7395C95.3885 60.6079 96.4019 60.4195 97.3994 60.1586C97.4152 60.0474 97.4514 59.825 97.4672 59.7138C92.8585 60.7032 88.1572 61.1638 83.5214 62.0034ZM39.2152 60.9278L39.2219 61.0889C39.0955 61.1456 38.8473 61.2568 38.7209 61.3113C39.4702 61.2999 40.2398 61.3068 40.9214 61.6607C41.1516 61.7447 41.3841 61.8241 41.6188 61.8967C41.4586 61.6607 41.2848 61.4384 41.12 61.2069C40.8492 61.1479 40.5761 61.1071 40.3007 61.0866L40.3278 60.8938C39.9554 60.9051 39.5853 60.9165 39.2152 60.9278ZM88.7034 62.5434C85.4692 63.1244 82.2079 63.5396 78.9759 64.1319C78.6442 64.1659 78.3733 64.3542 78.1386 64.5766C84.6409 63.5328 91.1635 62.5843 97.6612 61.4928C97.6635 61.3816 97.6703 61.1638 97.6748 61.0549C94.7091 61.6902 91.7006 62.0942 88.7034 62.5434ZM38.7299 62.287C37.9558 62.5661 37.6466 63.4307 37.4728 64.1659C37.1139 66.1174 37.4186 68.1369 38.0709 69.9931C38.4455 70.0657 38.8179 70.1542 39.1903 70.2518C38.9195 70.4356 38.6329 70.5876 38.3417 70.7306C38.5719 71.6133 38.9353 72.5572 39.7501 73.0496C40.47 73.4989 41.4337 73.1109 41.8896 72.4619C42.3636 71.7608 42.4471 70.8894 42.5103 70.068C42.5848 68.0734 42.6999 66.0516 42.2237 64.0933C42.0386 64.4722 41.989 64.9193 41.7452 65.271C41.4337 65.5705 41.0388 65.7588 40.6822 65.9948C40.7612 66.5848 40.707 67.3699 41.4202 67.5742C41.524 67.0727 41.594 66.5644 41.7046 66.0674C42.1041 66.5349 41.9912 67.2088 41.6865 67.6967C41.77 67.7943 41.9416 67.9917 42.0251 68.0915C41.5014 67.8896 40.9327 67.7149 40.54 67.2883C40.1879 66.5644 40.452 65.5977 41.111 65.1507C41.5804 64.8262 41.8784 64.3361 42.1853 63.8686C41.8896 63.2968 41.5624 62.5979 40.8718 62.4368C40.1744 62.2893 39.4341 62.0919 38.7299 62.287ZM94.4022 62.9882C89.0239 63.7302 83.6478 64.5108 78.3079 65.4979C78.2898 65.6045 78.2537 65.8156 78.2379 65.92C81.7768 65.2415 85.3405 64.6969 88.8998 64.1387C91.6668 63.703 94.4744 63.501 97.2099 62.8702C97.4784 62.8226 97.6861 62.641 97.8508 62.43C96.6772 62.4413 95.5623 62.8611 94.4022 62.9882ZM92.1114 64.5766C87.7216 65.1621 83.368 65.9971 79.0075 66.7709C78.7096 66.8072 78.4252 66.9002 78.177 67.0681C78.766 67.1317 79.3551 67.0409 79.9374 66.9433C82.7586 66.485 85.5865 66.0697 88.401 65.5705C91.4907 64.9987 94.6166 64.656 97.7019 64.0592C97.6996 63.9571 97.6951 63.7506 97.6928 63.6485C95.8444 64.0275 93.9779 64.2975 92.1114 64.5766ZM91.2018 65.9631C88.9517 66.376 86.715 66.8843 84.4378 67.1271C82.4178 67.4947 80.3324 67.531 78.362 68.1551C78.3192 68.3729 78.274 68.593 78.2266 68.8154C78.6803 68.4682 79.2264 68.2708 79.7862 68.1778C81.5534 67.8692 83.3296 67.6127 85.1103 67.3994C87.6223 67.0818 90.0892 66.5009 92.5899 66.1038C94.3187 65.8246 96.0453 65.5274 97.7718 65.2301C97.7786 65.1507 97.7944 64.9919 97.8034 64.9102C95.6029 65.2687 93.4069 65.6431 91.2018 65.9631ZM92.5718 66.9161C89.5859 67.5787 86.5683 68.0688 83.544 68.5249C82.1086 68.6883 80.6799 68.888 79.2603 69.1535C78.8473 69.276 78.4455 69.4349 78.1318 69.7367C78.2402 69.7049 78.4568 69.6391 78.5652 69.6073C78.933 69.5234 79.3054 69.4462 79.6711 69.3509C83.6478 68.9198 87.6065 68.3253 91.5291 67.522C93.6348 67.143 95.718 66.5825 97.8666 66.4804C97.8508 66.3329 97.8373 66.1854 97.8237 66.0402C96.0836 66.3965 94.3097 66.5394 92.5718 66.9161ZM90.2765 68.6656C87.2905 69.2306 84.2572 69.4939 81.2848 70.127C80.2872 70.1996 79.2874 70.254 78.2875 70.2835C78.2943 70.4083 78.3056 70.6557 78.3124 70.7782C78.3462 70.6874 78.4117 70.5014 78.4433 70.4083C79.231 70.4151 80.0186 70.3539 80.8063 70.3289C80.7973 70.5763 80.7747 71.0664 80.7634 71.3137C80.0705 71.5202 79.3641 71.6836 78.6532 71.8175C78.5922 71.8833 78.4749 72.0149 78.4139 72.0807C79.3754 71.8969 80.3369 71.7063 81.3051 71.5588C85.2525 71.1912 89.1277 70.3448 93.0209 69.6346C94.1314 69.4439 95.2576 69.1966 96.3883 69.3373C96.8939 69.4167 97.3994 69.3033 97.8599 69.0877C97.8125 68.8971 97.7673 68.7087 97.7222 68.5227C97.0925 68.6157 96.4809 68.8063 95.9189 69.1036C93.7928 69.1285 91.6984 69.6277 89.6039 69.9613C87.0445 70.5422 84.4287 70.7873 81.8423 71.1912C82.1063 70.8622 82.253 70.3335 82.7202 70.2313C84.1805 69.8615 85.6971 69.8115 87.1777 69.537C89.8951 69.1285 92.5944 68.618 95.3027 68.1551C95.7699 68.0756 96.192 67.8397 96.6456 67.708C97.1489 67.5946 97.6906 67.649 98.1713 67.4357C95.4878 67.3858 92.9149 68.3094 90.2765 68.6656ZM94.2645 70.0294C90.2562 70.8463 86.223 71.5293 82.2056 72.2917C80.9056 72.5958 79.5492 72.682 78.3011 73.1835C78.2853 72.9747 78.256 72.5572 78.2402 72.3485C78.2198 72.9475 78.2018 73.5466 78.1634 74.1456C82.2778 73.3401 86.4555 72.9044 90.5586 72.0376C93.0638 71.5701 95.5691 71.0936 98.0878 70.7079C98.0675 70.4605 98.0224 69.9681 97.9998 69.723C96.772 70.0362 95.4946 69.7525 94.2645 70.0294Z" fill="#F0B81B"/>
<path d="M25.5796 4.09214C29.8046 2.39027 34.4946 2.36077 38.9566 2.90083C41.4731 3.3592 44.0099 3.71319 46.5174 4.21467C46.4881 4.4847 46.4587 4.757 46.4249 5.0293C42.008 4.83415 37.4241 5.03383 33.3323 6.88546C32.9689 7.04431 32.5762 6.90135 32.2083 6.84235C29.7731 6.27733 27.3265 5.74181 24.9364 5.00661C25.1147 4.68439 25.1418 4.17836 25.5796 4.09214ZM26.9293 4.54597C28.5724 5.23579 30.3508 5.51263 32.0639 5.96873C33.1969 6.3681 34.2012 5.61474 35.2552 5.34017C38.0245 4.51874 40.9111 4.06037 43.8045 4.18971C42.2179 4.11937 40.6967 3.61561 39.1191 3.47946C37.2391 3.32516 35.3522 3.1822 33.4654 3.2707C31.2514 3.33878 28.9425 3.58158 26.9293 4.54597Z" fill="#F0B81B"/>
<path d="M52.4214 11.2241C56.739 10.5229 61.1107 10.144 65.487 10.1485C67.2609 10.1644 69.0123 10.5343 70.6937 11.0857C71.0391 11.1492 71.2128 11.451 71.3257 11.7551C70.046 11.628 68.8182 11.1878 67.5272 11.1402C64.9656 10.8656 62.3994 11.2287 59.8355 11.2604C58.1925 11.2536 56.5675 11.5826 54.9222 11.5305C56.4388 11.7438 57.8833 12.3247 59.4248 12.3882C59.664 12.4563 59.9055 12.5175 60.1493 12.5675C59.8243 12.2815 59.4564 12.0478 59.0998 11.8005C59.5309 11.8186 59.9642 11.8391 60.393 11.8799C60.4178 12.2498 60.4291 12.6219 60.4291 12.9918C59.7385 13.2255 58.9892 13.3344 58.2737 13.1484C56.3237 12.7081 54.4346 12.0229 52.4734 11.6303C52.4598 11.5282 52.4327 11.3262 52.4214 11.2241Z" fill="#F0B81B"/>
<path d="M84.6525 15.4448C87.8845 15.1771 91.1277 15.227 94.3664 15.134C94.3664 15.2225 94.371 15.3995 94.3732 15.488C93.9151 15.488 93.4614 15.4857 93.0078 15.5129C93.4321 15.5311 93.8586 15.5265 94.2875 15.5265C94.9149 15.8624 95.7206 15.7149 96.2781 16.2027C97.129 16.8585 97.0928 18.0703 96.9416 19.0301C96.7949 19.847 96.0659 20.4302 95.2579 20.4801C92.1998 20.8613 89.119 21.0202 86.0496 21.263C82.2263 21.685 78.3714 21.7145 74.5414 22.0322C74.3495 20.294 74.3608 18.5377 74.3631 16.7927C74.2322 16.8131 73.9703 16.8517 73.8394 16.8721C73.7176 18.5808 73.7559 20.3054 73.9117 22.0118C73.8733 22.3363 74.1825 22.6131 74.5052 22.5201C81.0572 22.064 87.6182 21.6782 94.1543 21.0088C94.9781 20.9044 95.8967 20.8545 96.5309 20.2396C97.3231 19.4567 97.3998 18.1973 97.1222 17.1739C96.8423 16.2459 95.9418 15.724 95.0255 15.6241C94.5763 15.4607 95.2241 15.2588 95.4069 15.2837C97.3637 15.4426 98.2529 17.8615 97.6074 19.5202C97.0725 20.6503 95.8312 21.2652 94.6305 21.3424C91.3015 21.6442 87.9951 22.1479 84.657 22.3522C79.8452 22.6857 75.0356 23.0352 70.2215 23.3029C68.4228 23.43 66.4299 23.9338 64.7936 22.9036C63.9224 22.4384 63.3243 21.3946 63.6448 20.4052C64.1797 18.8531 65.6399 17.8025 67.1566 17.3441C68.8561 16.8381 70.6346 16.6974 72.386 16.4818C76.4507 15.8919 80.5652 15.7898 84.6525 15.4448ZM81.9645 16.5204C82.4091 17.3351 82.5219 18.2427 82.4949 19.1617C82.1947 19.4771 81.9803 19.9582 81.5176 20.0444C81.1813 19.8334 81.2513 19.3796 81.1678 19.0437C81.0256 18.2404 80.757 17.4553 80.7638 16.6293C79.782 16.7065 78.798 16.7246 77.8207 16.8222C77.8094 16.9016 77.7891 17.0559 77.7801 17.1331C77.2046 17.3124 77.3941 17.9886 77.252 18.4265C76.8073 17.9681 76.5546 17.1444 75.7624 17.242C76.1912 17.8093 76.699 18.3131 77.1188 18.8872C77.4212 19.4249 77.0105 20.3598 77.7169 20.6231C77.6627 20.0217 77.3761 19.4363 77.5205 18.8282C77.7146 18.2019 77.9652 17.5869 78.2924 17.0174C78.9966 17.0923 79.7978 17.3623 80.3869 16.8109C80.4252 17.6505 80.8089 18.4288 80.8044 19.2729C80.8134 19.7426 80.9195 20.4302 81.5041 20.4688C82.1157 20.5141 82.373 19.8924 82.4926 19.4045C82.6032 19.7267 82.6844 20.0603 82.8469 20.3621C83.6753 20.4778 84.4449 19.9559 84.7947 19.2253C84.7992 18.456 84.8872 17.6595 84.639 16.9175C84.639 17.2261 84.6841 17.537 84.639 17.8456C84.2508 17.7889 83.9438 17.1444 83.5511 17.419C82.8357 17.7095 83.0636 18.8781 83.77 19.0006C84.1199 18.8508 84.2756 18.4401 84.5216 18.1633C84.5848 18.2087 84.7112 18.3017 84.7744 18.3471C84.8714 19.139 84.1379 20.0036 83.3299 19.8788C82.5513 18.9666 82.8018 17.6505 82.7364 16.5408C83.91 16.3593 85.0858 16.2186 86.273 16.171C84.8308 16.1801 83.3886 16.3026 81.9645 16.5204ZM85.5756 16.9924C85.2258 17.8002 85.2371 18.7283 85.2957 19.5906C85.3657 20.0989 86.0676 20.3371 86.3159 19.8334C86.4378 19.1958 86.4942 18.5422 86.5326 17.8933C86.6183 17.4349 86.1421 17.1331 86.1737 16.6883C86.5055 16.6657 86.9433 16.7814 86.9072 17.2034C86.9253 18.0476 86.7763 18.8826 86.6567 19.7131C86.9636 20.2441 87.731 20.5051 88.205 20.024C88.8098 19.4317 88.2366 18.5695 88.1869 17.866C88.1485 18.1588 88.1147 18.4492 88.0718 18.7419C88.0944 19.0732 88.1214 19.4068 88.1124 19.7404C87.8235 20.0989 87.0878 20.0739 87.1194 19.5134C87.2209 18.5127 87.1464 17.5098 87.0855 16.5091C86.5845 16.6316 85.9435 16.5749 85.5756 16.9924ZM89.1574 17.1966C88.7173 18.0226 88.9701 18.9938 88.9249 19.8856C89.0152 19.8697 89.198 19.8379 89.2906 19.822C89.3267 18.9098 88.8459 17.6573 89.7126 17.0151C89.9338 16.9311 90.726 16.6815 90.4958 17.1671C89.532 17.5688 89.7284 18.7102 89.7013 19.5543C90.015 19.8016 90.4371 20.0535 90.814 19.7653C91.5317 19.2116 91.2812 18.1451 90.9539 17.4349C90.9133 17.3033 90.8298 17.0423 90.7892 16.9107C90.243 16.8653 89.5433 16.6747 89.1574 17.1966ZM78.8251 18.1429C78.491 18.5059 78.0599 18.9189 78.1615 19.4681C78.4978 20.4007 79.861 20.8795 80.4997 19.9559C79.9874 19.9968 79.387 20.2282 78.9988 19.7585C78.3714 19.3614 78.9266 18.1315 79.606 18.4242C79.6534 18.7941 79.6872 19.164 79.703 19.5361C80.3575 19.071 80.0596 18.2246 79.5947 17.7458C79.2584 17.6278 79.0417 17.9477 78.8251 18.1429ZM81.2851 18.5354C81.5266 18.5695 81.7726 18.608 82.0186 18.6149C82.066 18.3652 82.0999 18.1156 82.1225 17.8638C81.8133 18.0476 81.5334 18.2768 81.2851 18.5354Z" fill="#F0B81B"/>
<path d="M86.0829 19.688C85.0244 19.1457 85.2049 17.5187 86.2025 16.9968C86.1573 17.8931 86.1054 18.7895 86.0829 19.688Z" fill="#F0B81B"/>
<path d="M83.3176 17.9112C83.5049 17.8454 83.6945 17.7955 83.8886 17.7569C83.9789 18.0201 83.9901 18.2901 83.9247 18.567C83.7125 18.3582 83.5026 18.1449 83.3176 17.9112Z" fill="#F0B81B"/>
<path d="M89.7963 18.7918C89.9136 18.3584 90.18 17.4167 90.7668 17.8478C90.9112 18.4741 91.0037 19.2978 90.3154 19.6337C90.0897 19.3863 89.8166 19.1526 89.7963 18.7918Z" fill="#F0B81B"/>
<path d="M34.1595 19.9172C34.0985 19.3772 34.6109 19.0595 34.9065 18.6851C37.1386 19.418 39.355 20.1986 41.5871 20.9338C42.1671 21.1698 42.8939 21.3513 43.1918 21.9685C43.2753 23.4049 43.1376 24.8458 43.1895 26.2822C43.3272 31.5761 43.2144 36.8746 43.2437 42.1685C43.2572 42.5861 43.2392 43.0444 42.9435 43.3712C42.4628 43.4801 41.9888 43.3077 41.5442 43.142C39.5604 42.3296 37.6036 41.4401 35.5859 40.714C35.0464 40.503 34.4055 40.4122 34.0128 39.9448C34.0827 39.4024 34.1911 38.8646 34.173 38.3155C34.2227 32.1843 34.1843 26.0507 34.1595 19.9172ZM35.0442 21.0699C35.0464 23.9676 35.0103 26.8699 35.0893 29.7631C35.1999 29.8334 35.4234 29.9696 35.5339 30.0399C35.3805 27.0537 35.4843 24.063 35.3895 21.0767C35.3105 20.6683 35.6964 19.9444 36.123 20.4164C36.1546 20.4981 36.2223 20.666 36.2562 20.7477C36.2088 23.8292 36.2494 26.9107 36.272 29.9923C38.3958 30.8182 40.5828 31.4808 42.6885 32.3544C42.6163 29.0801 42.7065 25.8011 42.5937 22.5313C40.251 21.3899 37.5562 21.1289 35.3173 19.7561C35.1119 20.1645 35.0216 20.6138 35.0442 21.0699ZM35.297 31.0883C35.1367 33.4913 35.06 35.9011 35.148 38.3064C35.1503 38.556 35.4188 38.6786 35.552 38.8624C35.6626 36.296 35.4843 33.7159 35.7574 31.1586C35.6423 31.1404 35.4121 31.1064 35.297 31.0883ZM36.3058 31.4059C36.4616 32.7175 36.3848 34.0382 36.3938 35.3543C36.3758 36.5138 36.4661 37.6824 36.2652 38.8329C38.4116 39.6906 40.5624 40.5484 42.6659 41.5105C42.6637 38.9509 42.6411 36.3913 42.6321 33.8317C40.515 33.0488 38.398 32.2569 36.3058 31.4059ZM34.2136 39.2391C35.4572 40.006 36.8926 40.3668 38.2152 40.9727C39.5897 41.515 40.8762 42.3206 42.3251 42.6541C39.7296 41.2926 37.0145 40.115 34.2136 39.2391Z" fill="#F0B81B"/>
<path d="M2.92891 30.1827C3.37804 30.3007 3.29228 30.741 3.29002 31.1063C3.18169 31.1108 2.96276 31.1199 2.85217 31.1267C2.87249 30.8113 2.89731 30.4959 2.92891 30.1827Z" fill="#F0B81B"/>
<path d="M4.28945 32.0005C4.42713 32.1593 4.56706 32.3182 4.70473 32.477C4.57157 32.5927 4.4339 32.7017 4.29171 32.806C3.9464 32.9286 3.80872 32.5224 3.61688 32.3272C3.77036 32.3295 4.0773 32.3318 4.22852 32.3318L4.28945 32.0005Z" fill="#F0B81B"/>
<path d="M11.5403 48.3364C12.0075 47.7192 12.5853 47.1111 13.391 46.9999C13.8198 47.0271 14.0613 47.4288 14.3434 47.701C14.0839 47.8758 13.8243 48.0505 13.5603 48.2207C13.5264 48.7063 13.7318 49.1102 14.12 49.4075C14.0545 48.9559 14.2103 48.6314 14.6301 48.5157C14.5443 48.9945 14.3683 49.4506 14.2351 49.918C14.7519 49.8817 15.2349 49.9521 15.3139 50.5443C15.1582 50.5057 14.8445 50.4286 14.6865 50.39C13.7408 50.5488 13.7295 49.4006 13.2172 48.906C13.3255 48.7426 13.4339 48.5815 13.5422 48.4226C13.3165 48.223 13.0908 48.0278 12.8629 47.8327C12.671 48.0528 12.4972 48.291 12.3144 48.5225C12.3979 48.6337 12.5649 48.856 12.6485 48.9672C12.5018 49.3212 12.5333 49.6616 12.741 49.9884C12.6507 50.0995 12.4724 50.3197 12.3821 50.4308C11.942 50.0519 11.3011 49.7456 11.4568 49.0421C11.7254 49.1125 12.2625 49.2531 12.5311 49.3235C12.2715 48.9241 11.924 48.6087 11.5403 48.3364Z" fill="#F0B81B"/>
<path d="M12.9298 49.8704C12.7696 49.6435 12.8124 49.4711 13.0539 49.3553C13.7423 49.2963 13.5098 50.2834 12.9298 49.8704Z" fill="#F0B81B"/>
<path d="M13.1555 50.2195C13.4151 50.3557 13.6836 50.4714 13.9613 50.5667C13.9251 50.7301 13.8529 51.0569 13.8168 51.218C13.4647 51.1839 13.1104 51.1658 12.756 51.1544C12.8034 50.9638 12.8982 50.5826 12.9456 50.392C13.0178 50.4941 13.1668 50.6961 13.239 50.7959C13.2187 50.653 13.1758 50.3648 13.1555 50.2195Z" fill="#F0B81B"/>
<path d="M12.5074 51.3833C12.952 51.3651 13.3989 51.356 13.8435 51.3538C13.7758 51.6261 13.7239 51.9052 13.593 52.1593C13.1777 51.9869 12.8053 51.7214 12.5074 51.3833Z" fill="#F0B81B"/>
<path d="M102.137 53.614C102.742 53.0649 104.051 53.5868 103.965 54.4354C103.787 55.0027 103.331 55.5927 102.71 55.6721C101.659 55.8582 101.214 54.0724 102.137 53.614Z" fill="#F0B81B"/>
<path d="M32.1483 55.0574C32.1595 54.9802 32.1799 54.8282 32.1911 54.751C32.7825 55.1028 33.4031 55.4204 33.938 55.8629C33.279 55.7517 32.7012 55.4159 32.1483 55.0574Z" fill="#F0B81B"/>
<path d="M101.922 61.3974C103.41 60.8573 105.267 61.9352 105.538 63.5145C105.764 64.8374 105.114 66.3691 103.811 66.8615C102.647 67.4424 100.95 67.0998 100.444 65.795C99.9385 64.2247 100.577 62.3391 101.922 61.3974ZM101.518 62.4979C100.945 63.2082 100.521 64.1725 100.812 65.0916C101.123 65.8721 101.909 66.3305 102.685 66.5325C103.166 66.3963 103.705 66.3509 104.096 66.006C104.883 65.3888 105.071 64.2134 104.703 63.3125C104.398 62.5274 103.611 62.0486 102.83 61.858C102.304 61.7332 101.832 62.119 101.518 62.4979Z" fill="#F0B81B"/>
<path d="M102.091 62.4023C102.841 61.6308 104.132 62.3796 104.378 63.2714C104.545 64.052 104.64 64.9528 104.168 65.654C103.841 66.1169 103.24 66.2099 102.735 66.3529C102.593 66.2757 102.31 66.1169 102.17 66.0398L102.177 65.974C101.633 65.62 101.028 65.1412 101.022 64.4241C101.015 63.6254 101.523 62.9151 102.091 62.4023ZM101.64 64.1972C101.387 65.1979 102.423 66.2031 103.396 65.7879C103.116 65.6063 102.841 65.4248 102.563 65.2478C102.502 64.524 102.484 63.7615 102.85 63.1057C102.762 63.7298 102.606 64.465 103.035 65.005C103.267 65.2342 103.522 65.2592 103.802 65.0844C103.895 64.229 103.651 63.3962 103.186 62.6837C102.342 62.509 101.769 63.487 101.64 64.1972Z" fill="#F0B81B"/>
<path d="M38.3727 63.0043C38.5826 62.7547 39.0408 62.6049 39.3003 62.8614C39.7043 63.0792 39.4087 63.592 39.3996 63.9279C39.508 64.0867 39.6186 64.2455 39.7292 64.4044C39.8555 64.089 39.9865 63.7781 40.1264 63.4695C40.3047 64.148 40.3205 64.9535 39.693 65.4051C39.684 64.9581 39.5892 64.5292 39.3748 64.1389C39.2213 64.4974 39.0521 64.8537 38.8602 65.1963C38.7203 64.7289 38.5759 64.2614 38.3863 63.8121C38.1538 64.3431 38.1312 64.9762 37.7047 65.4074C37.5399 64.5428 37.8807 63.6941 38.3727 63.0043Z" fill="#F0B81B"/>
<path d="M40.4647 62.8267C40.6068 62.3162 41.0808 62.9561 41.2411 63.1376C41.6157 63.7616 41.2591 64.4741 40.7581 64.8939C40.7874 64.1882 40.6272 63.5075 40.4647 62.8267Z" fill="#F0B81B"/>
<path d="M37.3525 66.1537C37.7565 65.8905 38.1876 65.6726 38.6277 65.4775C38.946 65.6635 39.2664 65.8496 39.5847 66.0357C39.6185 66.5122 39.5192 67.0772 39.9006 67.4471C40.4288 67.8919 41.0517 68.1959 41.6362 68.5567C41.1916 68.7473 40.6951 69.099 40.2098 69.0015C39.5215 68.2118 39.3793 67.084 38.815 66.2036C38.2869 66.7596 38.147 67.5333 37.8739 68.2232C37.7137 67.5288 37.5557 66.8367 37.3525 66.1537Z" fill="#F0B81B"/>
<path d="M69.6555 65.6864C70.4341 65.2893 71.4565 65.3097 72.1359 65.9065C73.964 67.4654 73.7067 70.8578 71.5739 72.0264C69.5404 73.043 67.1141 70.8169 67.4324 68.7021C67.7167 67.454 68.4457 66.2151 69.6555 65.6864ZM69.8609 66.2831C69.3214 66.8187 68.8543 67.4563 68.5924 68.1756C68.2426 69.1967 68.8407 70.5945 69.9827 70.7307C70.6801 70.7852 71.6551 70.8419 71.9982 70.0726C72.5263 69.0561 72.3435 67.4722 71.3437 66.855C71.5175 67.7672 72.0727 68.6385 71.926 69.6097C71.9711 69.9955 71.5603 70.1816 71.2579 70.261C70.5583 70.4629 69.669 70.4198 69.2109 69.7731C68.7775 69.2353 68.9378 68.5069 69.2131 67.9396C69.9489 67.7831 70.653 68.0417 71.3617 68.2006C71.118 67.6968 70.8404 67.2158 70.5944 66.7166C70.3529 66.9412 70.1114 67.1636 69.8947 67.4132C69.748 67.3542 69.4569 67.2339 69.3102 67.1749C69.581 66.8867 69.8631 66.6099 70.161 66.3512C70.4748 66.3853 70.7907 66.4057 71.1067 66.4125C71.0051 66.0993 70.1881 65.9587 69.8609 66.2831ZM69.4772 69.4668C69.7706 69.9637 70.4116 69.9932 70.9216 69.9093C71.4701 69.7345 71.2331 69.081 71.2918 68.6612C70.705 68.4797 70.1159 68.2868 69.4952 68.3004C69.3982 68.6726 69.2176 69.1151 69.4772 69.4668Z" fill="#F0B81B"/>
<path d="M38.4967 67.9549C38.666 68.4223 39.1332 69.364 38.4177 69.5047C37.8287 69.1644 38.3117 68.4133 38.4967 67.9549Z" fill="#F0B81B"/>
<path d="M38.5155 69.6707C38.7751 69.4532 38.933 69.4963 38.9849 69.8043C38.7277 70.0195 38.5697 69.9765 38.5155 69.6707Z" fill="#F0B81B"/>
<path d="M39.3146 70.6443C39.0866 70.1473 39.371 69.7207 39.7231 69.394C39.7818 69.9703 39.6577 70.5808 39.8608 71.139C40.4995 71.3386 41.3752 71.1571 41.3729 70.3085C41.4903 70.4923 41.6077 70.6783 41.7273 70.8644C41.4948 71.4612 41.1676 72.21 40.4498 72.3076C39.6464 72.4074 39.1837 71.5724 38.8474 70.9824C39.0031 70.8712 39.1589 70.7577 39.3146 70.6443Z" fill="#F0B81B"/>
<path d="M40.3033 69.723C40.8631 69.6118 41.4341 69.5846 42.0006 69.5142C41.9554 69.7729 41.8674 70.288 41.8223 70.5467C41.5582 70.2585 41.2919 69.9703 41.0256 69.6867C40.9759 70.0384 40.9872 70.4083 40.8698 70.7509C40.6577 70.9438 40.3575 70.9075 40.098 70.9551C40.1296 70.5399 40.1566 70.1178 40.3033 69.723Z" fill="#F0B81B"/>
<path d="M6.92732 85.0917C7.20267 85.373 7.36066 85.7316 7.48479 86.0992C7.33809 86.1809 7.04469 86.342 6.89798 86.4237H5.83044C6.2051 86.3102 6.57073 86.165 6.93635 86.0288C6.9341 85.7951 6.92958 85.3254 6.92732 85.0917Z" fill="#F0B81B"/>
<path d="M11.1432 85.3254C11.2967 85.314 11.6059 85.2868 11.7617 85.2732C11.7301 85.4638 11.6714 85.845 11.642 86.0356C11.7233 86.1332 11.8858 86.3261 11.967 86.4237H11.1997C11.1839 86.0561 11.159 85.6907 11.1432 85.3254Z" fill="#F0B81B"/>
</svg>
