<svg width="223" height="209" viewBox="0 0 223 209" fill="none" xmlns="http://www.w3.org/2000/svg">
<path d="M40.4141 154V61.75H75.9141C84.5391 61.75 91.2057 62.625 95.9141 64.375C100.664 66.125 103.956 68.7917 105.789 72.375C107.664 75.9167 108.602 80.4583 108.602 86C108.602 91.0417 107.685 95.1042 105.852 98.1875C104.018 101.229 100.185 103.25 94.3516 104.25V103.5C99.3099 103.833 103.102 104.979 105.727 106.938C108.352 108.854 110.143 111.438 111.102 114.688C112.06 117.938 112.539 121.708 112.539 126C112.539 135.667 110.039 142.75 105.039 147.25C100.081 151.75 91.8724 154 80.4141 154H40.4141ZM58.9766 141H76.9766C81.8099 141 85.4349 140.604 87.8516 139.812C90.3099 139.021 91.9557 137.521 92.7891 135.312C93.6224 133.062 94.0391 129.812 94.0391 125.562C94.0391 122.479 93.7266 119.792 93.1016 117.5C92.5182 115.167 91.1432 113.354 88.9766 112.062C86.8516 110.729 83.4766 110.062 78.8516 110.062H58.9766V141ZM58.9766 98.875H78.1641C81.7891 98.875 84.3932 98.3958 85.9766 97.4375C87.6016 96.4792 88.6224 95.0625 89.0391 93.1875C89.4557 91.2708 89.6641 88.9375 89.6641 86.1875C89.6641 82.9375 89.2891 80.4792 88.5391 78.8125C87.7891 77.1042 86.3516 75.9583 84.2266 75.375C82.1016 74.75 78.9349 74.4375 74.7266 74.4375H58.9766V98.875Z" fill="white"/>
<path d="M40.4141 154V61.75H75.9141C84.5391 61.75 91.2057 62.625 95.9141 64.375C100.664 66.125 103.956 68.7917 105.789 72.375C107.664 75.9167 108.602 80.4583 108.602 86C108.602 91.0417 107.685 95.1042 105.852 98.1875C104.018 101.229 100.185 103.25 94.3516 104.25V103.5C99.3099 103.833 103.102 104.979 105.727 106.938C108.352 108.854 110.143 111.438 111.102 114.688C112.06 117.938 112.539 121.708 112.539 126C112.539 135.667 110.039 142.75 105.039 147.25C100.081 151.75 91.8724 154 80.4141 154H40.4141ZM58.9766 141H76.9766C81.8099 141 85.4349 140.604 87.8516 139.812C90.3099 139.021 91.9557 137.521 92.7891 135.312C93.6224 133.062 94.0391 129.812 94.0391 125.562C94.0391 122.479 93.7266 119.792 93.1016 117.5C92.5182 115.167 91.1432 113.354 88.9766 112.062C86.8516 110.729 83.4766 110.062 78.8516 110.062H58.9766V141ZM58.9766 98.875H78.1641C81.7891 98.875 84.3932 98.3958 85.9766 97.4375C87.6016 96.4792 88.6224 95.0625 89.0391 93.1875C89.4557 91.2708 89.6641 88.9375 89.6641 86.1875C89.6641 82.9375 89.2891 80.4792 88.5391 78.8125C87.7891 77.1042 86.3516 75.9583 84.2266 75.375C82.1016 74.75 78.9349 74.4375 74.7266 74.4375H58.9766V98.875Z" fill="#0D00FF" fill-opacity="0.84"/>
<path d="M124.383 140.875V124.508C124.383 120.237 125.997 116.943 129.227 114.625C132.482 112.307 136.831 111.148 142.273 111.148C148.732 111.148 153.315 112.385 156.023 114.859C158.758 117.333 160.125 120.68 160.125 124.898V135.055H135.008V141.891C135.008 144.365 135.646 145.927 136.922 146.578C138.198 147.203 140.099 147.516 142.625 147.516C144.656 147.516 146.219 147.346 147.312 147.008C148.406 146.643 149.161 146.005 149.578 145.094C150.021 144.156 150.242 142.828 150.242 141.109H160.086C160.086 144.573 159.435 147.307 158.133 149.312C156.857 151.318 154.904 152.75 152.273 153.609C149.669 154.469 146.388 154.898 142.43 154.898C139.018 154.898 135.945 154.482 133.211 153.648C130.477 152.789 128.315 151.344 126.727 149.312C125.164 147.281 124.383 144.469 124.383 140.875ZM150.086 128.57V123.648C150.086 122.086 149.747 120.953 149.07 120.25C148.419 119.521 147.521 119.065 146.375 118.883C145.255 118.674 143.979 118.57 142.547 118.57C140.411 118.57 138.615 118.896 137.156 119.547C135.724 120.172 135.008 121.604 135.008 123.844V128.57H150.086Z" fill="white"/>
<path d="M124.383 140.875V124.508C124.383 120.237 125.997 116.943 129.227 114.625C132.482 112.307 136.831 111.148 142.273 111.148C148.732 111.148 153.315 112.385 156.023 114.859C158.758 117.333 160.125 120.68 160.125 124.898V135.055H135.008V141.891C135.008 144.365 135.646 145.927 136.922 146.578C138.198 147.203 140.099 147.516 142.625 147.516C144.656 147.516 146.219 147.346 147.312 147.008C148.406 146.643 149.161 146.005 149.578 145.094C150.021 144.156 150.242 142.828 150.242 141.109H160.086C160.086 144.573 159.435 147.307 158.133 149.312C156.857 151.318 154.904 152.75 152.273 153.609C149.669 154.469 146.388 154.898 142.43 154.898C139.018 154.898 135.945 154.482 133.211 153.648C130.477 152.789 128.315 151.344 126.727 149.312C125.164 147.281 124.383 144.469 124.383 140.875ZM150.086 128.57V123.648C150.086 122.086 149.747 120.953 149.07 120.25C148.419 119.521 147.521 119.065 146.375 118.883C145.255 118.674 143.979 118.57 142.547 118.57C140.411 118.57 138.615 118.896 137.156 119.547C135.724 120.172 135.008 121.604 135.008 123.844V128.57H150.086Z" fill="#A5A5A5" fill-opacity="0.88"/>
<path d="M173.641 142.906H185.281V154H173.641V142.906Z" fill="white"/>
<path d="M173.641 142.906H185.281V154H173.641V142.906Z" fill="#838383" fill-opacity="0.74"/>
</svg>
