<svg width="30" height="30" viewBox="0 0 30 30" fill="none" xmlns="http://www.w3.org/2000/svg">
<path d="M12.1532 8.40838C13.4198 6.13613 14.0531 5 15 5C15.9469 5 16.5802 6.13612 17.8468 8.40837L18.1745 8.99623C18.5345 9.64193 18.7144 9.96479 18.9951 10.1778C19.2757 10.3908 19.6251 10.4699 20.3241 10.628L20.9605 10.772C23.4201 11.3286 24.65 11.6068 24.9426 12.5477C25.2352 13.4886 24.3968 14.4691 22.7199 16.4299L22.2861 16.9372C21.8096 17.4944 21.5713 17.773 21.4641 18.1177C21.357 18.4624 21.393 18.8341 21.465 19.5776L21.5306 20.2544C21.7841 22.8706 21.9109 24.1787 21.1449 24.7602C20.3788 25.3417 19.2273 24.8115 16.9243 23.7512L16.3285 23.4768C15.6741 23.1755 15.3469 23.0248 15 23.0248C14.6531 23.0248 14.3259 23.1755 13.6715 23.4768L13.0757 23.7512C10.7727 24.8115 9.62118 25.3417 8.85515 24.7602C8.08912 24.1787 8.21588 22.8706 8.4694 20.2544L8.53498 19.5776C8.60703 18.8341 8.64305 18.4624 8.53586 18.1177C8.42868 17.773 8.19043 17.4944 7.71392 16.9372L7.2801 16.4299C5.60325 14.4691 4.76482 13.4886 5.05742 12.5477C5.35002 11.6068 6.57986 11.3286 9.03954 10.772L9.67589 10.628C10.3749 10.4699 10.7243 10.3908 11.0049 10.1778C11.2856 9.96479 11.4655 9.64194 11.8255 8.99623L12.1532 8.40838Z" fill="white"/>
</svg>
