<svg width="100" height="100" viewBox="0 0 100 100" fill="none" xmlns="http://www.w3.org/2000/svg">
<path d="M46.3318 50.512L47.4198 48.016C51.1318 48.1013 54.1825 48.6773 56.5718 49.744C59.0038 50.768 60.8172 52.2187 62.0118 54.096C63.2065 55.9307 63.8038 58.064 63.8038 60.496C63.8038 63.0987 63.2065 65.424 62.0118 67.472C60.8172 69.4773 59.0252 71.0773 56.6358 72.272C54.2892 73.424 51.3452 74 47.8038 74H12.3478L16.0598 49.36L12.3478 26H46.5238C50.9612 26 54.4172 27.0453 56.8918 29.136C59.3665 31.184 60.6038 34.0427 60.6038 37.712C60.6038 39.7173 60.1345 41.6373 59.1958 43.472C58.2572 45.3067 56.7425 46.864 54.6518 48.144C52.6038 49.3813 49.8305 50.1707 46.3318 50.512ZM25.4678 70.928L20.3478 64.72H44.2198C46.1398 64.72 47.6332 64.2507 48.6998 63.312C49.7665 62.3733 50.2998 61.072 50.2998 59.408C50.2998 57.744 49.7238 56.4213 48.5718 55.44C47.4198 54.416 45.7132 53.904 43.4518 53.904H23.7398V44.816H41.6598C43.1958 44.816 44.4758 44.368 45.4998 43.472C46.5665 42.5333 47.0998 41.2747 47.0998 39.696C47.0998 38.416 46.6518 37.3707 45.7558 36.56C44.8598 35.7067 43.5798 35.28 41.9158 35.28H20.4118L25.4678 29.072L28.7318 49.36L25.4678 70.928ZM75.2238 74.384C73.5598 74.384 72.0718 74.08 70.7598 73.472C69.4638 72.864 68.4398 72.016 67.6878 70.928C66.9358 69.824 66.5598 68.544 66.5598 67.088C66.5598 65.664 66.9198 64.416 67.6398 63.344C68.3598 62.256 69.3438 61.408 70.5918 60.8C71.8558 60.192 73.2798 59.888 74.8638 59.888C76.5118 59.888 77.9118 60.248 79.0638 60.968C80.2318 61.672 81.1278 62.672 81.7518 63.968C82.3918 65.264 82.7118 66.792 82.7118 68.552H70.5198V65.6H79.9518L78.3438 66.632C78.2798 65.928 78.1038 65.336 77.8158 64.856C77.5278 64.36 77.1438 63.984 76.6638 63.728C76.1998 63.472 75.6398 63.344 74.9838 63.344C74.2638 63.344 73.6478 63.488 73.1358 63.776C72.6238 64.064 72.2238 64.464 71.9358 64.976C71.6478 65.472 71.5038 66.056 71.5038 66.728C71.5038 67.592 71.6958 68.328 72.0798 68.936C72.4798 69.528 73.0558 69.984 73.8078 70.304C74.5758 70.624 75.5118 70.784 76.6158 70.784C77.6238 70.784 78.6238 70.656 79.6158 70.4C80.6238 70.128 81.5358 69.752 82.3518 69.272V72.392C81.4078 73.032 80.3278 73.528 79.1118 73.88C77.9118 74.216 76.6158 74.384 75.2238 74.384ZM87.0648 74.24C86.5528 74.24 86.0808 74.12 85.6488 73.88C85.2328 73.64 84.9048 73.312 84.6648 72.896C84.4248 72.464 84.3048 71.992 84.3048 71.48C84.3048 70.968 84.4248 70.504 84.6648 70.088C84.9048 69.672 85.2328 69.344 85.6488 69.104C86.0808 68.848 86.5528 68.72 87.0648 68.72C87.5928 68.72 88.0648 68.848 88.4808 69.104C88.8968 69.344 89.2248 69.672 89.4648 70.088C89.7048 70.504 89.8248 70.968 89.8248 71.48C89.8248 71.992 89.7048 72.464 89.4648 72.896C89.2248 73.312 88.8968 73.64 88.4808 73.88C88.0648 74.12 87.5928 74.24 87.0648 74.24Z" fill="#16005E"/>
</svg>
