<svg width="18" height="18" viewBox="0 0 18 18" fill="none" xmlns="http://www.w3.org/2000/svg">
<path fill-rule="evenodd" clip-rule="evenodd" d="M17.5999 4.99999C17.5999 2.45948 15.5404 0.399994 12.9999 0.399994C10.4594 0.399994 8.39988 2.45948 8.39988 4.99999C8.39988 5.73477 8.5726 6.43092 8.8802 7.04849C8.88709 7.06231 8.88977 7.07343 8.89061 7.08016C8.891 7.08331 8.89096 7.08518 8.89091 7.08595L8.65288 7.97557C8.43012 8.8081 9.19177 9.56976 10.0243 9.347L10.9139 9.10897C10.9128 9.10926 10.9132 9.10902 10.9139 9.10897C10.9147 9.10892 10.9166 9.10888 10.9197 9.10927C10.9264 9.1101 10.9376 9.11279 10.9514 9.11968C11.569 9.42727 12.2651 9.59999 12.9999 9.59999C15.5404 9.59999 17.5999 7.5405 17.5999 4.99999ZM10.9147 9.10876L10.9139 9.10897L10.9147 9.10876ZM12.9999 1.59999C14.8777 1.59999 16.3999 3.12223 16.3999 4.99999C16.3999 6.87776 14.8777 8.39999 12.9999 8.39999C12.4549 8.39999 11.9415 8.27222 11.4864 8.04554C11.231 7.91833 10.9181 7.86564 10.6046 7.94953L9.84788 8.15199L10.0503 7.39532C10.1342 7.08178 10.0815 6.76887 9.95434 6.51348C9.72766 6.05837 9.59988 5.54497 9.59988 4.99999C9.59988 3.12223 11.1221 1.59999 12.9999 1.59999Z" fill="#9197B3"/>
<path fill-rule="evenodd" clip-rule="evenodd" d="M1.80586 4.52551C3.14992 3.18146 5.41803 3.28363 6.35388 4.96053L6.8731 5.89088C7.48423 6.98593 7.2238 8.3676 6.32916 9.27317C6.31724 9.2895 6.25409 9.38144 6.24623 9.54209C6.23619 9.74715 6.30902 10.2214 7.04376 10.9561C7.77826 11.6906 8.25242 11.7636 8.45756 11.7536C8.61834 11.7458 8.71036 11.6826 8.72671 11.6707C9.63229 10.7761 11.0139 10.5156 12.109 11.1268L13.0393 11.646C14.7162 12.5818 14.8184 14.85 13.4744 16.194C12.7554 16.9129 11.7995 17.5517 10.6761 17.5943C9.0114 17.6574 6.24721 17.2275 3.50978 14.4901C0.772353 11.7527 0.342444 8.98848 0.405554 7.32373C0.44814 6.20038 1.08694 5.24444 1.80586 4.52551ZM5.30602 5.54533C4.82681 4.68665 3.53905 4.48938 2.65439 5.37404C2.03411 5.99432 1.63086 6.67897 1.60469 7.36919C1.55206 8.75747 1.89482 11.1781 4.35831 13.6416C6.8218 16.1051 9.24241 16.4478 10.6307 16.3952C11.3209 16.369 12.0056 15.9658 12.6258 15.3455C13.5105 14.4608 13.3132 13.1731 12.4545 12.6939L11.5242 12.1746C10.9455 11.8517 10.1326 11.9618 9.56193 12.5325C9.50587 12.5885 9.14904 12.9214 8.51587 12.9522C7.86769 12.9838 7.0831 12.6925 6.19523 11.8046C5.30706 10.9165 5.01592 10.1317 5.04766 9.48341C5.07867 8.8502 5.41165 8.49372 5.46736 8.43799C6.03801 7.86734 6.14822 7.0544 5.82523 6.47567L5.30602 5.54533Z" fill="#9197B3"/>
</svg>
