<svg width="44" height="44" viewBox="0 0 44 44" fill="none" xmlns="http://www.w3.org/2000/svg">
<rect width="44" height="44" rx="5" fill="#0E76A8"/>
<g clip-path="url(#clip0_20_679)">
<path d="M31.995 32V31.9992H32V24.6642C32 21.0759 31.2275 18.3117 27.0324 18.3117C25.0158 18.3117 23.6624 19.4184 23.1099 20.4675H23.0516V18.6467H19.0741V31.9992H23.2158V25.3875C23.2158 23.6467 23.5458 21.9634 25.7016 21.9634C27.8258 21.9634 27.8574 23.95 27.8574 25.4992V32H31.995Z" fill="white"/>
<path d="M12.33 18.6475H16.4766V32H12.33V18.6475Z" fill="white"/>
<path d="M14.4017 12C13.0758 12 12 13.0758 12 14.4017C12 15.7275 13.0758 16.8258 14.4017 16.8258C15.7275 16.8258 16.8033 15.7275 16.8033 14.4017C16.8025 13.0758 15.7267 12 14.4017 12V12Z" fill="white"/>
</g>
<defs>
<clipPath id="clip0_20_679">
<rect width="20" height="20" fill="white" transform="translate(12 12)"/>
</clipPath>
</defs>
</svg>
