<svg width="16" height="16" viewBox="0 0 16 16" fill="none" xmlns="http://www.w3.org/2000/svg">
<path fill-rule="evenodd" clip-rule="evenodd" d="M5.86611 2.7998C3.87789 2.7998 2.26611 4.41158 2.26611 6.3998C2.26611 7.32157 2.61307 8.16326 3.18288 8.7999C3.33021 8.96451 3.58309 8.97852 3.7477 8.83119C3.91231 8.68386 3.92632 8.43098 3.77899 8.26637C3.33538 7.77073 3.06611 7.11719 3.06611 6.3998C3.06611 4.85341 4.31972 3.5998 5.86611 3.5998H7.99944C9.54584 3.5998 10.7994 4.85341 10.7994 6.3998C10.7994 7.9462 9.54584 9.1998 7.99944 9.1998H6.93278C6.71186 9.1998 6.53278 9.37889 6.53278 9.5998C6.53278 9.82072 6.71186 9.9998 6.93278 9.9998H7.99944C9.98767 9.9998 11.5994 8.38803 11.5994 6.3998C11.5994 4.41158 9.98767 2.7998 7.99944 2.7998H5.86611Z" fill="#413B89"/>
<path d="M5.1977 9.59878C5.1977 8.05238 6.45131 6.79878 7.9977 6.79878H9.06437C9.28528 6.79878 9.46437 6.61969 9.46437 6.39878C9.46437 6.17787 9.28528 5.99878 9.06437 5.99878H7.9977C6.00948 5.99878 4.39771 7.61055 4.39771 9.59878C4.39771 11.587 6.00948 13.1988 7.9977 13.1988H10.131C12.1193 13.1988 13.731 11.587 13.731 9.59878C13.731 8.67701 13.3841 7.83532 12.8143 7.19868C12.6669 7.03407 12.4141 7.02006 12.2495 7.16739C12.0848 7.31472 12.0708 7.5676 12.2182 7.73221C12.6618 8.22785 12.931 8.88139 12.931 9.59878C12.931 11.1452 11.6774 12.3988 10.131 12.3988H7.9977C6.45131 12.3988 5.1977 11.1452 5.1977 9.59878Z" fill="#FFEDDE"/>
</svg>
