<svg width="54" height="54" viewBox="0 0 54 54" fill="none" xmlns="http://www.w3.org/2000/svg">
<path opacity="0.5" d="M23.9961 13.0537C26.364 10.2204 27.548 8.80377 28.909 9.02197C30.27 9.24017 30.9067 10.9487 32.1801 14.3657L32.5096 15.2497C32.8715 16.2208 33.0524 16.7063 33.4044 17.0639C33.7565 17.4215 34.2398 17.6108 35.2064 17.9894L36.0864 18.3341C39.4879 19.6663 41.1886 20.3324 41.3826 21.6939C41.5766 23.0555 40.1353 24.2107 37.2528 26.5211L36.507 27.1189C35.6879 27.7754 35.2783 28.1037 35.0413 28.5531C34.8042 29.0024 34.7664 29.522 34.6909 30.561L34.6222 31.5071C34.3565 35.1637 34.2237 36.992 32.9825 37.6153C31.7414 38.2385 30.2139 37.244 27.159 35.2549L26.3687 34.7403C25.5005 34.175 25.0665 33.8924 24.5679 33.8125C24.0694 33.7325 23.5627 33.8644 22.5495 34.128L21.627 34.368C18.0613 35.2957 16.2784 35.7595 15.3174 34.7832C14.3564 33.8069 14.8536 32.037 15.8481 28.4972L16.1054 27.5814C16.388 26.5755 16.5293 26.0726 16.4582 25.5738C16.3872 25.0751 16.1118 24.637 15.5611 23.7608L15.0597 22.9631C13.1216 19.8799 12.1526 18.3382 12.7998 17.1116C13.447 15.8849 15.2818 15.7856 18.9513 15.587L19.9007 15.5356C20.9435 15.4792 21.4649 15.451 21.9195 15.2226C22.3742 14.9943 22.7106 14.5918 23.3835 13.7866L23.9961 13.0537Z" fill="#2684FC"/>
<path d="M32.8528 24.6402C31.0768 22.5152 30.1889 21.4528 29.1681 21.6164C28.1474 21.7801 27.6698 23.0614 26.7147 25.6242L26.4677 26.2872C26.1963 27.0155 26.0606 27.3796 25.7965 27.6479C25.5325 27.9161 25.17 28.0581 24.4451 28.342L23.7851 28.6005C21.2339 29.5997 19.9584 30.0993 19.8129 31.1204C19.6674 32.1415 20.7484 33.0079 22.9103 34.7408L23.4696 35.1891C24.0839 35.6815 24.3911 35.9277 24.5689 36.2647C24.7467 36.6017 24.775 36.9914 24.8317 37.7707L24.8832 38.4802C25.0825 41.2227 25.1821 42.5939 26.1129 43.0614C27.0438 43.5288 28.1894 42.7829 30.4806 41.2911L31.0734 40.9051C31.7244 40.4812 32.05 40.2692 32.4239 40.2093C32.7978 40.1493 33.1778 40.2482 33.9378 40.4459L34.6296 40.6259C37.3039 41.3217 38.641 41.6696 39.3618 40.9373C40.0826 40.2051 39.7096 38.8777 38.9638 36.2228L38.7708 35.536C38.5589 34.7816 38.4529 34.4044 38.5062 34.0303C38.5595 33.6562 38.766 33.3277 39.179 32.6705L39.5551 32.0723C41.0086 29.7598 41.7354 28.6036 41.25 27.6836C40.7646 26.7636 39.3885 26.6891 36.6364 26.5402L35.9243 26.5016C35.1423 26.4593 34.7512 26.4381 34.4102 26.2669C34.0692 26.0957 33.8169 25.7938 33.3122 25.1899L32.8528 24.6402Z" fill="#413B89"/>
</svg>
