<svg width="223" height="159" viewBox="0 0 223 159" fill="none" xmlns="http://www.w3.org/2000/svg">
<path d="M87.6168 81.024L89.7928 76.032C97.2168 76.2027 103.318 77.3547 108.097 79.488C112.961 81.536 116.587 84.4373 118.977 88.192C121.366 91.8613 122.561 96.128 122.561 100.992C122.561 106.197 121.366 110.848 118.977 114.944C116.587 118.955 113.003 122.155 108.225 124.544C103.531 126.848 97.6435 128 90.5608 128H19.6488L27.0728 78.72L19.6488 32H88.0008C96.8755 32 103.787 34.0907 108.737 38.272C113.686 42.368 116.161 48.0853 116.161 55.424C116.161 59.4347 115.222 63.2747 113.345 66.944C111.467 70.6133 108.438 73.728 104.257 76.288C100.161 78.7627 94.6141 80.3413 87.6168 81.024ZM45.8888 121.856L35.6488 109.44H83.3928C87.2328 109.44 90.2195 108.501 92.3528 106.624C94.4862 104.747 95.5528 102.144 95.5528 98.816C95.5528 95.488 94.4008 92.8427 92.0968 90.88C89.7928 88.832 86.3795 87.808 81.8568 87.808H42.4328V69.632H78.2728C81.3448 69.632 83.9048 68.736 85.9528 66.944C88.0861 65.0667 89.1528 62.5493 89.1528 59.392C89.1528 56.832 88.2568 54.7413 86.4648 53.12C84.6728 51.4133 82.1128 50.56 78.7848 50.56H35.7768L45.8888 38.144L52.4168 78.72L45.8888 121.856ZM157.913 129.28C152.366 129.28 147.406 128.267 143.033 126.24C138.713 124.213 135.299 121.387 132.793 117.76C130.286 114.08 129.033 109.813 129.033 104.96C129.033 100.213 130.233 96.0533 132.633 92.48C135.033 88.8533 138.313 86.0267 142.473 84C146.686 81.9733 151.433 80.96 156.713 80.96C162.206 80.96 166.873 82.16 170.713 84.56C174.606 86.9067 177.593 90.24 179.673 94.56C181.806 98.88 182.873 103.973 182.873 109.84H142.233V100H173.673L168.313 103.44C168.099 101.093 167.513 99.12 166.553 97.52C165.593 95.8667 164.313 94.6133 162.713 93.76C161.166 92.9067 159.299 92.48 157.113 92.48C154.713 92.48 152.659 92.96 150.953 93.92C149.246 94.88 147.913 96.2133 146.953 97.92C145.993 99.5733 145.513 101.52 145.513 103.76C145.513 106.64 146.153 109.093 147.433 111.12C148.766 113.093 150.686 114.613 153.193 115.68C155.753 116.747 158.873 117.28 162.553 117.28C165.913 117.28 169.246 116.853 172.553 116C175.913 115.093 178.953 113.84 181.673 112.24V122.64C178.526 124.773 174.926 126.427 170.873 127.6C166.873 128.72 162.553 129.28 157.913 129.28Z" fill="white"/>
<path d="M87.6168 81.024L89.7928 76.032C97.2168 76.2027 103.318 77.3547 108.097 79.488C112.961 81.536 116.587 84.4373 118.977 88.192C121.366 91.8613 122.561 96.128 122.561 100.992C122.561 106.197 121.366 110.848 118.977 114.944C116.587 118.955 113.003 122.155 108.225 124.544C103.531 126.848 97.6435 128 90.5608 128H19.6488L27.0728 78.72L19.6488 32H88.0008C96.8755 32 103.787 34.0907 108.737 38.272C113.686 42.368 116.161 48.0853 116.161 55.424C116.161 59.4347 115.222 63.2747 113.345 66.944C111.467 70.6133 108.438 73.728 104.257 76.288C100.161 78.7627 94.6141 80.3413 87.6168 81.024ZM45.8888 121.856L35.6488 109.44H83.3928C87.2328 109.44 90.2195 108.501 92.3528 106.624C94.4862 104.747 95.5528 102.144 95.5528 98.816C95.5528 95.488 94.4008 92.8427 92.0968 90.88C89.7928 88.832 86.3795 87.808 81.8568 87.808H42.4328V69.632H78.2728C81.3448 69.632 83.9048 68.736 85.9528 66.944C88.0861 65.0667 89.1528 62.5493 89.1528 59.392C89.1528 56.832 88.2568 54.7413 86.4648 53.12C84.6728 51.4133 82.1128 50.56 78.7848 50.56H35.7768L45.8888 38.144L52.4168 78.72L45.8888 121.856ZM157.913 129.28C152.366 129.28 147.406 128.267 143.033 126.24C138.713 124.213 135.299 121.387 132.793 117.76C130.286 114.08 129.033 109.813 129.033 104.96C129.033 100.213 130.233 96.0533 132.633 92.48C135.033 88.8533 138.313 86.0267 142.473 84C146.686 81.9733 151.433 80.96 156.713 80.96C162.206 80.96 166.873 82.16 170.713 84.56C174.606 86.9067 177.593 90.24 179.673 94.56C181.806 98.88 182.873 103.973 182.873 109.84H142.233V100H173.673L168.313 103.44C168.099 101.093 167.513 99.12 166.553 97.52C165.593 95.8667 164.313 94.6133 162.713 93.76C161.166 92.9067 159.299 92.48 157.113 92.48C154.713 92.48 152.659 92.96 150.953 93.92C149.246 94.88 147.913 96.2133 146.953 97.92C145.993 99.5733 145.513 101.52 145.513 103.76C145.513 106.64 146.153 109.093 147.433 111.12C148.766 113.093 150.686 114.613 153.193 115.68C155.753 116.747 158.873 117.28 162.553 117.28C165.913 117.28 169.246 116.853 172.553 116C175.913 115.093 178.953 113.84 181.673 112.24V122.64C178.526 124.773 174.926 126.427 170.873 127.6C166.873 128.72 162.553 129.28 157.913 129.28Z" fill="#16005E"/>
<path d="M197.383 128.8C195.676 128.8 194.103 128.4 192.663 127.6C191.276 126.8 190.183 125.707 189.383 124.32C188.583 122.88 188.183 121.307 188.183 119.6C188.183 117.893 188.583 116.347 189.383 114.96C190.183 113.573 191.276 112.48 192.663 111.68C194.103 110.827 195.676 110.4 197.383 110.4C199.143 110.4 200.716 110.827 202.103 111.68C203.489 112.48 204.583 113.573 205.383 114.96C206.183 116.347 206.583 117.893 206.583 119.6C206.583 121.307 206.183 122.88 205.383 124.32C204.583 125.707 203.489 126.8 202.103 127.6C200.716 128.4 199.143 128.8 197.383 128.8Z" fill="#777777"/>
</svg>
